<svg id="Capa_1" data-name="Capa 1" xmlns="http://www.w3.org/2000/svg" viewBox="0 0 512 512"><title>amway-heart-contained</title><path d="M251.87,177s-7.46-35-17.78-64.84-39-73.41-90.05-95.8S53.92,10.06,31,44.47-9.18,144.92,12.05,236.14,65.39,372.7,79.17,391s55.65,70.59,81.47,93.57c0,0-5.75,2.85-5.18,9.13S162.94,500,165.8,500s11.48-2.84,11.48-2.84,5.74,4.57,11.45-4c0,0,44.21-16.08,112.49-60.26s128-87.78,172.7-153.18S518.11,161,502,124.8,429.17,58.25,374.09,73.16C321.26,87.43,284,117.92,251.87,177Z"/></svg>