<svg id="Capa_1" data-name="Capa 1" xmlns="http://www.w3.org/2000/svg" viewBox="0 0 512 512"><title>amway-heart-outlined</title><path d="M456.76,86.15a101.14,101.14,0,0,0-40.37-8.46c-43.35.06-83.76,27.52-112,60-15.55,17.92-29,37.56-41.84,57.3-6.15,9.41-11.78,19.11-17.19,28.86a1.35,1.35,0,0,0-.22.45s0,0,0,0c-.29.65-2.25,4.74-4.5,8.64a50.75,50.75,0,0,1-3.74,5.81,13.85,13.85,0,0,1-1.58,1.73l-.18.15a4,4,0,0,1-.15-.7,510.82,510.82,0,0,0-38.19-129.08c-18.23-41-61.27-86.29-109.59-86.41a75.27,75.27,0,0,0-24,3.93C12.24,45.64.1,119.76,0,169.22c0,6.53.22,12.65.61,18.19,2.86,41,12.66,79.64,28.29,117.54,18,43.54,45.47,76.39,75.59,111.56,25,29.26,51.82,59,84.76,79.9a3.09,3.09,0,0,0,2.83,2.78c.73.09,1.42.09,2,.12,3.59,2.17,7.25,4.35,11.05,6.29a3.26,3.26,0,0,0,1.46.37,3.16,3.16,0,0,0,3-3.28,3.32,3.32,0,0,0-1.86-3l-.66-.35c64.8-3.94,122.75-67.36,161.78-111,44.66-49.88,88.4-104.47,114-167.18a174.41,174.41,0,0,0,12.43-63C495.31,128.17,485.64,98.64,456.76,86.15ZM200.84,493c-1.7,0-3.39,0-5.07-.13-27.18-16.65-49.63-39.78-71.29-63.5-25-27.32-51.86-56.26-70.31-88.1-30.56-52.81-47-111.9-47-172.22a326,326,0,0,1,2.2-38.15c3.63-31.58,16-62.36,38.5-85,10.82-10.85,23.56-15.1,36.9-15.11,22.29,0,46.17,12.13,63.4,25.69,55.21,43.34,72,130.23,82.25,196.2a3.26,3.26,0,0,0,3.29,2.71,3,3,0,0,0,2.6-1.45c36-65.09,76.13-144.16,151.84-165.64a105.18,105.18,0,0,1,28.54-4.11c26.8,0,51.07,11.49,64.51,37.76,5.91,11.57,8.23,24.15,8.25,37,0,20.35-5.93,41.42-12.69,59.86-19.2,52-56.07,97.51-91.06,140.22C344,410.17,272.5,493.22,200.84,493ZM478.3,219.48h0ZM456.12,87.66Z"/></svg>