<svg id="Capa_1" data-name="Capa 1" xmlns="http://www.w3.org/2000/svg" viewBox="0 0 512 512"><title>cash</title><path d="M194.78,424.3H78a8,8,0,0,1-8-7.18,35,35,0,0,0-26.17-30.29,8,8,0,0,1-6.06-7.76V270.26a8,8,0,0,1,6.06-7.76A34.84,34.84,0,0,0,70.18,231a8,8,0,0,1,8-7.45H194.78a8,8,0,0,1,0,16H85.08a50.72,50.72,0,0,1-31.25,36.55v97.15A51.12,51.12,0,0,1,84.7,408.3H194.78a8,8,0,1,1,0,16Z"/><path d="M434,424.3H317.22a8,8,0,0,1,0-16H427.3a51.12,51.12,0,0,1,30.87-35.06V276.09a50.72,50.72,0,0,1-31.25-36.55H317.22a8,8,0,0,1,0-16H433.84a8,8,0,0,1,8,7.45,34.84,34.84,0,0,0,26.29,31.51,8,8,0,0,1,6.06,7.76V379.07a8,8,0,0,1-6.06,7.76,35,35,0,0,0-26.17,30.29A8,8,0,0,1,434,424.3Z"/><path d="M483,173.33a8,8,0,0,1-8-8V146.52C413.38,176.2,264,173,255.9,172.84H12a8,8,0,0,1,0-16H256.2c.44,0,44.92,1,94.66-2.38,81.72-5.64,114.33-18.53,127.29-28.35A8,8,0,0,1,491,132.49v32.84A8,8,0,0,1,483,173.33Z"/><path d="M170.18,137.52c-10.61,0-17.19-.15-18.14-.17H12a8,8,0,0,1,0-16H152.36c.65,0,65.59,1.67,134.06-5.57,39.93-4.22,73.18-10.58,98.83-18.91,30.61-9.94,49.87-22.42,57.25-37.08a8,8,0,0,1,15.15,3.59V106a8,8,0,0,1-16,0V85.71c-26.2,22.54-77.69,38-153.7,46C240.43,136.72,194.62,137.52,170.18,137.52Z"/><path d="M256,392c-24.87,0-38.43-23.27-38.43-35.23a8,8,0,0,1,16,0c0,3.94,7,19.23,22.43,19.23,7.86,0,21.9-6.43,21.9-19.23,0-25.1-17.29-25.1-23-25.1-17.6,0-26.68-9.45-31.19-17.38-6.35-11.15-6.76-25.15-1.1-37.45C229,262.94,240.87,255.3,256,255.3c28.26,0,37.48,23.71,38.41,36.24a8,8,0,0,1-16,1.23c-.2-2.24-2.46-21.47-22.46-21.47-8.89,0-15.05,4-18.82,12.2-3.51,7.63-3.34,16.17.47,22.84,3.55,6.26,9.21,9.3,17.28,9.3,24.4,0,39,15.36,39,41.1C293.9,371.51,280.73,392,256,392Z"/><path d="M256,271.3a8,8,0,0,1-8-8V246a8,8,0,0,1,16,0V263.3A8,8,0,0,1,256,271.3Z"/><path d="M256,409.32a8,8,0,0,1-8-8V384a8,8,0,0,1,16,0v17.35A8,8,0,0,1,256,409.32Z"/><path d="M500,456.62H12a8,8,0,0,1-8-8v-250a8,8,0,0,1,8-8H500a8,8,0,0,1,8,8v250A8,8,0,0,1,500,456.62Zm-480-16H492v-234H20Z"/></svg>