<svg xmlns="http://www.w3.org/2000/svg" viewBox="0 0 512 512"><title>clock</title><g id="圖層_2" data-name="圖層 2"><path d="M256,512.5A256.5,256.5,0,0,1,74.63,74.63,256.5,256.5,0,1,1,437.37,437.37,254.8,254.8,0,0,1,256,512.5Zm0-489A232.5,232.5,0,0,0,91.6,420.4,232.5,232.5,0,1,0,420.4,91.6,231,231,0,0,0,256,23.5Z"/><path d="M256,267.92a12,12,0,0,1-12-12V73a12,12,0,1,1,24,0V255.92A12,12,0,0,1,256,267.92Z"/><path d="M157.32,366.59a12,12,0,0,1-8.48-20.49l98.67-98.67a12,12,0,1,1,17,17l-98.68,98.68A12,12,0,0,1,157.32,366.59Z"/></g></svg>