<svg id="Capa_1" data-name="Capa 1" xmlns="http://www.w3.org/2000/svg" viewBox="0 0 512 512"><title>credit-card</title><path d="M480.82,445.3H123.91a28,28,0,0,1-28-28V204.16a28,28,0,0,1,28-28H480.82a28,28,0,0,1,28,28V417.3A28,28,0,0,1,480.82,445.3ZM123.91,192.16a12,12,0,0,0-12,12V417.3a12,12,0,0,0,12,12H480.82a12,12,0,0,0,12-12V204.16a12,12,0,0,0-12-12Z"/><rect x="103.91" y="253.53" width="396.9" height="56.36"/><path d="M71.22,397.68a28,28,0,0,1-27.51-23.15l-37-209.9a28,28,0,0,1,22.71-32.44l351.49-62a28,28,0,0,1,32.43,22.71l15.85,89.84a8,8,0,0,1-7.88,9.39H123.91a12,12,0,0,0-12,12V384.23a8,8,0,0,1-6.61,7.88l-29.15,5.14A28.39,28.39,0,0,1,71.22,397.68Zm32.69-13.45h0ZM385.77,85.79a12.38,12.38,0,0,0-2.09.18L32.19,148a12,12,0,0,0-9.73,13.9l37,209.9a12,12,0,0,0,13.9,9.74l22.54-4V204.16a28,28,0,0,1,28-28H411.76L397.58,95.71A12,12,0,0,0,385.77,85.79Z"/></svg>