<svg id="Capa_1" data-name="Capa 1" xmlns="http://www.w3.org/2000/svg" viewBox="0 0 512 512"><title>document-file</title><path d="M424.34,151H341.22A37.16,37.16,0,0,1,304.1,113.9V12a8,8,0,0,1,14.08-5.21l112.24,131A8,8,0,0,1,424.34,151ZM320.1,33.63V113.9A21.14,21.14,0,0,0,341.22,135H407Z"/><path d="M395.23,508H116.77a37.16,37.16,0,0,1-37.11-37.11V41.11A37.16,37.16,0,0,1,116.77,4H312.1a8,8,0,0,1,6.08,2.79l112.24,131a8,8,0,0,1,1.92,5.21V470.89A37.16,37.16,0,0,1,395.23,508ZM116.77,20A21.13,21.13,0,0,0,95.66,41.11V470.89A21.13,21.13,0,0,0,116.77,492H395.23a21.13,21.13,0,0,0,21.11-21.11V146L308.42,20Z"/><path d="M255.93,94.3H143.26a8,8,0,0,1,0-16H255.93a8,8,0,0,1,0,16Z"/><path d="M255.93,150.73H143.26a8,8,0,0,1,0-16H255.93a8,8,0,0,1,0,16Z"/><path d="M368.25,207.16h-225a8,8,0,0,1,0-16h225a8,8,0,0,1,0,16Z"/><path d="M368.25,263.58h-225a8,8,0,0,1,0-16h225a8,8,0,1,1,0,16Z"/><path d="M368.25,320h-225a8,8,0,0,1,0-16h225a8,8,0,0,1,0,16Z"/><path d="M368.25,376.43h-225a8,8,0,0,1,0-16h225a8,8,0,0,1,0,16Z"/><path d="M368.25,432.86h-225a8,8,0,0,1,0-16h225a8,8,0,0,1,0,16Z"/></svg>