<svg id="Capa_1" data-name="Capa 1" xmlns="http://www.w3.org/2000/svg" viewBox="0 0 512 512"><title>document-write</title><path d="M415.86,392.06a8,8,0,0,1-6.77-12.26l43.45-69.22a8,8,0,0,1,13.56,8.5l-43.46,69.23A8,8,0,0,1,415.86,392.06Z"/><path d="M395.16,414.92a8,8,0,0,1-4-14.94c7.5-4.3,13.19-12.68,17.94-20.2a8,8,0,1,1,13.53,8.55c-6.2,9.81-13.34,19.69-23.5,25.52A7.85,7.85,0,0,1,395.16,414.92Z"/><path d="M335.42,449.53a8,8,0,0,1-4-14.92L391.14,400a8,8,0,0,1,8,13.84l-59.74,34.62A8,8,0,0,1,335.42,449.53Z"/><path d="M316.62,456.18a18.71,18.71,0,0,1-10.38-2.93c-10.65-6.9-10.45-22.73-9.37-34.05a8,8,0,1,1,15.92,1.52c-1.57,16.49,2,19,2.14,19.1s3.56,2.12,16.53-5.24a8,8,0,0,1,7.9,13.91C333,452.11,324.61,456.18,316.62,456.18Z"/><path d="M304.84,428l-.75,0a8,8,0,0,1-7.23-8.71l6.1-65.65A8,8,0,0,1,318.89,355l-6.1,65.66A8,8,0,0,1,304.84,428Z"/><path d="M310.93,362.31c-.25,0-.5,0-.75,0a8,8,0,0,1-7.22-8.71,68.6,68.6,0,0,1,10.38-29.66,8,8,0,1,1,13.54,8.51,52.64,52.64,0,0,0-8,22.64A8,8,0,0,1,310.93,362.31Z"/><path d="M320.1,336.16a7.9,7.9,0,0,1-4.32-1.28,8,8,0,0,1-2.39-11.06l75.89-117.7a8,8,0,1,1,13.45,8.67l-75.9,117.7A8,8,0,0,1,320.1,336.16Z"/><path d="M383.76,377.57A8,8,0,0,1,377,365.32a10.74,10.74,0,0,0,1.32-8.24,12.39,12.39,0,0,0-5.78-7.74c-5.7-3.49-13.17-2.16-16.67,2.94a8,8,0,0,1-13.19-9.06c8.38-12.2,25.15-15.51,38.18-7.55a28.24,28.24,0,0,1,13,17.72,26.61,26.61,0,0,1-3.34,20.44A8,8,0,0,1,383.76,377.57Z"/><path d="M411.53,394.71a8,8,0,0,1-6.75-12.27,6.9,6.9,0,0,0,.85-5.3,8.29,8.29,0,0,0-3.86-5.17c-3.81-2.3-8.75-1.46-11,1.88a8,8,0,1,1-13.22-9c7.1-10.42,21.39-13.3,32.53-6.56a24.12,24.12,0,0,1,11.15,15.19A22.78,22.78,0,0,1,418.3,391,8,8,0,0,1,411.53,394.71Z"/><path d="M348.56,356.63a8,8,0,0,1-6.75-12.28,6.8,6.8,0,0,0,.86-5.3,8.47,8.47,0,0,0-4-5.31c-3.87-2.38-8.88-1.52-11.22,1.89a8,8,0,0,1-13.19-9.06c7.21-10.49,21.59-13.34,32.74-6.49a24.35,24.35,0,0,1,11.23,15.31,22.81,22.81,0,0,1-2.92,17.53A8,8,0,0,1,348.56,356.63Z"/><path d="M359.2,431.09a8,8,0,0,1-6.13-2.87,80.16,80.16,0,0,0-19.66-16.88A81.83,81.83,0,0,0,305.86,401a8,8,0,0,1,2.89-15.74,97.84,97.84,0,0,1,33,12.45A96,96,0,0,1,365.33,418a8,8,0,0,1-6.13,13.14Z"/><path d="M455.73,477.32a8,8,0,0,1-8-8V397.46a8,8,0,0,1,16,0v71.86A8,8,0,0,1,455.73,477.32Z"/><path d="M424.47,508a8,8,0,0,1,0-16c12.61,0,23.26-10.39,23.26-22.68a8,8,0,1,1,16,0C463.73,490.65,446.12,508,424.47,508Z"/><path d="M424.47,508H83.86a8,8,0,0,1,0-16H424.47a8,8,0,0,1,0,16Z"/><path d="M83.86,508c-21.61,0-39.18-17.35-39.18-38.68a8,8,0,0,1,16,0c0,12.51,10.4,22.68,23.18,22.68a8,8,0,1,1,0,16Z"/><path d="M52.68,477.32a8,8,0,0,1-8-8V134.76a8,8,0,0,1,2.62-5.92L182.35,6.08A8,8,0,0,1,187.73,4H424.47a8,8,0,0,1,0,16H190.82L60.68,138.3v331A8,8,0,0,1,52.68,477.32Z"/><path d="M455.73,50.68a8,8,0,0,1-8-8C447.73,30.17,437.3,20,424.47,20a8,8,0,0,1,0-16c21.65,0,39.26,17.35,39.26,38.68A8,8,0,0,1,455.73,50.68Z"/><path d="M455.73,273.86a8,8,0,0,1-8-8V42.68a8,8,0,0,1,16,0V265.86A8,8,0,0,1,455.73,273.86Z"/><path d="M194,133.18a8,8,0,0,1-8-8V12a8,8,0,0,1,16,0V125.18A8,8,0,0,1,194,133.18Z"/><path d="M177.27,149.6a8,8,0,0,1,0-16,8.67,8.67,0,0,0,8.68-8.42,8,8,0,0,1,16,0A24.57,24.57,0,0,1,177.27,149.6Z"/><path d="M177.27,149.6H52.68a8,8,0,0,1,0-16H177.27a8,8,0,0,1,0,16Z"/><path d="M393.41,72.06H275.32a8,8,0,0,1,0-16H393.41a8,8,0,0,1,0,16Z"/><path d="M400.75,80a8,8,0,0,1-8-8,8,8,0,0,1,.66-16c8.46,0,15.34,7.16,15.34,16A8,8,0,0,1,400.75,80Zm-7.34-8h0Z"/><path d="M400.75,147.23a8,8,0,0,1-8-8V72a8,8,0,1,1,16,0v67.22A8,8,0,0,1,400.75,147.23Z"/><path d="M393.41,155.17a8,8,0,0,1-.66-16,8,8,0,0,1,16,0C408.75,148,401.87,155.17,393.41,155.17Z"/><path d="M393.41,155.17H275.32a8,8,0,0,1,0-16H393.41a8,8,0,0,1,0,16Z"/><path d="M275.32,155.17c-8.48,0-15.37-7.15-15.37-15.94a8,8,0,0,1,16,0,8,8,0,0,1-.63,16Z"/><path d="M268,147.23a8,8,0,0,1-8-8V72a8,8,0,1,1,16,0v67.22A8,8,0,0,1,268,147.23Z"/><path d="M268,80a8,8,0,0,1-8-8c0-8.79,6.89-16,15.37-16A8,8,0,0,1,276,72,8,8,0,0,1,268,80Z"/><path d="M334,226.55H102a8,8,0,1,1,0-16H334a8,8,0,0,1,0,16Z"/><path d="M258.24,335.75H102a8,8,0,1,1,0-16H258.24a8,8,0,0,1,0,16Z"/><path d="M258.24,445H102a8,8,0,1,1,0-16H258.24a8,8,0,0,1,0,16Z"/></svg>