<svg id="Capa_1" data-name="Capa 1" xmlns="http://www.w3.org/2000/svg" viewBox="0 0 512 512"><title>donation-heart</title><path d="M373.2,309.73c10.15-8,19.89-17.81,29.32-27.33,2.9-2.92,5.74-5.79,8.54-8.55-3.65-3.44-7.74-6.13-12.15-7.23-18.33-4.53-40.06,38.05-68,65.77-6.24,6.21-12.64,12.09-18.8,17.49C318.33,346.47,346.79,330.47,373.2,309.73Z"/><path d="M17.91,226.53c-15.48,4.34-22.77,22-14.39,35.7,14.67,24,39.74,60.13,69.93,83.45,48.61,37.57,99.44,77.35,190,77.35s139.22-8.84,183.42-39.78S517.62,328,511,303.7s-26.52-24.31-57.46-2.21-57.45,55.24-117.12,55.24S203.83,336.84,175.1,308.12s4.42-22.1,24.31-8.84,84,42,108.28,26.51S329.79,286,301.06,275s-88.39-42-130.38-53C136.12,212.84,67.11,212.73,17.91,226.53Z"/><path d="M340.59,245.88l-25.69-16a266,266,0,0,1-27.14-19.76c-17.21-14.38-40.09-37.26-40.09-69.75,0-28.39,22-51.4,49-51.4,18.93,0,35.36,11.25,43.52,27.72C348.39,100.22,364.82,89,383.75,89c27.08,0,49,23,49,51.4,0,31-21.46,53.11-40.16,68.91a299,299,0,0,1-26.69,20Z"/><path d="M17.91,226.53c-15.48,4.34-22.77,22-14.39,35.7,14.67,24,39.74,60.13,69.93,83.45,48.61,37.57,99.44,77.35,190,77.35s139.22-8.84,183.42-39.78S517.62,328,511,303.7s-26.52-24.31-57.46-2.21-57.45,55.24-117.12,55.24S203.83,336.84,175.1,308.12s4.42-22.1,24.31-8.84,84,42,108.28,26.51S329.79,286,301.06,275s-88.39-42-130.38-53C136.12,212.84,67.11,212.73,17.91,226.53Z"/><path d="M428,306.09c6-4.83,12.18-9.83,18.54-14.37,9.22-6.59,17.65-11.4,25.36-14.48-4.14-6.81-9.53-13-16.18-15.53-17.67-6.63-44.19,33.15-75.13,57.45-12.4,9.75-25.16,18.43-36,25.33C383.26,342.2,406,323.87,428,306.09Z"/></svg>