<svg id="Capa_1" data-name="Capa 1" xmlns="http://www.w3.org/2000/svg" viewBox="0 0 600 512"><title>donation-coin</title><path d="M380.11,396.1H264.72a12,12,0,0,1,0-24H380.11a22.88,22.88,0,1,0,0-45.75H298.52a12,12,0,0,1-5.94-1.57l-67.87-38.67a45,45,0,0,0-22.24-5.89H106.31a12,12,0,0,1,0-24h96.16a69.1,69.1,0,0,1,34.13,9l65.1,37.09h78.41a46.88,46.88,0,1,1,0,93.75Z"/><path d="M290.51,512A151.88,151.88,0,0,1,212,490.11l-60.08-36.32a57.71,57.71,0,0,0-16.94-6.87l-31.46-7.26a12,12,0,1,1,5.39-23.39l31.47,7.26a81.93,81.93,0,0,1,24,9.72l60.08,36.32a127.94,127.94,0,0,0,117.81,7.51l219.87-98.26A21.67,21.67,0,0,0,546,338.61L403.92,388.78a12,12,0,1,1-8-22.63L538,316a45.67,45.67,0,0,1,33.84,84.75L351.94,499A151.78,151.78,0,0,1,290.51,512Z"/><path d="M86.31,466.64H13.11a12,12,0,0,1-12-12V244.92a12,12,0,0,1,12-12h73.2a32,32,0,0,1,32,32V434.64A32,32,0,0,1,86.31,466.64Zm-61.2-24h61.2a8,8,0,0,0,8-8V264.92a8,8,0,0,0-8-8H25.11Z"/><path d="M59.71,398.68a12,12,0,1,0,12,12A12,12,0,0,0,59.71,398.68Z"/><path d="M403.47,278c-76.64,0-139-62.35-139-139v0c.09-76.54,62.44-138.89,139-139s139,62.35,139,139S480.11,278,403.47,278Zm-115-139a115,115,0,1,0,115-115c-63.32.07-114.91,51.66-115,115Z"/><path d="M403.47,212.9a42.81,42.81,0,0,1-32.16-14.68c-6.83-7.63-11.07-17.31-11.07-25.26a12,12,0,0,1,24,0c.14,3.24,6.45,15.94,19.23,15.94,13.31,0,18.69-11.25,18.69-15.94,0-6-1.22-11.22-3.43-14.81-1.89-3.07-5.65-7.16-16.36-7.16-15.51,0-28.05-7-35.3-19.75-7.12-12.5-7.59-28.16-1.28-41.89,7.21-15.66,20.59-24.28,37.68-24.28,31.79,0,42.16,26.62,43.2,40.7l-23.93,1.77v.11a27.59,27.59,0,0,0-3.52-10.41c-3.35-5.57-8.36-8.17-15.75-8.17-7.7,0-12.59,3.18-15.87,10.31-3.09,6.72-3,14.19.33,20,3,5.27,7.45,7.63,14.44,7.63,27,0,43.79,17.61,43.79,46C446.16,189.7,431.32,212.9,403.47,212.9Z"/><path d="M403.47,89.07a12,12,0,0,1-12-12V59.26a12,12,0,1,1,24,0V77.07A12,12,0,0,1,403.47,89.07Z"/><path d="M403.47,230.71a12,12,0,0,1-12-12V200.9a12,12,0,1,1,24,0v17.81A12,12,0,0,1,403.47,230.71Z"/></svg>