<svg id="Capa_1" data-name="Capa 1" xmlns="http://www.w3.org/2000/svg" viewBox="0 0 512 512"><title>facebook-outlined</title><path d="M256,512A256,256,0,0,1,75,75,256,256,0,0,1,437,437,254.33,254.33,0,0,1,256,512Zm0-488A232,232,0,0,0,92,420.05,232,232,0,0,0,420.05,92,230.48,230.48,0,0,0,256,24Z"/><path d="M316,237.74H193.19a12,12,0,0,1,0-24H316a12,12,0,1,1,0,24Z"/><path d="M242.76,391.63a12,12,0,0,1-12-12V171.46a51.15,51.15,0,0,1,51.1-51.09H316a12,12,0,0,1,0,24h-34.1a27.13,27.13,0,0,0-27.1,27.09V379.63A12,12,0,0,1,242.76,391.63Z"/></svg>