<svg id="Capa_1" data-name="Capa 1" xmlns="http://www.w3.org/2000/svg" viewBox="0 0 600 512"><title>facebook-share</title><path d="M219.39,247.45H136a12,12,0,0,1,0-24h83.36a12,12,0,0,1,0,24Z"/><path d="M169.68,352a12,12,0,0,1-12-12V198.6a38.6,38.6,0,0,1,38.55-38.55h23.16a12,12,0,0,1,0,24H196.23a14.57,14.57,0,0,0-14.55,14.55V340A12,12,0,0,1,169.68,352Z"/><path d="M258.56,409.7h-.28a12,12,0,0,1-11.69-11.05c-.75-9.47-6.86-93.42,8.75-125.77,6.86-14.2,15.51-30.58,31.53-45.28,17.89-16.41,41.9-27.93,73.39-35.24a258.45,258.45,0,0,1,65.23-6.86V126.21a12,12,0,0,1,19-9.72L594,224.71a12,12,0,0,1-.13,19.53L444.41,349.61a12,12,0,0,1-18.92-9.81V282.75c-14.93,1.86-41.21,6.39-67.9,17C305.46,320.6,276.15,354,270.46,399.2A12,12,0,0,1,258.56,409.7ZM419.28,209.43a239.91,239.91,0,0,0-53.59,6.31C302.5,230.39,287.74,261,277,283.31c-2.67,5.54-7,19.62-7.92,53.6,17.51-25.3,44.53-45.49,80.26-59.65a302.18,302.18,0,0,1,87.64-19.7,12,12,0,0,1,12.55,12v47.11L566.35,234.3,449.49,149.71v48.65a12,12,0,0,1-13.67,11.88A138.2,138.2,0,0,0,419.28,209.43Z"/><path d="M178.67,433.67C80.7,433.67,1,354,1,256S80.7,78.33,178.67,78.33A176,176,0,0,1,286.92,115.1,178.84,178.84,0,0,1,349.76,208a12,12,0,0,1-23.11,6.48,154.69,154.69,0,0,0-54.37-80.31,152.18,152.18,0,0,0-93.61-31.79C93.94,102.33,25,171.26,25,256S93.94,409.67,178.67,409.67a152,152,0,0,0,96-33.65,154.35,154.35,0,0,0,53.55-84.46,12,12,0,1,1,23.36,5.54A177.74,177.74,0,0,1,178.67,433.67Z"/></svg>