<svg xmlns="http://www.w3.org/2000/svg" viewBox="0 0 512 512"><title>gift</title><g id="圖層_2" data-name="圖層 2"><g id="Layer_1" data-name="Layer 1"><path d="M428.54,111.94h-.39a8,8,0,0,1-7.61-8.38c.79-16.49.06-46.39-5.25-56.41-9.2-17.37-24.35-22.54-42.64-14.54-9,4-33.67,19.1-69.36,42.63a8,8,0,0,1-8.8-13.36C332,37.17,356.1,22.39,366.24,18c25.88-11.32,50.1-3,63.19,21.7,9.09,17.16,7.32,59.86,7.09,64.67A8,8,0,0,1,428.54,111.94Z"/><path d="M79.76,111.94a8,8,0,0,1-8-7.62c-.23-4.81-2-47.5,7.08-64.66C92,15,116.18,6.63,142.06,18c23,10,69.16,42.14,71.11,43.5A8,8,0,0,1,204,74.58c-.47-.33-46.86-32.56-68.37-42-18.3-8-33.45-2.84-42.66,14.54-5.3,10-6,39.91-5.24,56.4a8,8,0,0,1-7.61,8.38Z"/><path d="M426.07,499.06H85.93a45,45,0,0,1-45-45V222.24a8,8,0,0,1,8-8H463a8,8,0,0,1,8,8V454.1A45,45,0,0,1,426.07,499.06ZM57,230.24V454.1a29,29,0,0,0,29,29H426.07a29,29,0,0,0,29-29V230.24Z"/><path d="M463,230.24H49a45,45,0,0,1-45-45V140.91a45,45,0,0,1,45-45H463a45,45,0,0,1,45,45v44.37A45,45,0,0,1,463,230.24ZM49,111.94a29,29,0,0,0-29,29v44.37a29,29,0,0,0,29,29H463a29,29,0,0,0,29-29V140.91a29,29,0,0,0-29-29Z"/><path d="M299.72,112a8,8,0,0,1-7.53-10.71,41,41,0,1,0-77.12,0,8,8,0,1,1-15,5.44,57,57,0,1,1,107.22,0A8,8,0,0,1,299.72,112Z"/><path d="M293.13,499.07H218.87a8,8,0,0,1-8-8V103.94a8,8,0,0,1,8-8h74.26a8,8,0,0,1,8,8V491.07A8,8,0,0,1,293.13,499.07Zm-66.26-16h58.26V111.94H226.87Z"/></g></g></svg>