<svg id="圖層_1" data-name="圖層 1" xmlns="http://www.w3.org/2000/svg" viewBox="0 0 494 136"><defs><style>.cls-1{fill:#e00045;}.cls-2{fill:#fff;}.cls-3{fill:#002c63;}.cls-4{fill:none;stroke:#242424;stroke-width:1.39px;}.cls-5{fill:#242424;}</style></defs><title>hopemaker-m</title><path class="cls-1" d="M95.8,26.77a99.31,99.31,0,0,0-2.74-10A26.24,26.24,0,0,0,79.14,2C71.25-1.51,65.22,1,61.67,6.29s-6.2,15.52-2.92,29.61S67,57,69.12,59.84s8.6,10.9,12.59,14.45a1.49,1.49,0,0,0-.8,1.41c.09,1,1.15,1,1.6,1a10.15,10.15,0,0,0,1.77-.44s.89.71,1.77-.62c0,0,6.83-2.49,17.38-9.31s19.77-13.56,26.68-23.67,6.83-18.35,4.35-23.94-11.26-10.28-19.77-8C106.53,12.93,100.77,17.64,95.8,26.77Z"/><path class="cls-2" d="M127.46,12.73a15.65,15.65,0,0,0-6.24-1.31c-6.7,0-12.94,4.25-17.3,9.27a80.85,80.85,0,0,0-6.46,8.86C96.51,31,95.64,32.5,94.8,34c0,0,0,0,0,.06h0c0,.1-.34.73-.69,1.34a8.12,8.12,0,0,1-.58.89,1.71,1.71,0,0,1-.25.27l0,0a.53.53,0,0,1,0-.11,78.76,78.76,0,0,0-5.9-19.94C84.48,10.21,77.83,3.22,70.36,3.2a11.53,11.53,0,0,0-3.71.61c-7.87,2.66-9.75,14.11-9.76,21.76,0,1,0,1.95.09,2.81a57.8,57.8,0,0,0,4.37,18.16c2.79,6.73,7,11.8,11.68,17.24,3.87,4.52,8,9.1,13.1,12.34a.47.47,0,0,0,.44.43l.31,0c.55.33,1.12.67,1.7,1a.46.46,0,0,0,.23.06.51.51,0,0,0,.17-1l-.1-.06c10-.6,19-10.4,25-17.14,6.9-7.71,13.66-16.14,17.61-25.83a27.05,27.05,0,0,0,1.93-9.74C133.42,19.22,131.92,14.66,127.46,12.73ZM87.92,75.6l-.78,0c-4.2-2.57-7.67-6.15-11-9.81-3.86-4.22-8-8.7-10.86-13.61A53.1,53.1,0,0,1,58,25.55a50.87,50.87,0,0,1,.34-5.9,22,22,0,0,1,6-13.13A7.77,7.77,0,0,1,70,4.19c3.44,0,7.13,1.87,9.79,4,8.53,6.7,11.13,20.12,12.71,30.31a.5.5,0,0,0,.51.42.45.45,0,0,0,.4-.22C99,28.61,105.16,16.39,116.86,13.08a16.22,16.22,0,0,1,4.41-.64,10.63,10.63,0,0,1,10,5.83A12.62,12.62,0,0,1,132.52,24a27.57,27.57,0,0,1-2,9.25c-3,8-8.66,15.07-14.07,21.67C110,62.8,99,75.63,87.92,75.6Zm42.87-42.27ZM127.36,13Z"/><path class="cls-3" d="M42.67,23.11q-.21-5.14-.45-10.48c.7.11,1.38.21,2,.29a16,16,0,0,0,1.95.12,15.91,15.91,0,0,0,1.94-.12c.64-.08,1.32-.18,2-.29Q49.91,18,49.7,23.11t-.2,10.47V47.49q0,5.34.2,10.51t.45,10.19c-1.24-.11-2.56-.16-4-.16s-2.73,0-4,.16q.24-5,.45-10.19t.2-10.51V40.21l-8.45-.12q-4.08,0-8.45,0t-8.45,0l-8.45.12v7.28c0,3.56.06,7.06.2,10.51s.28,6.85.44,10.19c-1.24-.11-2.56-.16-4-.16s-2.72,0-4,.16Q2,63.18,2.23,58c.14-3.45.2-7,.2-10.51V33.58c0-3.56-.06-7-.2-10.47S2,16.19,1.79,12.63c.7.11,1.37.21,2,.29A15.79,15.79,0,0,0,5.75,13a15.79,15.79,0,0,0,1.94-.12c.65-.08,1.32-.18,2-.29Q9.47,18,9.27,23.11c-.14,3.42-.2,6.91-.2,10.47v2.83l8.45.16c2.72.06,5.54.08,8.45.08s5.73,0,8.45-.08l8.45-.16V33.58Q42.87,28.24,42.67,23.11Z"/><path class="cls-3" d="M143.55,33.58q0-5.34-.2-10.47c-.14-3.43-.28-6.92-.45-10.48,1.3.11,2.61.21,3.93.29s2.63.12,3.92.12c.65,0,1.43,0,2.34-.08s1.85-.1,2.79-.12,1.85-.07,2.71-.13,1.59-.08,2.19-.08c.81,0,1.8,0,3,.08a25.21,25.21,0,0,1,3.76.49,21.07,21.07,0,0,1,3.92,1.21A11,11,0,0,1,175,16.76a11.51,11.51,0,0,1,2.55,3.84,14.88,14.88,0,0,1,1,5.7A14.82,14.82,0,0,1,176.18,35a16.64,16.64,0,0,1-5.66,5.18,22.45,22.45,0,0,1-7.11,2.51,40.06,40.06,0,0,1-6.68.64c-1.24,0-2.37,0-3.39,0s-2.08-.09-3.16-.2v4.45q0,5.34.21,10.51t.44,10.19c-1.24-.11-2.56-.16-4-.16s-2.73,0-4,.16c.17-3.34.31-6.74.45-10.19s.2-7,.2-10.51Zm6.63,6.06a24.58,24.58,0,0,0,5.74.65,24.74,24.74,0,0,0,5.18-.57A13.59,13.59,0,0,0,166,37.66a11.17,11.17,0,0,0,3.64-4.12,14.23,14.23,0,0,0,1.42-6.75,14.23,14.23,0,0,0-1-5.67,8,8,0,0,0-2.71-3.39,10.61,10.61,0,0,0-4.25-1.66,32.29,32.29,0,0,0-5.66-.44h-7.28Z"/><path class="cls-3" d="M186.29,23q-.19-5.18-.44-10.35c2.42.11,4.84.21,7.23.29s4.82.12,7.24.12,4.83,0,7.2-.12,4.77-.18,7.2-.29a11.93,11.93,0,0,0,0,4.86c-1.73-.11-3.31-.22-4.73-.33l-4.53-.32c-1.59-.11-3.33-.2-5.22-.28s-4.15-.13-6.79-.13c-.06,1.73-.12,3.37-.2,4.94s-.12,3.34-.12,5.33,0,4.16,0,6.15,0,3.51,0,4.53q3.56,0,6.38-.08c1.89,0,3.62-.12,5.18-.2s3-.17,4.33-.25,2.57-.17,3.76-.28a13,13,0,0,0-.25,2.51,12.43,12.43,0,0,0,.25,2.42c-1.41-.16-3-.29-4.9-.4s-3.72-.18-5.58-.2l-5.25-.08c-1.65,0-2.95,0-3.92,0,0,.48,0,1,0,1.57s0,1.28,0,2.15v8c0,3.07,0,5.61,0,7.6s.06,3.51.12,4.53H199c2.05,0,4.05,0,6-.12s3.83-.19,5.58-.32a37.19,37.19,0,0,0,4.57-.61,5.94,5.94,0,0,0-.2,1.25c0,.46,0,.88,0,1.26a7.58,7.58,0,0,0,.24,2.1c-2.42-.11-4.84-.16-7.24-.16H193.21q-3.65,0-7.36.16.24-5.18.44-10.31c.14-3.42.2-6.91.2-10.47V33.5C186.49,29.94,186.43,26.44,186.29,23Z"/><path class="cls-3" d="M261.82,33.9q5.7,10.85,11.93,22.24.81-1.53,2.35-4.41t3.56-6.59c1.34-2.48,2.79-5.16,4.32-8l4.69-8.78q2.38-4.44,4.73-8.73t4.37-8h1.05q.89,7.77,1.66,15t1.58,14.24q.79,7,1.61,13.83t1.78,13.54a11.25,11.25,0,0,0-1.9-.16h-3.8a11.33,11.33,0,0,0-1.9.16q-.89-10.75-1.78-20.86T293.89,26.7h-.16q-5.58,10.2-11,20.26T272.54,68h-.73Q267,57.85,261.66,47.61T251,26.7h-.16q-.57,5-1.26,10.88t-1.25,11.57q-.57,5.7-1,10.75T247,68.19a25.11,25.11,0,0,0-5.66,0q1.05-6.55,2.19-13.83t2.18-14.64q1-7.35,1.94-14.51t1.54-13.63h1.37Q256.12,23.07,261.82,33.9Z"/><path class="cls-3" d="M359.88,68.19a14.94,14.94,0,0,0-2.15-.16h-4.28a14.94,14.94,0,0,0-2.15.16c-.37-1.24-.88-2.73-1.53-4.49s-1.36-3.58-2.14-5.5-1.58-3.85-2.39-5.82-1.56-3.84-2.27-5.62q-2.58-.07-5.25-.12c-1.78,0-3.56,0-5.34,0s-3.31,0-4.93,0l-4.93.12q-2.59,6.32-4.69,12t-3.16,9.42a28,28,0,0,0-6,0Q315.23,54,321.46,40.05T334,11.58h1.54q1.93,4.7,4.2,10.15t4.61,11q2.34,5.58,4.69,11.08c1.56,3.67,3,7.07,4.41,10.23s2.61,6,3.72,8.45S359.18,66.9,359.88,68.19ZM324.05,43c1.4,0,2.86,0,4.37.08s3,.08,4.37.08,3,0,4.52,0,3-.07,4.53-.12l-9-20.54Z"/><path class="cls-3" d="M366.51,68.19q.24-5,.44-10.19c.14-3.45.2-7,.2-10.51V33.58c0-3.56-.06-7-.2-10.47s-.28-6.92-.44-10.48c.7.11,1.37.21,2,.29a15.79,15.79,0,0,0,1.94.12,15.79,15.79,0,0,0,1.94-.12c.65-.08,1.32-.18,2-.29Q374.19,18,374,23.11c-.14,3.42-.2,6.91-.2,10.47V38c0,.43.16.64.48.64s.59-.24,1.13-.72q2.84-2.43,6-5.5t6.26-6.39q3.17-3.31,6.23-6.76t5.91-6.67c.59.11,1.15.21,1.69.29a11,11,0,0,0,1.62.12,15.79,15.79,0,0,0,1.94-.12c.65-.08,1.3-.18,1.94-.29-1.89,1.62-4,3.54-6.39,5.75s-4.76,4.47-7.15,6.79-4.69,4.59-6.88,6.83-4,4.19-5.46,5.86q6.56,7.37,13.23,15t13.54,15.32a18,18,0,0,0-2.42-.16h-4.65a15.51,15.51,0,0,0-2.23.16q-2.91-3.31-6.43-7.6t-6.87-8.29q-3.36-4-6.07-7.2c-1.8-2.13-3.14-3.62-4-4.49-.43-.43-.75-.64-1-.64s-.4.16-.4.48v7c0,3.56.06,7.06.2,10.51s.28,6.85.44,10.19c-1.24-.11-2.56-.16-4-.16S367.75,68.08,366.51,68.19Z"/><path class="cls-3" d="M414.34,23q-.19-5.18-.44-10.35,3.63.16,7.23.29c2.4.08,4.82.12,7.24.12s4.83,0,7.2-.12,4.77-.18,7.2-.29a11.93,11.93,0,0,0,0,4.86c-1.73-.11-3.31-.22-4.73-.33l-4.53-.32c-1.59-.11-3.33-.2-5.22-.28s-4.15-.13-6.79-.13c-.06,1.73-.12,3.37-.2,4.94s-.13,3.34-.13,5.33,0,4.16,0,6.15.05,3.51.05,4.53q3.56,0,6.38-.08c1.89,0,3.62-.12,5.18-.2s3-.17,4.33-.25,2.57-.17,3.76-.28a13,13,0,0,0-.25,2.51,12.43,12.43,0,0,0,.25,2.42c-1.41-.16-3-.29-4.9-.4s-3.72-.18-5.58-.2l-5.25-.08c-1.65,0-2.95,0-3.92,0,0,.48,0,1-.05,1.57s0,1.28,0,2.15v8c0,3.07,0,5.61,0,7.6s.07,3.51.13,4.53H427c2.05,0,4.05,0,6-.12s3.83-.19,5.58-.32a37.19,37.19,0,0,0,4.57-.61,5.94,5.94,0,0,0-.2,1.25c0,.46,0,.88,0,1.26a7.58,7.58,0,0,0,.24,2.1c-2.42-.11-4.84-.16-7.24-.16H421.26q-3.64,0-7.36.16.24-5.18.44-10.31c.14-3.42.2-6.91.2-10.47V33.5C414.54,29.94,414.48,26.44,414.34,23Z"/><path class="cls-3" d="M453,33.58q0-5.34-.21-10.47t-.44-10.48c1.56.11,3.1.21,4.61.29s3,.12,4.61.12,3.1-.07,4.61-.2,3-.21,4.61-.21a31.47,31.47,0,0,1,6.47.65,15.74,15.74,0,0,1,5.37,2.14,10.82,10.82,0,0,1,3.64,3.93,12.41,12.41,0,0,1,1.34,6.06,12.34,12.34,0,0,1-1.74,6.67,16.22,16.22,0,0,1-4.25,4.61,20.94,20.94,0,0,1-5.37,2.83A27.15,27.15,0,0,1,471,40.86q1,1.22,2.67,3.39c1.13,1.46,2.4,3.06,3.8,4.82s2.86,3.58,4.37,5.49,3,3.75,4.36,5.5,2.73,3.36,4,4.82,2.23,2.56,3,3.31a18,18,0,0,0-2.43-.16H486a16.13,16.13,0,0,0-2.34.16l-3.68-5.09q-2.48-3.41-5.46-7.28t-6.11-7.73q-3.11-3.84-5.7-6.51h-3.07v5.91c0,3.56.06,7.06.2,10.51s.28,6.85.44,10.19c-1.24-.11-2.56-.16-4-.16s-2.72,0-4,.16q.24-5,.44-10.19T453,47.49Zm6.63,4.61a16.3,16.3,0,0,0,2.46.32c.89.06,1.88.08,3,.08a25.91,25.91,0,0,0,5.21-.56,15.28,15.28,0,0,0,5-2A11.91,11.91,0,0,0,479,32.24a11.19,11.19,0,0,0,1.49-6A10.5,10.5,0,0,0,479.28,21a9.36,9.36,0,0,0-3-3.27,11.6,11.6,0,0,0-4.05-1.66,21.09,21.09,0,0,0-4.28-.44c-1.89,0-3.45,0-4.69.12s-2.3.17-3.16.28c-.11,3-.21,5.9-.32,8.81s-.16,5.83-.16,8.74Z"/><line class="cls-4" x1="1.03" y1="79.45" x2="492.26" y2="79.45"/><path class="cls-5" d="M11.41,115.49H.85v-2.43H13.26a41.43,41.43,0,0,0,3.5-6.52l2.07,1.32a42.46,42.46,0,0,1-2.68,5.2h22.5v2.43H31.23a24.47,24.47,0,0,1-7.79,12.74l14.47,5.36-1.44,2.06L21.18,130q-7.14,4.66-19.5,4.95L1,132.43Q9.83,132,13.1,131a27.72,27.72,0,0,0,5-2.18l-12-4.54-.66-2.47A86,86,0,0,0,11.41,115.49Zm7.25-14.14V97.23h2.43v4.12H38.53c.33,0,.48.3.45.82a25.74,25.74,0,0,1-2,7.67q-1.11-.5-2.22-.9.7-2.14,1.36-4.79c0-.24-.06-.37-.33-.37H4.52a.22.22,0,0,0-.25.25v5.69H1.84V101.8q0-.45.45-.45ZM9.1,122.91l11.54,4.29a22,22,0,0,0,8-11.71H14.54a51.56,51.56,0,0,1-5.48,6.06c-.33.3-.49.58-.46.83A.75.75,0,0,0,9.1,122.91Z"/><path class="cls-5" d="M70.1,126.46a113.7,113.7,0,0,0,12.16-2.56l.66,2.35a79.1,79.1,0,0,1-12.82,2.64V131a2.6,2.6,0,0,0,.17,1.15,1.65,1.65,0,0,0,1.36.46h8.49a2.89,2.89,0,0,0,1.07-.17.85.85,0,0,0,.54-.49,10.83,10.83,0,0,0,.57-3.3l2.44.49c-.2,2.73-.5,4.33-.91,4.83A3.73,3.73,0,0,1,80.9,135H70.55a2.82,2.82,0,0,1-1.69-.49,3.42,3.42,0,0,1-1.19-3.18v-9.15H56.58v3.09h8.49v2.43H56.58v4.37l8-1,.29,2.39-13.94,1.69-.45-2.39,3.67-.41V122.17H50.77a35.14,35.14,0,0,1-3.18,12.2l-2.35-.91a30.67,30.67,0,0,0,2.68-8,55.87,55.87,0,0,0,.62-8.58v-7.09a.58.58,0,0,1,.66-.66h15v-2.55h2.43v2.55h17v2.27H72.41v3.17h10c.46,0,.7.22.7.66v6.19c0,.47-.25.7-.74.7H70.1ZM46.56,97.8H63.92v2.27H46.56Zm7.09,6.39H49.86a.33.33,0,0,0-.37.38v3.17H47.06V103a.65.65,0,0,1,.74-.74H61.9c.52,0,.78.24.78.74v4.74H60.25v-3.17a.34.34,0,0,0-.37-.38h-3.8v3.47H53.65Zm5.44,16v-3.67H51v1.12c0,.85,0,1.7-.08,2.55Zm0-5.61v-3.17H51.26a.26.26,0,0,0-.29.29v2.88Zm10.89,0v-3.17H61.53v3.17Zm0,5.61v-3.67H61.53v3.67ZM66.68,97.8h18v2.27h-18Zm8.24,6.39H70.8a.33.33,0,0,0-.37.38v3H68V103a.65.65,0,0,1,.74-.74H83c.53,0,.79.24.79.74v4.58H81.36v-3a.34.34,0,0,0-.38-.38H77.36v3.47H74.92Zm-2.51,12.37v3.67h7.87a.37.37,0,0,0,.42-.41v-2.89c0-.24-.14-.37-.42-.37Z"/><path class="cls-5" d="M110.08,121.26h-9.77c-.11,0-.16.06-.16.17V134H97.71V120.93q-2.43,1.53-5.07,2.89l-1.4-2a42.72,42.72,0,0,0,13-9.44H91.61v-2.44h14.72q1.48-2,3.38-4.94l2,1.32q-1.32,2-2.47,3.62h20.32v2.44H107.36a.09.09,0,0,0,0,.08,45,45,0,0,1-6.6,6.39h9.36v-4.45h2.43v4.45h13.07c.41,0,.62.22.62.58V130.7a2.59,2.59,0,0,1-1.15,2.27c-1.54,1.1-4.46,1.22-8.74.37v-2.72c3.68.82,6,.91,6.8.25a1.33,1.33,0,0,0,.66-1.12v-8.32a.2.2,0,0,0-.21-.17h-11V135h-2.43Zm2.27-18.1a55.81,55.81,0,0,1-18.22,3.38l-.58-2.43a62.85,62.85,0,0,0,13.93-1.89,4.51,4.51,0,0,1,.91-.21,95.78,95.78,0,0,0-11.25-2.47l.57-2.39a102.13,102.13,0,0,1,15.13,3.46,77.37,77.37,0,0,0,9.32-4.25l1.11,2.19q-3.7,1.77-7,3.13,5,1.6,10.47,3.71l-.7,2.39Q118.57,104.93,112.35,103.16Z"/><path class="cls-5" d="M140.13,115.82a1.07,1.07,0,0,1-1.16-1.2V102.79h-1.65v-2.43h7.92V97.23h2.43v3.13H155v2.43H141.4v10.14c0,.31.14.46.42.46h12.9v2.43Zm14.51,15.54v-3.5H140.46v-2.43h14.18v-3.84H138.31v-2.43H173v2.43H157.07v3.84H171v2.43H157.07v3.5H174.3v2.43H137.49v-2.43Zm16.82-19.83H159.91a26.58,26.58,0,0,1-1.52,5.61l-2.56-.7a28.25,28.25,0,0,0,1.94-8.78v-9a.65.65,0,0,1,.74-.74h14.6c.52,0,.78.24.78.74v15.5a3.1,3.1,0,0,1-.83,2.27c-.68.55-2.3.64-4.86.29v-2.81a12,12,0,0,0,2.31.74.71.71,0,0,0,.58-.12,1.45,1.45,0,0,0,.37-1.11Zm0-2.43v-3.17H160.2v3s0,.08,0,.16Zm0-5.61v-2.88a.31.31,0,0,0-.33-.29h-10.6q-.33,0-.33.33v2.84Z"/><path class="cls-5" d="M199.93,131V102.46H183.86V100h34.83v2.43H202.53V131h17.81v2.43h-38V131Z"/><path class="cls-5" d="M231.88,123V108.07h-4v-2.43h4V97.39h2.43v8.25h4.37v2.43h-4.37v13.52a36.8,36.8,0,0,0,3.46-2.18l1.36,2a60.08,60.08,0,0,1-10.76,6l-1.28-2.07Q229.24,124.36,231.88,123Zm24.81-1h-4.37q-.57,1.11-1,2-3.59,6.32-14.34,10.39l-1.36-2.19c.71-.3,1.37-.55,2-.74q9.18-3.75,12-9.44h-4.16q-2.43,3.18-8.49,6.43l-1.61-2a12.64,12.64,0,0,1,1.2-.66q7.38-4,9.27-9.31h-7.21v-2.27h27.74v2.27h-18a31.81,31.81,0,0,1-1.2,3.09h17.15a4.79,4.79,0,0,1,.5.08.51.51,0,0,1,.29.37c0,.06.05.14.08.25Q265.14,131,264,132.8a4.4,4.4,0,0,1-2.22,1.9c-1.52.55-3.71.41-6.6-.41v-2.85c2.53.86,4.26,1.14,5.19.87a3.69,3.69,0,0,0,1.53-1.28,5.45,5.45,0,0,0,.78-3.21q.26-5.32,0-5.73a.36.36,0,0,0-.29-.17h-3.25a3.66,3.66,0,0,0-.21.87q-1.86,6.92-11.17,12.61l-1.73-1.85a18.13,18.13,0,0,1,1.61-1Q255.08,127.73,256.69,121.92Zm6.27-10.8H242.1c-.22,0-.33-.12-.33-.37V98.63q0-.33.33-.33H263c.25,0,.37.14.37.33v12.12A.32.32,0,0,1,263,111.12Zm-18.76-7.54h16.7v-2.93c0-.08-.1-.11-.21-.08h-16.4c-.06,0-.09.05-.09.08Zm16.7,2.26H244.2v2.89q0,.12.09.12h16.4c.14,0,.21-.09.21-.2Z"/><path class="cls-5" d="M277.63,125.55l2.27,1a27.07,27.07,0,0,1-5.12,8.45l-1.69-1.73A21.93,21.93,0,0,0,277.63,125.55Zm19.87-24.69-.54-.54a27.08,27.08,0,0,0,3.55-3.92L302.36,98a25.45,25.45,0,0,1-2.43,2.85h11.34v2.43H273.63v-2.43h11.09A21.51,21.51,0,0,0,282,98.34l1.65-1.77a21.24,21.24,0,0,1,3.5,3.34l-1,1ZM289.58,121l-14.14,1.65-.7-2.39,3.22-.33,3.91-4.74a32.75,32.75,0,0,0-6.55-4.49l1-2.19a8.74,8.74,0,0,1,2.1,1.2,62.66,62.66,0,0,0,3.63-5.44l1.94,1.48a47,47,0,0,1-3.71,5.28c.88.6,1.87,1.36,3,2.26,1.53-2.11,3-4.3,4.45-6.55l2,1.4a100.08,100.08,0,0,1-8.29,11.42l7.17-.74a29.11,29.11,0,0,0-1.56-2.85l2.18-1.11a36.5,36.5,0,0,1,3.42,7.17l-2.26,1C290.13,122.25,289.86,121.58,289.58,121Zm-5.73,3.1h2.44v6.71a1.31,1.31,0,0,0,.41,1,1.56,1.56,0,0,0,.95.42H300a1.2,1.2,0,0,0,.74-.29c.17-.14.38-1.44.62-3.92l2.39.5c-.35,3.18-.67,4.9-.94,5.15a2.16,2.16,0,0,1-1.74,1H286.29a2.82,2.82,0,0,1-1.74-.87,2.32,2.32,0,0,1-.7-1.6Zm8,1.31,2.19-1a34.66,34.66,0,0,1,2.35,4.9l-2.27.83A34.42,34.42,0,0,0,291.89,125.38Zm16-4.86-13.48,1.24-.7-2.39,2.26-.17q1.65-2,3.3-4a31.89,31.89,0,0,0-6.51-4.74l1.11-2.14a7.5,7.5,0,0,1,2,1.19,53.55,53.55,0,0,0,3.63-5.56l2,1.4a54.79,54.79,0,0,1-3.84,5.52c.88.69,1.9,1.5,3,2.44q2.4-3.3,4.66-6.89l2,1.32a91.92,91.92,0,0,1-8,11.21l7.59-.61a30.08,30.08,0,0,0-1.61-3.1l2.23-1.07a38.65,38.65,0,0,1,3.67,8.37l-2.27.91C308.61,122.35,308.24,121.37,307.89,120.52Zm-3.67,5.15,2.06-1.36a45.69,45.69,0,0,1,5,8.45l-2.14,1.2A49.83,49.83,0,0,0,304.22,125.67Z"/><path class="cls-5" d="M327,119l-1.65-3.83h-6.85v-2.43h17.81v-3.34H321.65V107h14.67v-3.18H319.67v-2.43h9.89A26.19,26.19,0,0,0,327,97.89l2-1.45a31.75,31.75,0,0,1,3.46,4.91h10.84a36.66,36.66,0,0,0,2.8-4.82l2.15,1.19a32.36,32.36,0,0,1-2,3.63h8.9v2.43h-16.4V107h13.93v2.43H338.76v3.34h17.56v2.43h-6.06L348.32,119h8v2.44H318.51V119Zm-2.11,13v3.18h-2.43V124.44c0-.55.3-.83.83-.83h28.61c.57,0,.86.3.86.83V135.2h-2.43V132Zm0-2.39h25.44v-3.26c0-.22-.12-.33-.37-.33H325.23q-.36,0-.33.33ZM329.69,119h6.63v-3.83H328Zm9.07,0h6.84l1.9-3.83h-8.74Z"/><path class="cls-5" d="M388.84,119.12H376q-6,6.51-11.47,8.74l-1.44-2.06a29.48,29.48,0,0,0,9.69-6.68h-8.41v-2.43h7.42V102.46h-7.58V100h7.58v-3h2.43v3h17.19v-2.8h2.44V100h7.33v2.43h-7.33v14.23h7.33v2.43h-8.9a32.9,32.9,0,0,0,10.39,6.22l-1.53,2A37.61,37.61,0,0,1,388.84,119.12Zm-7.3,12.57v-4.82h-8.91v-2.43h8.91v-4H384v4h8.82v2.43H384v4.82h16.9v2.43H365.05v-2.43Zm-7.3-25.89h17.19v-3.34H374.24Zm0,5.28h17.19v-2.85H374.24Zm0,5.61h17.19v-3.18H374.24Z"/><path class="cls-5" d="M428.12,99.78a47.4,47.4,0,0,1-18,11.13l-1.52-2.51A55.34,55.34,0,0,0,427,96.77h2.11q9.77,8.13,19.08,11.26l-1.52,2.55A46.38,46.38,0,0,1,437,106,61.21,61.21,0,0,1,428.12,99.78ZM434.71,132a88,88,0,0,0,6.23-11.17l2.1,1.2q-3.75,7.08-5.53,10h8.91v2.43H410.1V132h16.82V119.45H409.28V117h17.64v-6H415.87v-2.43h24.78V111h-11.3v6h17.73v2.43H429.35V132ZM413.48,122l2.1-1.23a49.53,49.53,0,0,1,5.16,9.44l-2.19,1.11A54.24,54.24,0,0,0,413.48,122Z"/><path class="cls-5" d="M481.41,103v2.1H465.87v-1.77c-.41.16-.78.3-1.11.41a41.4,41.4,0,0,1-9.28,2.39l-.86-2.31a48.21,48.21,0,0,0,18.13-7h1.78a52.8,52.8,0,0,0,18.47,6.8l-.87,2.31a39.36,39.36,0,0,1-9.48-2.56A9,9,0,0,0,481.41,103ZM489,118H458c-.22,0-.33-.12-.33-.37v-9.81q0-.33.33-.33H489c.25,0,.37.14.37.33v9.81A.32.32,0,0,1,489,118ZM462.2,132v3.18h-2.43V120.81a.75.75,0,0,1,.82-.83h25.64c.58,0,.87.31.87.83V135.2h-2.43V132Zm7.05-17.4-1.24.91h4.62v-5.65H460.14c-.06,0-.08.06-.08.09v5.44c0,.08.05.12.08.12h6.76a27.87,27.87,0,0,0-3-3.87l1.9-1.57A24.69,24.69,0,0,1,469.25,114.62Zm-7.05,10h22.47v-1.85c0-.22-.13-.33-.37-.33H462.53q-.37,0-.33.33ZM484.67,127H462.2v2.6h22.47Zm-4.08-24.36a53,53,0,0,1-6.93-3.34,54.87,54.87,0,0,1-6.22,3.34Zm3,9.23a23.4,23.4,0,0,1-3.42,3.63h6.64c.14,0,.21-.09.21-.2V110c0-.09-.1-.11-.21-.09H475.06v5.65h4l-1.2-1.23a34,34,0,0,0,3.92-4Z"/></svg>