<svg id="圖層_1" data-name="圖層 1" xmlns="http://www.w3.org/2000/svg" viewBox="0 0 792 60"><defs><style>.cls-1{fill:#e00045;}.cls-2{fill:#fff;}.cls-3{fill:#002c63;}.cls-4{fill:none;stroke:#242424;stroke-width:1.07px;}.cls-5{fill:#242424;}</style></defs><title>hopemaker</title><path class="cls-1" d="M73.52,20.57a78.09,78.09,0,0,0-2.13-7.74A20.24,20.24,0,0,0,60.64,1.39c-6.1-2.68-10.76-.75-13.5,3.35s-4.79,12-2.26,22.89,6.37,16.3,8,18.49,6.65,8.43,9.73,11.17A1.17,1.17,0,0,0,62,58.38c.08.76.9.76,1.24.76a7.88,7.88,0,0,0,1.37-.34s.69.54,1.37-.48a74.8,74.8,0,0,0,13.43-7.2C87.56,45.85,94.68,40.64,100,32.83s5.27-14.18,3.35-18.49-8.7-7.95-15.27-6.17C81.8,9.87,77.35,13.51,73.52,20.57Z"/><path class="cls-2" d="M98,9.72a12,12,0,0,0-4.82-1c-5.18,0-10,3.29-13.37,7.16a62.67,62.67,0,0,0-5,6.84c-.73,1.13-1.4,2.29-2.05,3.45l0,.05h0c0,.08-.27.56-.54,1a5.18,5.18,0,0,1-.44.69,2.31,2.31,0,0,1-.19.21l0,0a.2.2,0,0,1,0-.09,61,61,0,0,0-4.56-15.41c-2.18-4.9-7.32-10.3-13.09-10.31A9.1,9.1,0,0,0,51,2.82c-6.08,2.06-7.53,10.91-7.54,16.82,0,.78,0,1.51.08,2.17a44.66,44.66,0,0,0,3.37,14c2.16,5.2,5.43,9.13,9,13.33,3,3.49,6.19,7,10.12,9.54a.37.37,0,0,0,.34.33h.24c.43.26.86.52,1.32.75a.34.34,0,0,0,.17.05.38.38,0,0,0,.36-.4.39.39,0,0,0-.22-.35l-.08,0C75.9,58.58,82.82,51,87.48,45.81c5.34-6,10.56-12.48,13.61-20a20.71,20.71,0,0,0,1.49-7.52C102.58,14.74,101.43,11.21,98,9.72ZM67.42,58.3h-.6a40.85,40.85,0,0,1-8.52-7.58c-3-3.27-6.19-6.72-8.39-10.52A41,41,0,0,1,44.3,19.62a38.68,38.68,0,0,1,.26-4.55,17.08,17.08,0,0,1,4.6-10.15,6,6,0,0,1,4.41-1.8,13.15,13.15,0,0,1,7.56,3.07c6.6,5.17,8.6,15.55,9.83,23.42a.39.39,0,0,0,.39.33.37.37,0,0,0,.31-.18C76,22,80.75,12.55,89.79,10A12.28,12.28,0,0,1,93.2,9.5a8.22,8.22,0,0,1,7.7,4.5,9.71,9.71,0,0,1,1,4.42,21.35,21.35,0,0,1-1.51,7.15c-2.29,6.22-6.7,11.64-10.87,16.74C84.52,48.41,76,58.32,67.42,58.3Zm33.13-32.66ZM97.9,9.9Z"/><path class="cls-3" d="M32.45,17.74q-.15-4-.34-8.09l1.56.21a10.8,10.8,0,0,0,1.5.1,10.8,10.8,0,0,0,1.5-.1l1.56-.21c-.12,2.74-.24,5.44-.34,8.09s-.16,5.34-.16,8.09V36.58c0,2.75.06,5.46.16,8.12s.22,5.29.34,7.88c-.95-.09-2-.13-3.06-.13s-2.1,0-3.06.13c.13-2.59.24-5.21.34-7.88s.16-5.37.16-8.12V31l-6.53-.09q-3.15,0-6.53,0t-6.53,0L6.49,31v5.63q0,4.13.16,8.12c.1,2.67.21,5.29.34,7.88-1-.09-2-.13-3.06-.13s-2.11,0-3.07.13C1,50,1.1,47.37,1.21,44.7s.15-5.37.15-8.12V25.83q0-4.12-.15-8.09C1.1,15.09,1,12.39.86,9.65l1.57.21a10.8,10.8,0,0,0,1.5.1,10.8,10.8,0,0,0,1.5-.1L7,9.65q-.2,4.11-.34,8.09t-.16,8.09V28l6.53.12c2.1,0,4.28.07,6.53.07s4.43,0,6.53-.07L32.61,28V25.83Q32.61,21.71,32.45,17.74Z"/><path class="cls-3" d="M110.41,25.83q0-4.12-.15-8.09c-.11-2.65-.22-5.35-.35-8.09q1.5.12,3,.21c1,.07,2,.1,3,.1.5,0,1.1,0,1.81-.06s1.42-.08,2.15-.1,1.43-.05,2.1-.09,1.23-.06,1.69-.06q.93,0,2.31.06a18.42,18.42,0,0,1,2.9.37,16.28,16.28,0,0,1,3,.94,8.69,8.69,0,0,1,2.72,1.81,8.91,8.91,0,0,1,2,3,11.41,11.41,0,0,1,.75,4.41,11.42,11.42,0,0,1-1.78,6.68,13,13,0,0,1-4.38,4,17.12,17.12,0,0,1-5.5,1.94,31,31,0,0,1-5.15.5c-1,0-1.83,0-2.62,0s-1.61-.07-2.44-.16v3.44q0,4.13.15,8.12c.11,2.67.22,5.29.35,7.88-1-.09-2-.13-3.06-.13s-2.11,0-3.07.13c.13-2.59.24-5.21.35-7.88s.15-5.37.15-8.12Zm5.13,4.69A19.43,19.43,0,0,0,120,31a19.26,19.26,0,0,0,4-.44A10.57,10.57,0,0,0,127.75,29a8.77,8.77,0,0,0,2.82-3.19,10.93,10.93,0,0,0,1.09-5.22,10.82,10.82,0,0,0-.75-4.37,6.21,6.21,0,0,0-2.09-2.63,8.26,8.26,0,0,0-3.28-1.28,25.22,25.22,0,0,0-4.38-.34h-5.62Z"/><path class="cls-3" d="M143.44,17.64c-.1-2.66-.22-5.33-.34-8l5.59.21c1.85.07,3.72.1,5.59.1s3.73,0,5.56-.1l5.57-.21a9.3,9.3,0,0,0,0,3.74c-1.34-.08-2.56-.16-3.66-.25l-3.5-.25c-1.23-.08-2.57-.15-4-.21s-3.21-.1-5.25-.1c0,1.34-.09,2.61-.16,3.81s-.09,2.59-.09,4.13,0,3.21,0,4.75,0,2.71,0,3.5c1.84,0,3.48,0,4.94-.06s2.79-.1,4-.16l3.34-.19c1-.06,2-.13,2.91-.22a9.53,9.53,0,0,0-.19,1.94A9.06,9.06,0,0,0,164,32c-1.08-.12-2.34-.22-3.78-.31s-2.88-.13-4.31-.15l-4.07-.07-3,0c0,.38,0,.78,0,1.22s0,1,0,1.66v6.18q0,3.57,0,5.88c0,1.54.05,2.71.1,3.5h4.37c1.58,0,3.14,0,4.66-.1s3-.14,4.31-.25a29.14,29.14,0,0,0,3.53-.46,4,4,0,0,0-.16,1c0,.36,0,.68,0,1a5.64,5.64,0,0,0,.19,1.63c-1.88-.09-3.74-.13-5.59-.13H148.78c-1.87,0-3.77,0-5.68.13.12-2.67.24-5.32.34-8s.16-5.34.16-8.09V25.77C143.6,23,143.54,20.31,143.44,17.64Z"/><path class="cls-3" d="M201.81,26.08q4.41,8.37,9.22,17.19c.41-.79,1-1.93,1.81-3.41s1.71-3.18,2.75-5.09,2.15-4,3.34-6.22l3.63-6.78q1.83-3.43,3.65-6.75l3.38-6.19h.81q.69,6,1.28,11.6t1.22,11q.61,5.41,1.25,10.69t1.37,10.47a8.25,8.25,0,0,0-1.46-.13h-2.94a8.27,8.27,0,0,0-1.47.13q-.69-8.31-1.38-16.13t-1.68-15.93h-.13Q222.16,28.4,218,36.17t-7.9,16.28h-.56q-3.75-7.87-7.85-15.78t-8.21-16.15h-.13q-.43,3.87-1,8.4c-.35,3-.68,6-1,8.94s-.54,5.71-.75,8.31-.31,4.74-.31,6.41a16.54,16.54,0,0,0-2.19-.13,16.28,16.28,0,0,0-2.18.13q.81-5.07,1.68-10.69t1.69-11.31q.81-5.68,1.5-11.22c.46-3.68.85-7.19,1.19-10.53h1.06Q197.41,17.71,201.81,26.08Z"/><path class="cls-3" d="M277.58,52.58a10.87,10.87,0,0,0-1.66-.13h-3.31a10.75,10.75,0,0,0-1.65.13c-.3-1-.69-2.12-1.19-3.47s-1-2.77-1.66-4.25-1.22-3-1.84-4.5-1.21-3-1.75-4.34c-1.33,0-2.69-.08-4.06-.1s-2.75,0-4.13,0-2.56,0-3.81,0-2.52.06-3.81.1c-1.34,3.25-2.54,6.34-3.63,9.28s-1.89,5.36-2.43,7.28a20.68,20.68,0,0,0-4.63,0q5.07-10.94,9.88-21.75t9.68-22h1.19L262,16.68q1.75,4.21,3.56,8.53t3.63,8.56c1.2,2.83,2.34,5.47,3.4,7.9s2,4.62,2.88,6.53S277,51.58,277.58,52.58ZM249.9,33.14c1.08,0,2.2,0,3.37.06s2.29.07,3.37.07,2.34,0,3.5,0,2.34-.06,3.5-.1l-6.93-15.87Z"/><path class="cls-3" d="M282.7,52.58c.13-2.59.24-5.21.35-7.88s.15-5.37.15-8.12V25.83q0-4.12-.15-8.09c-.11-2.65-.22-5.35-.35-8.09l1.57.21a10.8,10.8,0,0,0,1.5.1,10.8,10.8,0,0,0,1.5-.1l1.56-.21c-.13,2.74-.24,5.44-.35,8.09s-.15,5.34-.15,8.09v3.44c0,.33.12.5.37.5s.46-.19.88-.56q2.19-1.87,4.59-4.25c1.6-1.59,3.22-3.23,4.84-4.94s3.23-3.45,4.82-5.22,3.1-3.49,4.56-5.15l1.31.21A7.53,7.53,0,0,0,311,10a10.8,10.8,0,0,0,1.5-.1q.75-.09,1.5-.21c-1.46,1.25-3.1,2.72-4.94,4.43s-3.67,3.46-5.53,5.25-3.62,3.55-5.31,5.28-3.09,3.24-4.22,4.53q5.07,5.69,10.22,11.6t10.47,11.84a13.2,13.2,0,0,0-1.88-.13h-3.59a11.25,11.25,0,0,0-1.72.13c-1.5-1.71-3.15-3.67-5-5.88s-3.58-4.34-5.31-6.4-3.29-3.92-4.69-5.56-2.42-2.81-3.09-3.47c-.33-.34-.58-.5-.75-.5s-.31.12-.31.37v5.44q0,4.13.15,8.12c.11,2.67.22,5.29.35,7.88-1-.09-2-.13-3.06-.13S283.66,52.49,282.7,52.58Z"/><path class="cls-3" d="M319.67,17.64c-.11-2.66-.22-5.33-.35-8l5.6.21c1.85.07,3.71.1,5.59.1s3.73,0,5.56-.1l5.56-.21a9.89,9.89,0,0,0-.19,1.87,9.89,9.89,0,0,0,.19,1.87c-1.33-.08-2.55-.16-3.65-.25l-3.5-.25c-1.23-.08-2.58-.15-4-.21s-3.21-.1-5.25-.1c0,1.34-.1,2.61-.16,3.81S325,19,325,20.52s0,3.21,0,4.75,0,2.71,0,3.5c1.83,0,3.48,0,4.94-.06s2.79-.1,4-.16l3.34-.19c1-.06,2-.13,2.91-.22a9.53,9.53,0,0,0-.19,1.94A9.06,9.06,0,0,0,340.2,32c-1.09-.12-2.35-.22-3.79-.31s-2.87-.13-4.31-.15L328,31.42l-3,0c0,.38,0,.78,0,1.22s0,1,0,1.66v6.18q0,3.57,0,5.88c0,1.54,0,2.71.09,3.5h4.38c1.58,0,3.13,0,4.65-.1s3-.14,4.31-.25a28.61,28.61,0,0,0,3.53-.46,4.6,4.6,0,0,0-.15,1c0,.36,0,.68,0,1a6.07,6.07,0,0,0,.18,1.63c-1.87-.09-3.73-.13-5.59-.13H325c-1.87,0-3.77,0-5.69.13.13-2.67.24-5.32.35-8s.15-5.34.15-8.09V25.77Q319.82,21.65,319.67,17.64Z"/><path class="cls-3" d="M349.51,25.83c0-2.75-.06-5.45-.16-8.09s-.22-5.35-.34-8.09l3.56.21c1.17.07,2.35.1,3.56.1s2.4-.05,3.56-.16,2.36-.15,3.57-.15a23.82,23.82,0,0,1,5,.5,12.11,12.11,0,0,1,4.15,1.65,8.26,8.26,0,0,1,2.81,3,9.6,9.6,0,0,1,1,4.69,9.48,9.48,0,0,1-1.34,5.15,12.64,12.64,0,0,1-3.28,3.57,16.37,16.37,0,0,1-4.16,2.18,19.75,19.75,0,0,1-4,1c.5.63,1.19,1.5,2.07,2.63s1.85,2.36,2.93,3.72,2.21,2.77,3.38,4.25,2.29,2.89,3.37,4.25,2.11,2.59,3.06,3.72,1.73,2,2.32,2.56a13.2,13.2,0,0,0-1.88-.13H375a11.86,11.86,0,0,0-1.81.13q-.93-1.32-2.84-3.94T366.13,43q-2.31-3-4.72-6T357,32h-2.38v4.56q0,4.13.16,8.12c.1,2.67.22,5.29.34,7.88-1-.09-2-.13-3.06-.13s-2.1,0-3.06.13c.12-2.59.24-5.21.34-7.88s.16-5.37.16-8.12Zm5.12,3.56a12,12,0,0,0,1.91.25c.69,0,1.44.07,2.28.07a19.86,19.86,0,0,0,4-.44,11.62,11.62,0,0,0,3.84-1.53,9.09,9.09,0,0,0,2.91-2.94,8.63,8.63,0,0,0,1.16-4.66,8.14,8.14,0,0,0-.91-4,7.41,7.41,0,0,0-2.34-2.53,9,9,0,0,0-3.13-1.28,16.46,16.46,0,0,0-3.31-.34q-2.19,0-3.63.09c-1,.06-1.77.14-2.43.22q-.13,3.44-.25,6.81t-.13,6.75Z"/><line class="cls-4" x1="395.88" y1="7.96" x2="395.88" y2="52.12"/><path class="cls-5" d="M419,30.41h-8.16V28.53h9.59a33,33,0,0,0,2.71-5l1.59,1a31.71,31.71,0,0,1-2.07,4H440v1.88h-5.73a19.05,19.05,0,0,1-6,9.85l11.18,4.14L438.35,46l-11.81-4.4q-5.52,3.6-15.07,3.83l-.54-1.91a43.41,43.41,0,0,0,9.36-1.12,21.93,21.93,0,0,0,3.89-1.69l-9.3-3.5-.51-1.91A65.49,65.49,0,0,0,419,30.41Zm5.6-10.92V16.3h1.88v3.19H440c.25,0,.37.23.35.63a20.06,20.06,0,0,1-1.56,5.93c-.58-.26-1.15-.49-1.72-.7.36-1.11.71-2.34,1.05-3.7,0-.19-.05-.28-.26-.28H413.67c-.13,0-.2.06-.2.19V26H411.6V19.84c0-.24.13-.35.34-.35ZM417.2,36.15l8.92,3.31a16.84,16.84,0,0,0,6.21-9H421.41a38.81,38.81,0,0,1-4.24,4.69.79.79,0,0,0-.35.63A.59.59,0,0,0,417.2,36.15Z"/><path class="cls-5" d="M464.34,38.89a89.05,89.05,0,0,0,9.4-2l.51,1.82a60.84,60.84,0,0,1-9.91,2v1.59a2.14,2.14,0,0,0,.13.89,1.31,1.31,0,0,0,1,.35h6.56a2.16,2.16,0,0,0,.83-.13.68.68,0,0,0,.42-.38,8.13,8.13,0,0,0,.44-2.55l1.88.39c-.15,2.1-.38,3.34-.7,3.72a2.87,2.87,0,0,1-2.26.83h-8a2.13,2.13,0,0,1-1.3-.38,2.63,2.63,0,0,1-.93-2.45V35.57H453.9V38h6.56v1.88H453.9v3.38l6.17-.77.23,1.85-10.77,1.31-.35-1.85,2.84-.32V35.57H449.4A26.79,26.79,0,0,1,447,45l-1.82-.7a23.71,23.71,0,0,0,2.07-6.15,42.79,42.79,0,0,0,.48-6.62V26.05a.45.45,0,0,1,.51-.51h11.6v-2h1.88v2h13.12v1.75h-8.66v2.45h7.74q.54,0,.54.51V35q0,.54-.57.54h-9.5ZM446.15,16.75h13.41V18.5H446.15Zm5.48,4.93H448.7c-.19,0-.28.1-.28.29v2.45h-1.88V20.76a.5.5,0,0,1,.57-.57H458c.41,0,.61.19.61.57v3.66h-1.88V22a.26.26,0,0,0-.29-.29h-2.93v2.68h-1.88Zm4.21,12.4V31.24h-6.28v.86l-.06,2Zm0-4.34V27.29h-6.06a.2.2,0,0,0-.22.22v2.23Zm8.41,0V27.29h-6.53v2.45Zm0,4.34V31.24h-6.53v2.84ZM461.7,16.75h13.92V18.5H461.7Zm6.37,4.93h-3.18a.25.25,0,0,0-.29.29V24.3h-1.88V20.76a.5.5,0,0,1,.57-.57h11c.41,0,.61.19.61.57V24.3H473V22a.26.26,0,0,0-.29-.29H470v2.68h-1.88Zm-1.94,9.56v2.84h6.08a.29.29,0,0,0,.32-.32V31.53c0-.19-.11-.29-.32-.29Z"/><path class="cls-5" d="M495.24,34.87h-7.55a.12.12,0,0,0-.13.13v9.72h-1.88V34.62c-1.25.78-2.56,1.53-3.92,2.23l-1.08-1.56a33.09,33.09,0,0,0,10-7.3H481V26.11h11.37q1.14-1.53,2.61-3.82l1.56,1c-.68,1-1.32,2-1.91,2.8h15.71V28H493.14a.08.08,0,0,0,0,.07A34.92,34.92,0,0,1,488,33h7.23V29.55h1.88V33h10.1c.31,0,.47.17.47.45v8.73a2,2,0,0,1-.89,1.75c-1.19.85-3.44.94-6.75.29V42.1c2.84.64,4.6.7,5.25.2a1,1,0,0,0,.51-.87V35a.15.15,0,0,0-.16-.13h-8.53V45.51h-1.88Zm1.75-14a43.26,43.26,0,0,1-14.08,2.61l-.45-1.88a49,49,0,0,0,10.77-1.47,3.54,3.54,0,0,1,.7-.15,74.13,74.13,0,0,0-8.7-1.92l.45-1.84a80.3,80.3,0,0,1,11.69,2.67,58.57,58.57,0,0,0,7.2-3.28l.86,1.69q-2.87,1.37-5.38,2.42c2.57.83,5.26,1.78,8.09,2.87l-.54,1.85Q501.8,22.25,497,20.89Z"/><path class="cls-5" d="M518.46,30.67a.83.83,0,0,1-.9-.93V20.6h-1.27V18.72h6.12V16.3h1.88v2.42H530V20.6H519.44v7.84c0,.23.11.35.32.35h10v1.88Zm11.21,12V40h-11V38.09h11v-3H517.05V33.25h26.8v1.88h-12.3v3h10.77V40H531.55v2.71h13.31v1.88H516.42V42.68Zm13-15.33h-8.92a20.34,20.34,0,0,1-1.18,4.34l-2-.54a21.65,21.65,0,0,0,1.5-6.79v-7a.5.5,0,0,1,.57-.57h11.28c.4,0,.61.19.61.57v12a2.44,2.44,0,0,1-.64,1.75c-.53.43-1.78.5-3.76.23V29.17a9.69,9.69,0,0,0,1.78.57.58.58,0,0,0,.45-.09,1.11,1.11,0,0,0,.29-.86Zm0-1.88V23H534v2.33a.17.17,0,0,0,0,.12Zm0-4.33V18.91a.23.23,0,0,0-.26-.22h-8.19c-.17,0-.25.11-.25.25v2.2Z"/><path class="cls-5" d="M564.67,42.42V20.35H552.25V18.47h26.92v1.88H566.68V42.42h13.76V44.3H551.1V42.42Z"/><path class="cls-5" d="M589.36,36.18V24.68H586.3V22.8h3.06V16.43h1.87V22.8h3.38v1.88h-3.38V35.13a28,28,0,0,0,2.68-1.69L595,35a46.28,46.28,0,0,1-8.31,4.65l-1-1.59C586.76,37.53,588,36.9,589.36,36.18Zm19.17-.8h-3.37c-.3.58-.56,1.09-.77,1.53q-2.77,4.88-11.08,8l-1.06-1.69q.84-.34,1.53-.57,7.11-2.9,9.31-7.3h-3.22a20.51,20.51,0,0,1-6.56,5l-1.25-1.53a8.4,8.4,0,0,1,.93-.51q5.7-3.09,7.16-7.2h-5.57V29.36H616v1.75H602.13c-.34,1-.65,1.8-.92,2.39h13.25a3,3,0,0,1,.38.07.36.36,0,0,1,.22.28.69.69,0,0,1,.07.19q-.06,8.39-.93,9.75a3.37,3.37,0,0,1-1.72,1.47c-1.16.42-2.86.32-5.09-.32v-2.2c2,.66,3.29.88,4,.67a2.82,2.82,0,0,0,1.18-1,4.3,4.3,0,0,0,.61-2.48,22.32,22.32,0,0,0,0-4.43.31.31,0,0,0-.23-.13h-2.52a3,3,0,0,0-.15.67q-1.44,5.36-8.64,9.75l-1.34-1.43c.45-.3.86-.56,1.25-.77Q607.29,39.88,608.53,35.38ZM613.38,27H597.26c-.17,0-.26-.1-.26-.29V17.38a.24.24,0,0,1,.26-.25h16.12c.19,0,.28.1.28.25v9.37C613.66,26.94,613.57,27,613.38,27Zm-14.5-5.83h12.9V18.94c0-.06-.07-.08-.16-.06H598.94s-.06,0-.06.06ZM611.78,23h-12.9v2.23q0,.09.06.09h12.68c.11,0,.16-.07.16-.16Z"/><path class="cls-5" d="M624.71,38.19l1.75.73a20.74,20.74,0,0,1-4,6.53l-1.3-1.34A17.12,17.12,0,0,0,624.71,38.19ZM640.06,19.1l-.41-.41a21.12,21.12,0,0,0,2.74-3l1.43,1.25a17.87,17.87,0,0,1-1.88,2.19h8.76V21H621.62V19.1h8.57a17.12,17.12,0,0,0-2.07-1.94l1.27-1.37a16.69,16.69,0,0,1,2.71,2.58l-.76.73ZM634,34.65,623,35.92l-.54-1.84,2.48-.26,3-3.66a25,25,0,0,0-5.06-3.47l.79-1.69a6.93,6.93,0,0,1,1.63.92,49.39,49.39,0,0,0,2.8-4.2l1.5,1.14a34.74,34.74,0,0,1-2.87,4.08c.68.47,1.44,1,2.29,1.75q1.78-2.45,3.45-5.06l1.56,1.08a77.57,77.57,0,0,1-6.41,8.82l5.55-.57a24.22,24.22,0,0,0-1.21-2.2l1.68-.86a28.29,28.29,0,0,1,2.65,5.55l-1.75.76C634.37,35.64,634.16,35.12,634,34.65ZM629.52,37h1.88v5.19a1.07,1.07,0,0,0,.32.77,1.17,1.17,0,0,0,.73.31H642a.91.91,0,0,0,.57-.22,11.23,11.23,0,0,0,.48-3l1.85.38c-.28,2.46-.52,3.79-.74,4a1.63,1.63,0,0,1-1.33.76H631.4a2.14,2.14,0,0,1-1.34-.66,1.81,1.81,0,0,1-.54-1.25Zm6.21,1,1.69-.77a26.91,26.91,0,0,1,1.82,3.79l-1.76.64A25.39,25.39,0,0,0,635.73,38.06Zm12.36-3.76-10.41,1-.55-1.84,1.76-.13,2.55-3.09a24.26,24.26,0,0,0-5-3.66l.86-1.66a6.17,6.17,0,0,1,1.56.92,41.08,41.08,0,0,0,2.81-4.3l1.52,1.09a40.47,40.47,0,0,1-3,4.26c.68.54,1.47,1.16,2.36,1.88,1.23-1.69,2.43-3.47,3.6-5.32l1.56,1a72.46,72.46,0,0,1-6.18,8.67l5.86-.48a22.58,22.58,0,0,0-1.24-2.39l1.72-.83a29.38,29.38,0,0,1,2.83,6.47l-1.75.7C648.65,35.71,648.37,35,648.09,34.3Zm-2.83,4,1.59-1.05a35.12,35.12,0,0,1,3.89,6.53l-1.66.92A38,38,0,0,0,645.26,38.28Z"/><path class="cls-5" d="M662.87,33.12l-1.28-3h-5.28V28.28h13.76V25.7H658.73V23.82h11.34V21.37H657.2V19.49h7.64a21,21,0,0,0-2-2.68l1.53-1.12a24.28,24.28,0,0,1,2.67,3.8h8.38a28.61,28.61,0,0,0,2.17-3.73l1.65.92a24.4,24.4,0,0,1-1.52,2.81h6.88v1.88H672v2.45h10.77V25.7H672v2.58h13.57v1.88h-4.68l-1.5,3h6.18V35H656.31V33.12Zm-1.63,10.07v2.45h-1.88V37.33c0-.43.24-.64.64-.64h22.11c.45,0,.67.23.67.64v8.31H680.9V43.19Zm0-1.85H680.9V38.82c0-.17-.1-.25-.29-.25H661.5c-.19,0-.28.1-.26.25Zm3.7-8.22h5.13v-3h-6.44Zm7,0h5.29l1.46-3H672Z"/><path class="cls-5" d="M710.65,33.22h-9.91q-4.62,5-8.86,6.75l-1.11-1.59a22.71,22.71,0,0,0,7.48-5.16h-6.49V31.34h5.73v-11h-5.86V18.47h5.86v-2.3h1.88v2.3h13.28V16.3h1.88v2.17h5.67v1.88h-5.67v11h5.67v1.88h-6.88a25.69,25.69,0,0,0,8,4.81l-1.18,1.56A29.11,29.11,0,0,1,710.65,33.22ZM705,42.93V39.2h-6.88V37.33H705V34.27h1.88v3.06h6.81V39.2h-6.81v3.73H720v1.88H692.27V42.93Zm-5.64-20h13.28V20.35H699.37Zm0,4.07h13.28V24.81H699.37Zm0,4.34h13.28V28.88H699.37Z"/><path class="cls-5" d="M741,18.28a36.65,36.65,0,0,1-13.89,8.6l-1.18-1.95a42.61,42.61,0,0,0,14.24-9h1.63a47,47,0,0,0,14.75,8.7l-1.18,2a35.86,35.86,0,0,1-7.52-3.57A47.14,47.14,0,0,1,741,18.28Zm5.1,24.91a68.44,68.44,0,0,0,4.81-8.64l1.62.93q-2.89,5.48-4.27,7.71h6.88v1.88H727.08V43.19h13V33.47H726.44V31.59h13.64V27h-8.54V25.09h19.14V27H742v4.62h13.69v1.88H742v9.72Zm-16.41-7.78,1.63-.95a39.42,39.42,0,0,1,4,7.29l-1.69.86A42.38,42.38,0,0,0,729.69,35.41Z"/><path class="cls-5" d="M782.18,20.76v1.62h-12V21c-.31.13-.6.24-.86.32a31.7,31.7,0,0,1-7.16,1.85l-.67-1.78a37.26,37.26,0,0,0,14-5.39h1.37a40.77,40.77,0,0,0,14.28,5.26l-.67,1.78a30.32,30.32,0,0,1-7.33-2A5.69,5.69,0,0,0,782.18,20.76Zm5.9,11.56h-24c-.17,0-.26-.09-.26-.28V24.46c0-.17.11-.26.26-.26h24c.19,0,.28.11.28.26V32A.24.24,0,0,1,788.08,32.32ZM767.34,43.19v2.45h-1.88V34.52a.58.58,0,0,1,.64-.64h19.81c.45,0,.67.24.67.64V45.64H784.7V43.19Zm5.45-13.45-1,.7h3.57V26.08h-9.65s-.07,0-.07.06v4.21c0,.06,0,.09.07.09H771a21.74,21.74,0,0,0-2.36-3l1.47-1.21A19.29,19.29,0,0,1,772.79,29.74Zm-5.45,7.71H784.7V36c0-.17-.09-.26-.29-.26H767.59c-.19,0-.27.11-.25.26Zm17.36,1.88H767.34v2H784.7Zm-3.15-18.82a42.25,42.25,0,0,1-5.36-2.59,42.73,42.73,0,0,1-4.81,2.59Zm2.29,7.13a18.57,18.57,0,0,1-2.64,2.8h5.13q.15,0,.15-.15V26.14q0-.09-.15-.06h-9.05v4.36h3.06l-.93-1a26.15,26.15,0,0,0,3-3.12Z"/></svg>