<svg id="圖層_1" data-name="圖層 1" xmlns="http://www.w3.org/2000/svg" viewBox="0 0 493.93 118.4"><defs><style>.cls-1{fill:#e10045;}.cls-2{fill:#fff;}.cls-3{fill:#142852;}.cls-4{fill:none;stroke:#252525;stroke-width:0.93px;}.cls-5{fill:#252525;}</style></defs><title>hopemaker-eng</title><path class="cls-1" d="M96.59,26.42a97.78,97.78,0,0,0-2.75-10A26.19,26.19,0,0,0,79.93,1.6C72-1.86,66,.62,62.46,5.94s-6.21,15.52-2.93,29.61,8.25,21.11,10.38,23.94S78.5,70.39,82.5,73.94a1.49,1.49,0,0,0-.8,1.41c.09,1,1.15,1,1.59,1a10.07,10.07,0,0,0,1.78-.44s.88.71,1.77-.62c0,0,6.83-2.49,17.37-9.31S124,52.39,130.9,42.29s6.83-18.35,4.34-23.94-11.26-10.28-19.77-8C107.31,12.58,101.56,17.29,96.59,26.42Z"/><path class="cls-2" d="M128.25,12.38A15.65,15.65,0,0,0,122,11.07c-6.7,0-12.94,4.25-17.3,9.27a80.94,80.94,0,0,0-6.47,8.86c-.95,1.45-1.82,2.95-2.65,4.46a.21.21,0,0,0,0,.06h0c0,.1-.35.73-.7,1.34a8.16,8.16,0,0,1-.57.89,2.37,2.37,0,0,1-.25.27l0,0a.89.89,0,0,0,0-.11,78.76,78.76,0,0,0-5.9-19.94C85.26,9.86,78.61,2.87,71.15,2.85a11.59,11.59,0,0,0-3.72.61c-7.86,2.66-9.74,14.11-9.76,21.76,0,1,0,2,.1,2.81a57.8,57.8,0,0,0,4.37,18.16c2.79,6.73,7,11.8,11.68,17.23,3.86,4.53,8,9.11,13.1,12.35a.47.47,0,0,0,.43.43l.31,0c.56.33,1.12.67,1.71,1a.46.46,0,0,0,.23.06.5.5,0,0,0,.46-.51.5.5,0,0,0-.29-.46l-.1-.06c10-.6,19-10.4,25-17.14,6.9-7.71,13.65-16.15,17.61-25.83a27.05,27.05,0,0,0,1.92-9.74C134.21,18.87,132.71,14.31,128.25,12.38ZM88.7,75.25l-.78,0c-4.2-2.57-7.67-6.15-11-9.81-3.86-4.22-8-8.7-10.87-13.62a53.07,53.07,0,0,1-7.26-26.6,50.74,50.74,0,0,1,.34-5.9A22.05,22.05,0,0,1,65.07,6.17a7.77,7.77,0,0,1,5.7-2.33c3.45,0,7.14,1.87,9.8,4C89.1,14.5,91.7,27.93,93.28,38.12a.5.5,0,0,0,.51.42.45.45,0,0,0,.4-.22C99.76,28.26,106,16,117.65,12.73a16.11,16.11,0,0,1,4.41-.64,10.63,10.63,0,0,1,10,5.83,12.49,12.49,0,0,1,1.27,5.72,27.56,27.56,0,0,1-2,9.25c-3,8-8.66,15.07-14.07,21.67C110.83,62.45,99.78,75.28,88.7,75.25ZM131.58,33Zm-3.43-20.37Z"/><path class="cls-3" d="M43.45,22.76q-.2-5.15-.44-10.48c.7.11,1.37.21,2,.29a15.79,15.79,0,0,0,1.94.12,15.79,15.79,0,0,0,1.94-.12c.65-.08,1.32-.18,2-.29q-.24,5.34-.44,10.48c-.14,3.42-.2,6.91-.2,10.47V47.14c0,3.56.06,7.06.2,10.51s.28,6.85.44,10.19c-1.24-.11-2.56-.16-4-.16s-2.72,0-4,.16q.24-5,.44-10.19t.21-10.51V39.86l-8.46-.12q-4.08,0-8.45,0t-8.45,0l-8.45.12v7.28q0,5.34.2,10.51t.45,10.19c-1.24-.11-2.56-.16-4-.16s-2.73,0-4,.16c.17-3.34.31-6.74.45-10.19s.2-6.95.2-10.51V33.23q0-5.34-.2-10.47c-.14-3.43-.28-6.92-.45-10.48.7.11,1.38.21,2,.29a16,16,0,0,0,2,.12,15.91,15.91,0,0,0,1.94-.12c.64-.08,1.32-.18,2-.29q-.24,5.34-.45,10.48t-.2,10.47v2.83l8.45.16q4.08.08,8.45.08t8.45-.08l8.46-.16V33.23Q43.66,27.89,43.45,22.76Z"/><path class="cls-3" d="M144.34,33.23q0-5.34-.21-10.47t-.44-10.48c1.29.11,2.6.21,3.92.29s2.63.12,3.93.12c.64,0,1.42,0,2.34-.08s1.85-.1,2.79-.12,1.85-.07,2.71-.13,1.59-.08,2.18-.08c.81,0,1.81,0,3,.08a25.34,25.34,0,0,1,3.77.49,21.31,21.31,0,0,1,3.92,1.21,11.1,11.1,0,0,1,3.51,2.35,11.22,11.22,0,0,1,2.55,3.84,14.65,14.65,0,0,1,1,5.7A14.89,14.89,0,0,1,177,34.6a16.83,16.83,0,0,1-5.66,5.18,22.66,22.66,0,0,1-7.12,2.51,40,40,0,0,1-6.67.64c-1.24,0-2.37,0-3.4,0s-2.07-.09-3.15-.2v4.45q0,5.34.2,10.51t.45,10.19c-1.24-.11-2.57-.16-4-.16s-2.72,0-4,.16q.24-5,.44-10.19t.21-10.51ZM151,39.29a24.46,24.46,0,0,0,5.74.65,24.81,24.81,0,0,0,5.18-.57,13.75,13.75,0,0,0,4.89-2.06,11.35,11.35,0,0,0,3.64-4.12,14.25,14.25,0,0,0,1.41-6.76,14,14,0,0,0-1-5.66,7.94,7.94,0,0,0-2.71-3.39,10.56,10.56,0,0,0-4.24-1.66,32.29,32.29,0,0,0-5.66-.44H151Z"/><path class="cls-3" d="M187.08,22.63q-.21-5.18-.45-10.35,3.65.17,7.24.29t7.24.12q3.63,0,7.19-.12t7.2-.29a12.42,12.42,0,0,0,0,4.86c-1.72-.11-3.3-.22-4.73-.33l-4.53-.32c-1.59-.11-3.33-.2-5.21-.29s-4.16-.12-6.8-.12c0,1.73-.12,3.37-.2,4.94s-.12,3.34-.12,5.33,0,4.16,0,6.15S194,36,194,37q3.56,0,6.39-.08c1.89-.06,3.61-.12,5.18-.2l4.32-.25c1.32-.08,2.58-.17,3.76-.28a13,13,0,0,0-.24,2.51,12.41,12.41,0,0,0,.24,2.42c-1.4-.16-3-.29-4.89-.4s-3.72-.18-5.58-.2l-5.26-.08c-1.64,0-2.95,0-3.92,0,0,.48,0,1,0,1.57s0,1.28,0,2.15v8c0,3.07,0,5.61,0,7.6s.07,3.51.12,4.53h5.66q3.08,0,6-.12c2-.08,3.83-.19,5.58-.32a37.46,37.46,0,0,0,4.57-.61,5.93,5.93,0,0,0-.21,1.25c0,.46,0,.88,0,1.26a7.53,7.53,0,0,0,.25,2.1q-3.65-.16-7.24-.16H194q-3.65,0-7.36.16.24-5.18.45-10.31t.2-10.47V33.15C187.28,29.59,187.21,26.09,187.08,22.63Z"/><path class="cls-3" d="M262.61,33.55q5.7,10.85,11.93,22.24l2.34-4.41c1-1.91,2.21-4.11,3.56-6.59s2.79-5.16,4.33-8,3.1-5.81,4.69-8.78,3.16-5.87,4.73-8.73l4.37-8h1.05q.88,7.77,1.65,15t1.58,14.24q.81,7,1.62,13.82t1.78,13.55a11.33,11.33,0,0,0-1.9-.16h-3.8a11.25,11.25,0,0,0-1.9.16q-.9-10.76-1.78-20.86t-2.19-20.63h-.16q-5.58,10.2-11,20.26T273.32,67.68h-.72q-4.86-10.19-10.15-20.42T251.81,26.35h-.16q-.57,5-1.25,10.88T249.14,48.8c-.37,3.8-.7,7.38-1,10.75s-.4,6.13-.4,8.29a25.11,25.11,0,0,0-5.66,0q1-6.56,2.18-13.83c.76-4.85,1.48-9.73,2.19-14.64s1.34-9.74,1.94-14.51,1.1-9.31,1.53-13.63h1.38Q256.91,22.72,262.61,33.55Z"/><path class="cls-3" d="M360.66,67.84a14.8,14.8,0,0,0-2.14-.16h-4.29a14.8,14.8,0,0,0-2.14.16q-.57-1.86-1.54-4.49c-.64-1.75-1.36-3.58-2.14-5.5S346.83,54,346,52s-1.57-3.84-2.27-5.62c-1.72,0-3.48-.09-5.26-.12s-3.55,0-5.33,0-3.32,0-4.94,0l-4.93.12q-2.58,6.31-4.69,12t-3.15,9.42a28.11,28.11,0,0,0-6,0Q316,53.69,322.25,39.7t12.53-28.47h1.54l4.21,10.15q2.27,5.46,4.61,11t4.69,11.08c1.56,3.67,3,7.07,4.4,10.23s2.62,6,3.72,8.45S360,66.55,360.66,67.84ZM324.84,42.69c1.4,0,2.85,0,4.37.08s3,.08,4.36.08,3,0,4.53,0,3-.07,4.53-.12l-9-20.54Z"/><path class="cls-3" d="M367.29,67.84c.17-3.34.31-6.74.45-10.19s.2-6.95.2-10.51V33.23q0-5.34-.2-10.47c-.14-3.43-.28-6.92-.45-10.48.7.11,1.38.21,2,.29a15.67,15.67,0,0,0,1.94.12,15.91,15.91,0,0,0,1.94-.12c.64-.08,1.32-.18,2-.29q-.24,5.34-.45,10.48t-.2,10.47v4.45c0,.43.16.64.49.64s.59-.24,1.13-.73q2.83-2.42,5.94-5.49t6.27-6.39q3.15-3.32,6.23-6.76t5.9-6.67c.59.11,1.16.21,1.7.29a11,11,0,0,0,1.62.12,15.91,15.91,0,0,0,1.94-.12c.64-.08,1.29-.18,1.94-.29q-2.84,2.43-6.39,5.74t-7.16,6.8q-3.6,3.48-6.87,6.83t-5.46,5.86q6.56,7.37,13.22,15t13.55,15.32a18,18,0,0,0-2.43-.16h-4.65a15.27,15.27,0,0,0-2.22.16q-2.91-3.32-6.43-7.6T386,52q-3.36-4-6.07-7.2c-1.81-2.13-3.14-3.62-4-4.49-.44-.43-.76-.64-1-.64s-.41.16-.41.48v7q0,5.34.2,10.51t.45,10.19c-1.24-.11-2.56-.16-4-.16S368.53,67.73,367.29,67.84Z"/><path class="cls-3" d="M415.13,22.63q-.21-5.18-.45-10.35,3.65.17,7.24.29t7.24.12q3.63,0,7.2-.12t7.19-.29a12.42,12.42,0,0,0,0,4.86c-1.72-.11-3.3-.22-4.73-.33l-4.53-.32c-1.59-.11-3.33-.2-5.21-.29s-4.16-.12-6.8-.12c0,1.73-.12,3.37-.2,4.94s-.12,3.34-.12,5.33,0,4.16,0,6.15S422,36,422,37q3.56,0,6.39-.08c1.89-.06,3.61-.12,5.18-.2l4.32-.25c1.32-.08,2.58-.17,3.76-.28a13,13,0,0,0-.24,2.51,12.41,12.41,0,0,0,.24,2.42c-1.4-.16-3-.29-4.89-.4s-3.72-.18-5.58-.2L426,40.47c-1.64,0-2.95,0-3.92,0,0,.48,0,1,0,1.57s0,1.28,0,2.15v8c0,3.07,0,5.61,0,7.6s.07,3.51.12,4.53h5.66q3.08,0,6-.12c2-.08,3.83-.19,5.58-.32a37.46,37.46,0,0,0,4.57-.61,5.93,5.93,0,0,0-.21,1.25c0,.46,0,.88,0,1.26a7.53,7.53,0,0,0,.25,2.1q-3.65-.16-7.24-.16H422c-2.42,0-4.88,0-7.36.16q.24-5.18.45-10.31t.2-10.47V33.15C415.33,29.59,415.26,26.09,415.13,22.63Z"/><path class="cls-3" d="M453.74,33.23q0-5.34-.2-10.47t-.44-10.48c1.56.11,3.1.21,4.61.29s3,.12,4.6.12,3.1-.07,4.61-.2,3.05-.21,4.61-.21a31.4,31.4,0,0,1,6.47.65,15.88,15.88,0,0,1,5.38,2.14A10.87,10.87,0,0,1,487,19a12.48,12.48,0,0,1,1.33,6.07,12.43,12.43,0,0,1-1.73,6.67,16.22,16.22,0,0,1-4.25,4.61A20.84,20.84,0,0,1,477,39.17a26.88,26.88,0,0,1-5.21,1.34l2.67,3.39c1.13,1.46,2.39,3.06,3.8,4.81l4.36,5.5q2.26,2.88,4.37,5.5t4,4.81q1.86,2.19,3,3.32a17.78,17.78,0,0,0-2.42-.16h-4.77a16.36,16.36,0,0,0-2.35.16c-.81-1.13-2-2.83-3.68-5.09s-3.46-4.7-5.46-7.28-4-5.16-6.1-7.73-4-4.73-5.7-6.51h-3.08v5.91q0,5.34.21,10.51T461,67.84c-1.24-.11-2.56-.16-4-.16s-2.72,0-4,.16q.24-5,.44-10.19t.2-10.51Zm6.63,4.61a16.44,16.44,0,0,0,2.47.32c.89.06,1.87.08,3,.08a26.08,26.08,0,0,0,5.22-.56,15.12,15.12,0,0,0,5-2,11.77,11.77,0,0,0,3.76-3.8,11.1,11.1,0,0,0,1.5-6,10.5,10.5,0,0,0-1.17-5.22,9.48,9.48,0,0,0-3-3.27,11.55,11.55,0,0,0-4-1.66,21.26,21.26,0,0,0-4.29-.44c-1.88,0-3.45,0-4.69.12s-2.29.17-3.15.28q-.17,4.44-.32,8.81t-.17,8.74Z"/><line class="cls-4" x1="1.81" y1="79.1" x2="493.04" y2="79.1"/><path class="cls-5" d="M17.31,111.21a4.76,4.76,0,0,0-.72-.06H15.14a4.78,4.78,0,0,0-.73.06c-.13-.42-.3-.93-.52-1.52s-.46-1.21-.72-1.86-.54-1.3-.81-2l-.77-1.9-1.77,0L8,103.9l-1.67,0-1.66,0c-.59,1.42-1.12,2.77-1.59,4.06s-.83,2.35-1.07,3.19a7.84,7.84,0,0,0-1-.06,8,8,0,0,0-1,.06q2.22-4.78,4.32-9.52t4.24-9.63h.52L10.5,95.5c.51,1.23,1,2.47,1.56,3.73s1.06,2.5,1.59,3.74,1,2.4,1.49,3.46.88,2,1.25,2.86S17.07,110.77,17.31,111.21ZM5.2,102.7l1.47,0,1.48,0,1.53,0,1.53,0-3-6.94Z"/><path class="cls-5" d="M20.33,100.75c0-.91-.09-1.75-.18-2.53a7.34,7.34,0,0,0,1.23.13,2.74,2.74,0,0,0,.48,0l.62-.09c-.06.73-.08,1.46-.08,2.18h.05a4.51,4.51,0,0,1,4.07-2.46,4.43,4.43,0,0,1,1.35.21,4.28,4.28,0,0,1,1.18.56,3.77,3.77,0,0,1,.92.86,2.84,2.84,0,0,1,.52,1.08h.05A4.73,4.73,0,0,1,35,97.94a5.31,5.31,0,0,1,1.67.25,3.47,3.47,0,0,1,1.32.76,3.52,3.52,0,0,1,.88,1.34,5.54,5.54,0,0,1,.31,2q0,.46,0,1c0,.36,0,.78-.05,1.27s0,1-.06,1.64,0,1.31,0,2.12c0,.49,0,1,0,1.42s0,1,.07,1.48a3.05,3.05,0,0,0-.6-.06H37.27a3.05,3.05,0,0,0-.6.06c0-.46.11-1.38.18-2.77s.09-3.31.09-5.79a5.31,5.31,0,0,0-.15-1.29,2.85,2.85,0,0,0-.48-1,2.34,2.34,0,0,0-.87-.7,3.26,3.26,0,0,0-1.37-.25,3.35,3.35,0,0,0-1.67.38,3.17,3.17,0,0,0-1.06.9,2.61,2.61,0,0,0-.34.6,3.46,3.46,0,0,0-.2.92c0,.41-.07,1-.09,1.72s0,1.76,0,3c0,.78,0,1.5,0,2.15s.06,1.35.1,2.12q-.63-.06-1.2-.06c-.39,0-.79,0-1.21.06.09-1,.16-2,.19-3.07s.06-2.06.06-3.06,0-1.53,0-2,0-.87-.06-1.15a4.42,4.42,0,0,0-.15-.7c-.07-.18-.15-.38-.26-.6a2.65,2.65,0,0,0-1-.89,2.68,2.68,0,0,0-1.32-.36,3.07,3.07,0,0,0-2.66,1.17,5.62,5.62,0,0,0-.84,3.31v2.32c0,.82,0,1.69,0,2.59s.08,1.72.17,2.45q-.62-.06-1.23-.06t-1.23.06c.09-.73.15-1.55.18-2.45s0-1.77,0-2.59v-2.84C20.37,102.51,20.36,101.65,20.33,100.75Z"/><path class="cls-5" d="M46.76,111.21c-.22-.68-.51-1.54-.88-2.57s-.76-2.15-1.18-3.33-.88-2.38-1.34-3.61-.93-2.39-1.39-3.48l.65.09a4.49,4.49,0,0,0,.64,0,4,4,0,0,0,.6,0l.66-.09c.47,1.71,1,3.43,1.57,5.15s1.22,3.5,1.93,5.32c.22-.51.48-1.19.79-2s.63-1.74,1-2.71.65-1.95,1-2.95.62-1.94.88-2.79a3.18,3.18,0,0,0,.82.13,1.48,1.48,0,0,0,.38,0l.38-.09c.46,1.75,1,3.47,1.59,5.18s1.23,3.47,1.89,5.29c.23-.58.51-1.3.83-2.15s.65-1.74,1-2.68.7-1.9,1-2.88l1-2.76a3.8,3.8,0,0,0,.87.13,2.89,2.89,0,0,0,.82-.13c-1,2.2-2,4.38-2.91,6.53s-1.74,4.3-2.53,6.46a3.62,3.62,0,0,0-.71-.06h-.38a.81.81,0,0,0-.33.06q-.7-2.44-1.56-4.9t-1.94-5.17c-.22.55-.48,1.23-.79,2s-.63,1.68-1,2.61-.66,1.87-1,2.83-.62,1.82-.88,2.59a4.91,4.91,0,0,0-1.53,0Z"/><path class="cls-5" d="M65.08,99.53a7.83,7.83,0,0,1,2.27-1.26,7,7,0,0,1,2.13-.33,5.5,5.5,0,0,1,1.81.29,3.91,3.91,0,0,1,1.39.82,3.73,3.73,0,0,1,.91,1.29,4,4,0,0,1,.32,1.65c0,1,0,2.07,0,3.1s0,2.12,0,3.27c0,.22,0,.45,0,.7a2.28,2.28,0,0,0,.12.66,1.13,1.13,0,0,0,.32.47.84.84,0,0,0,.61.2l.29,0a.81.81,0,0,0,.29-.09v.6a3.49,3.49,0,0,1-.76.22,6,6,0,0,1-1,.08,1.72,1.72,0,0,1-1.89-1.62A7.3,7.3,0,0,1,69.87,111a5.35,5.35,0,0,1-2.35.47,5,5,0,0,1-1.34-.19,3.16,3.16,0,0,1-1.17-.63,3.54,3.54,0,0,1-.82-1,3,3,0,0,1-.31-1.41,3.24,3.24,0,0,1,1-2.55,5.63,5.63,0,0,1,2.83-1.2q1.48-.24,2.31-.42a5.9,5.9,0,0,0,1.24-.37.83.83,0,0,0,.47-.45,2.13,2.13,0,0,0,.09-.67,5.19,5.19,0,0,0-.17-1.32,3,3,0,0,0-.52-1.09,2.49,2.49,0,0,0-.93-.75,3.07,3.07,0,0,0-1.39-.29,4.45,4.45,0,0,0-2,.49A3.28,3.28,0,0,0,65.38,101h-.3Zm6.76,4.87a6.54,6.54,0,0,1-1.08.27l-1.25.23a10.75,10.75,0,0,0-1.24.32,3.85,3.85,0,0,0-1.1.52,2.39,2.39,0,0,0-.76.82,2.43,2.43,0,0,0-.29,1.25,2.49,2.49,0,0,0,.74,2,2.44,2.44,0,0,0,1.64.65,3.37,3.37,0,0,0,1.9-.57,4.35,4.35,0,0,0,1.33-1.34Z"/><path class="cls-5" d="M82.12,111.23l-.78-1.91c-.32-.79-.66-1.61-1-2.48l-1.12-2.65-1.08-2.54c-.34-.79-.63-1.49-.89-2.09s-.44-1-.57-1.34l.65.09a4.17,4.17,0,0,0,.61,0,4,4,0,0,0,.6,0l.65-.09q.86,2.63,1.89,5.19c.69,1.72,1.42,3.48,2.19,5.31.76-1.61,1.5-3.32,2.2-5.14s1.33-3.61,1.87-5.36a3.22,3.22,0,0,0,1.81,0c-.13.25-.33.68-.62,1.3l-1,2.18c-.39.85-.82,1.79-1.28,2.82s-.94,2.09-1.43,3.17l-1.43,3.23c-.48,1.06-.91,2.08-1.31,3s-.76,1.83-1.06,2.6-.52,1.39-.67,1.85a4,4,0,0,0-.93-.14,4.11,4.11,0,0,0-.93.14A56.55,56.55,0,0,0,82.12,111.23Z"/><path class="cls-5" d="M114.54,96q-.08-1.74-.15-3.54l.68.09a4.32,4.32,0,0,0,1.31,0l.69-.09c-.06,1.2-.11,2.38-.16,3.54s-.06,2.34-.06,3.54v4.7c0,1.21,0,2.39.06,3.56s.1,2.31.16,3.45c-.42,0-.87-.06-1.34-.06s-.93,0-1.34.06c0-1.14.1-2.28.15-3.45s.06-2.35.06-3.56v-2.46l-2.85,0H106l-2.86,0v2.46c0,1.21,0,2.39.07,3.56s.1,2.31.15,3.45c-.42,0-.86-.06-1.34-.06s-.92,0-1.34.06c.06-1.14.11-2.28.15-3.45s.07-2.35.07-3.56V99.5c0-1.2,0-2.38-.07-3.54s-.09-2.34-.15-3.54l.69.09a4.74,4.74,0,0,0,.65,0,4.89,4.89,0,0,0,.66,0l.68-.09q-.08,1.8-.15,3.54c0,1.16-.07,2.34-.07,3.54v1l2.86.05c.92,0,1.88,0,2.86,0s1.94,0,2.86,0l2.85-.05v-1Q114.6,97.7,114.54,96Z"/><path class="cls-5" d="M121,104.75a7.52,7.52,0,0,1,.59-3.16,5.85,5.85,0,0,1,1.54-2.1,6.12,6.12,0,0,1,2.15-1.18,7.78,7.78,0,0,1,4.74,0,6.16,6.16,0,0,1,2.14,1.18,6,6,0,0,1,1.54,2.1,8.76,8.76,0,0,1,0,6.32,5.92,5.92,0,0,1-1.54,2.11,5.74,5.74,0,0,1-2.14,1.13,8.68,8.68,0,0,1-4.74,0,5.7,5.7,0,0,1-2.15-1.13,5.8,5.8,0,0,1-1.54-2.11A7.52,7.52,0,0,1,121,104.75Zm2.4,0a11.45,11.45,0,0,0,.21,2.22,6,6,0,0,0,.7,1.9,3.68,3.68,0,0,0,1.31,1.32,4.35,4.35,0,0,0,4.05,0,3.76,3.76,0,0,0,1.31-1.32,6,6,0,0,0,.7-1.9,12.37,12.37,0,0,0,0-4.43,5.89,5.89,0,0,0-.7-1.9,3.79,3.79,0,0,0-1.31-1.33,4.43,4.43,0,0,0-4.05,0,3.71,3.71,0,0,0-1.31,1.33,5.89,5.89,0,0,0-.7,1.9A11.43,11.43,0,0,0,123.35,104.75Z"/><path class="cls-5" d="M137.44,106.17c0-.62,0-1.29,0-2s0-1.45,0-2.17,0-1.41-.07-2.07-.06-1.22-.09-1.69a5.88,5.88,0,0,0,2.46,0c-.07.47-.13.93-.16,1.36s-.06.88-.06,1.32h.06a5.24,5.24,0,0,1,.54-1,5,5,0,0,1,2.27-1.71,5.09,5.09,0,0,1,1.81-.3,5.7,5.7,0,0,1,2.05.4A4.89,4.89,0,0,1,148,99.56a6,6,0,0,1,1.26,2.09,8.54,8.54,0,0,1,.48,3,8.23,8.23,0,0,1-.52,3,6.55,6.55,0,0,1-1.36,2.13,5.13,5.13,0,0,1-1.9,1.24,6,6,0,0,1-2.13.4,4.42,4.42,0,0,1-4.29-2.6h-.06v1.72c0,.59,0,1.24,0,2s0,1.43.05,2.15,0,1.39.06,2,.06,1.2.1,1.66a5.47,5.47,0,0,0-2.46,0c0-.46.07-1,.09-1.66s.05-1.32.07-2,0-1.43,0-2.15,0-1.37,0-2Zm9.87-1.53a8.92,8.92,0,0,0-.34-2.7,4.89,4.89,0,0,0-.88-1.71,2.77,2.77,0,0,0-1.21-.89,3.86,3.86,0,0,0-1.34-.25,3.62,3.62,0,0,0-1.88.47,3.76,3.76,0,0,0-1.27,1.24,5.55,5.55,0,0,0-.71,1.83,10.68,10.68,0,0,0-.22,2.23q0,5.69,4,5.69a3.16,3.16,0,0,0,1.71-.45,3.57,3.57,0,0,0,1.21-1.26,6.7,6.7,0,0,0,.71-1.89A11.31,11.31,0,0,0,147.31,104.64Z"/><path class="cls-5" d="M152.29,105.13a7.94,7.94,0,0,1,1.6-5.27,5.71,5.71,0,0,1,4.66-1.92,6.34,6.34,0,0,1,2.5.45,5.35,5.35,0,0,1,1.76,1.21,4.72,4.72,0,0,1,1.06,1.76,7,7,0,0,1,.34,2.16c0,.18,0,.36,0,.53s0,.36,0,.54l-2.92-.06c-1,0-1.94,0-2.93,0-.6,0-1.2,0-1.79,0l-1.79.06a2.07,2.07,0,0,0,0,.41v.35a6.21,6.21,0,0,0,.32,2,4.58,4.58,0,0,0,.91,1.6A4.47,4.47,0,0,0,157.4,110a4.92,4.92,0,0,0,2,.39,4.37,4.37,0,0,0,1.12-.15,5.89,5.89,0,0,0,1.13-.41,6.55,6.55,0,0,0,1-.61,5.69,5.69,0,0,0,.84-.77l.13.08-.16,1.34a7.57,7.57,0,0,1-2,1.12,7,7,0,0,1-2.53.47,7.71,7.71,0,0,1-2.69-.45,5.87,5.87,0,0,1-3.48-3.35A6.88,6.88,0,0,1,152.29,105.13Zm6.31-6.31a3,3,0,0,0-1.71.46,4,4,0,0,0-1.14,1.17,5.31,5.31,0,0,0-.69,1.53,8.74,8.74,0,0,0-.29,1.57l1.77,0,1.79,0,1.83,0,1.81,0a9.65,9.65,0,0,0-.13-1.56,4.65,4.65,0,0,0-.49-1.53,3.23,3.23,0,0,0-1-1.18A3,3,0,0,0,158.6,98.82Z"/><path class="cls-5" d="M181.78,99.61c1.28,2.44,2.63,5,4,7.52.18-.35.45-.84.79-1.49l1.21-2.23c.45-.84.94-1.74,1.46-2.72l1.59-3c.53-1,1.07-2,1.6-3s1-1.87,1.47-2.71h.36c.2,1.75.39,3.44.56,5.08s.35,3.23.53,4.81.37,3.13.55,4.67.38,3.07.6,4.59a3.55,3.55,0,0,0-.64-.06H194.6a3.55,3.55,0,0,0-.64.06q-.3-3.64-.6-7.06t-.74-7h-.05c-1.26,2.29-2.5,4.58-3.71,6.85s-2.36,4.64-3.46,7.12h-.24c-1.1-2.3-2.24-4.6-3.44-6.9s-2.39-4.67-3.59-7.07h-.06c-.13,1.13-.27,2.35-.42,3.68s-.3,2.62-.43,3.91-.23,2.49-.32,3.63-.14,2.08-.14,2.81a7.63,7.63,0,0,0-1.91,0c.23-1.48.48-3,.73-4.68s.51-3.29.74-5,.46-3.3.66-4.91.37-3.15.52-4.61H178Q179.85,95.95,181.78,99.61Z"/><path class="cls-5" d="M200.66,99.53a7.83,7.83,0,0,1,2.27-1.26,7,7,0,0,1,2.13-.33,5.5,5.5,0,0,1,1.81.29,4,4,0,0,1,1.39.82,3.7,3.7,0,0,1,.9,1.29,4.05,4.05,0,0,1,.33,1.65c0,1,0,2.07-.05,3.1s-.06,2.12-.06,3.27c0,.22,0,.45,0,.7a2.28,2.28,0,0,0,.12.66,1.21,1.21,0,0,0,.31.47.89.89,0,0,0,.62.2l.29,0a.71.71,0,0,0,.28-.09v.6a3.56,3.56,0,0,1-.75.22,6,6,0,0,1-1,.08,1.86,1.86,0,0,1-1.34-.45,1.83,1.83,0,0,1-.54-1.17,7.33,7.33,0,0,1-1.95,1.45,5.32,5.32,0,0,1-2.35.47,5.1,5.1,0,0,1-1.34-.19,3.2,3.2,0,0,1-1.16-.63,3.39,3.39,0,0,1-.82-1,3,3,0,0,1-.31-1.41,3.24,3.24,0,0,1,1-2.55,5.59,5.59,0,0,1,2.83-1.2q1.49-.24,2.31-.42a5.59,5.59,0,0,0,1.23-.37.82.82,0,0,0,.48-.45,2.16,2.16,0,0,0,.08-.67,5.19,5.19,0,0,0-.16-1.32,3,3,0,0,0-.52-1.09,2.66,2.66,0,0,0-.93-.75,3.1,3.1,0,0,0-1.39-.29,4.45,4.45,0,0,0-2,.49A3.28,3.28,0,0,0,201,101h-.3Zm6.75,4.87a6.54,6.54,0,0,1-1.08.27l-1.24.23a10.91,10.91,0,0,0-1.25.32,3.79,3.79,0,0,0-1.09.52,2.39,2.39,0,0,0-.76.82,2.34,2.34,0,0,0-.29,1.25,2.39,2.39,0,0,0,2.38,2.6,3.39,3.39,0,0,0,1.9-.57,4.31,4.31,0,0,0,1.32-1.34Z"/><path class="cls-5" d="M214.73,96.44c0-.73,0-1.45,0-2.16s0-1.39-.07-2-.06-1.2-.1-1.65a5.88,5.88,0,0,0,2.46,0q0,.68-.09,1.65c0,.65,0,1.33-.07,2s0,1.43,0,2.16,0,1.4,0,2v5c0,.35.11.52.32.52a.8.8,0,0,0,.48-.19l.59-.44c.16-.13.44-.37.83-.74s.83-.79,1.32-1.27,1-1,1.49-1.54,1-1.07,1.39-1.56a4.35,4.35,0,0,0,1,.13,4,4,0,0,0,.6,0l.77-.09q-1.72,1.4-3.3,2.74c-1.05.91-2,1.82-3,2.75q1.56,1.89,3.21,3.78t3.38,3.72a6.6,6.6,0,0,0-.83-.06h-1.39a4.68,4.68,0,0,0-.73.06c-.41-.46-.86-1-1.37-1.6l-1.52-1.82c-.5-.6-1-1.17-1.44-1.7s-.84-1-1.17-1.31a1.14,1.14,0,0,0-.19-.19.35.35,0,0,0-.22-.08c-.18,0-.27.11-.27.32v1.64c0,.83,0,1.62,0,2.4s.08,1.55.17,2.34q-.61-.06-1.23-.06t-1.23.06c0-.42.07-.95.1-1.59s0-1.31.07-2,0-1.44,0-2.16,0-1.41,0-2v-5C214.74,97.84,214.74,97.17,214.73,96.44Z"/><path class="cls-5" d="M227.54,105.13a7.94,7.94,0,0,1,1.6-5.27,5.73,5.73,0,0,1,4.66-1.92,6.31,6.31,0,0,1,2.5.45,5.39,5.39,0,0,1,1.77,1.21,4.83,4.83,0,0,1,1.05,1.76,6.69,6.69,0,0,1,.34,2.16c0,.18,0,.36,0,.53s0,.36,0,.54l-2.93-.06c-1,0-1.94,0-2.92,0-.61,0-1.2,0-1.8,0l-1.79.06a3.81,3.81,0,0,0,0,.41v.35a6.21,6.21,0,0,0,.31,2,4.6,4.6,0,0,0,.92,1.6,4.43,4.43,0,0,0,1.47,1.07,5,5,0,0,0,2,.39,4.43,4.43,0,0,0,1.12-.15,6,6,0,0,0,1.12-.41,6.65,6.65,0,0,0,1-.61,6.15,6.15,0,0,0,.83-.77l.14.08-.17,1.34a7.28,7.28,0,0,1-2,1.12,7,7,0,0,1-2.53.47,7.71,7.71,0,0,1-2.69-.45,5.89,5.89,0,0,1-3.47-3.35A6.69,6.69,0,0,1,227.54,105.13Zm6.32-6.31a3,3,0,0,0-1.71.46,3.89,3.89,0,0,0-1.15,1.17,5.29,5.29,0,0,0-.68,1.53,7.28,7.28,0,0,0-.29,1.57l1.76,0,1.79,0,1.84,0,1.8,0a10.86,10.86,0,0,0-.12-1.56,4.9,4.9,0,0,0-.49-1.53,3.26,3.26,0,0,0-1-1.18A2.92,2.92,0,0,0,233.86,98.82Z"/><path class="cls-5" d="M248.53,100.16a2.56,2.56,0,0,0-.81-.14,2.33,2.33,0,0,0-1.18.3,2.79,2.79,0,0,0-.87.81,3.9,3.9,0,0,0-.55,1.2,6,6,0,0,0-.19,1.49v3c0,1.22,0,2.16,0,2.8a13,13,0,0,0,.09,1.58,10,10,0,0,0-1.09-.06,10.52,10.52,0,0,0-1.15.06c0-.62.09-1.47.09-2.53s0-2.38,0-3.93v-.87c0-.71,0-1.53,0-2.46s0-2-.09-3.2l.57.09a3.69,3.69,0,0,0,.58,0,3.28,3.28,0,0,0,.52,0l.57-.09q-.1,1-.12,1.56c0,.38,0,.74,0,1.09l.06,0q1.62-3,3.61-3a2.58,2.58,0,0,1,.42,0,1.86,1.86,0,0,1,.45.14,3.18,3.18,0,0,0-.16,1c0,.44,0,.85,0,1.21l-.19.14A1.21,1.21,0,0,0,248.53,100.16Z"/><path class="cls-5" d="M274.4,110.56a7.33,7.33,0,0,1-1.29.47c-.5.13-1.06.26-1.68.37a11.12,11.12,0,0,1-1.94.16,12.46,12.46,0,0,1-4-.61,8.32,8.32,0,0,1-3.16-1.88,8.74,8.74,0,0,1-2.08-3.07,11.83,11.83,0,0,1,0-8.29,8.69,8.69,0,0,1,2.1-3.08,9.36,9.36,0,0,1,3.24-1.91,12.56,12.56,0,0,1,4.16-.66,14.12,14.12,0,0,1,3.3.37,16.62,16.62,0,0,1,2.64.89,3.48,3.48,0,0,0-.36,1l-.22,1.09-.16.06a6.19,6.19,0,0,0-.77-.74A8.24,8.24,0,0,0,273,94a6.79,6.79,0,0,0-1.47-.64,5.78,5.78,0,0,0-1.81-.26,8.57,8.57,0,0,0-3,.51,6.41,6.41,0,0,0-2.41,1.6,7.52,7.52,0,0,0-1.6,2.74,13.8,13.8,0,0,0,0,7.85,7.47,7.47,0,0,0,1.6,2.73,6.29,6.29,0,0,0,2.41,1.6,8.35,8.35,0,0,0,3,.52,6.57,6.57,0,0,0,1.82-.24,9.75,9.75,0,0,0,1.53-.59,9.3,9.3,0,0,0,1.26-.74c.37-.27.69-.5.94-.7l.11.11-.24,1.61A3.57,3.57,0,0,1,274.4,110.56Z"/><path class="cls-5" d="M279.35,96.44c0-.73,0-1.45-.05-2.16s0-1.39-.06-2-.06-1.2-.1-1.65a5.88,5.88,0,0,0,2.46,0c0,.45-.07,1-.09,1.64s-.05,1.31-.07,2,0,1.41,0,2.12,0,1.36,0,2v2.07h.06a5.64,5.64,0,0,1,1.83-1.81,4.82,4.82,0,0,1,2.54-.65,6,6,0,0,1,1.55.22,3.63,3.63,0,0,1,2.43,2.2,5.82,5.82,0,0,1,.4,2.34c0,.79,0,1.59-.06,2.42s-.05,1.71-.05,2.64v1.78c0,.29,0,.58,0,.86s0,.55,0,.81a10.77,10.77,0,0,0-2.27,0c0-.95.08-1.93.13-2.93s.07-2,.07-3.09v-1.67a5.08,5.08,0,0,0-.8-3.1,2.6,2.6,0,0,0-2.19-1,3.29,3.29,0,0,0-2.8,1.17,5.41,5.41,0,0,0-.89,3.31c0,.51,0,1.1,0,1.78s0,1.35,0,2,0,1.35.07,2,.06,1.15.09,1.56q-.63-.06-1.23-.06t-1.23.06c0-.42.07-.95.1-1.59s.05-1.31.06-2,0-1.44.05-2.16,0-1.41,0-2v-5C279.36,97.84,279.35,97.17,279.35,96.44Z"/><path class="cls-5" d="M295.08,99.53a7.83,7.83,0,0,1,2.27-1.26,7.08,7.08,0,0,1,2.14-.33,5.48,5.48,0,0,1,1.8.29,4,4,0,0,1,1.4.82,3.84,3.84,0,0,1,.9,1.29,4.05,4.05,0,0,1,.33,1.65c0,1,0,2.07-.06,3.1s-.05,2.12-.05,3.27c0,.22,0,.45,0,.7a2.28,2.28,0,0,0,.12.66,1.23,1.23,0,0,0,.32.47.84.84,0,0,0,.61.2l.29,0a.75.75,0,0,0,.29-.09v.6a3.56,3.56,0,0,1-.75.22,6.23,6.23,0,0,1-1,.08,1.84,1.84,0,0,1-1.34-.45,1.89,1.89,0,0,1-.55-1.17,7.3,7.3,0,0,1-1.94,1.45,5.35,5.35,0,0,1-2.35.47,5,5,0,0,1-1.34-.19,3.16,3.16,0,0,1-1.17-.63,3.54,3.54,0,0,1-.82-1,3,3,0,0,1-.31-1.41,3.21,3.21,0,0,1,1-2.55,5.55,5.55,0,0,1,2.83-1.2q1.47-.24,2.31-.42a6,6,0,0,0,1.23-.37.89.89,0,0,0,.48-.45,2.51,2.51,0,0,0,.08-.67,5.19,5.19,0,0,0-.17-1.32,3,3,0,0,0-.52-1.09,2.49,2.49,0,0,0-.93-.75,3.07,3.07,0,0,0-1.39-.29,4.45,4.45,0,0,0-2,.49,3.28,3.28,0,0,0-1.41,1.37h-.3Zm6.76,4.87a6.54,6.54,0,0,1-1.08.27l-1.25.23a10.75,10.75,0,0,0-1.24.32,3.85,3.85,0,0,0-1.1.52,2.49,2.49,0,0,0-.76.82,2.43,2.43,0,0,0-.29,1.25,2.49,2.49,0,0,0,.74,2,2.44,2.44,0,0,0,1.64.65,3.37,3.37,0,0,0,1.9-.57,4.24,4.24,0,0,0,1.33-1.34Z"/><path class="cls-5" d="M314.67,100.16a2.45,2.45,0,0,0-.8-.14,2.33,2.33,0,0,0-1.18.3,2.69,2.69,0,0,0-.87.81,3.9,3.9,0,0,0-.55,1.2,5.53,5.53,0,0,0-.19,1.49v3c0,1.22,0,2.16,0,2.8a12.69,12.69,0,0,0,.1,1.58,10.14,10.14,0,0,0-1.1-.06,10.33,10.33,0,0,0-1.14.06c.05-.62.08-1.47.09-2.53s0-2.38,0-3.93v-.87c0-.71,0-1.53,0-2.46s0-2-.09-3.2l.57.09a3.48,3.48,0,0,0,.57,0,3.12,3.12,0,0,0,.52,0l.58-.09c-.07.65-.12,1.17-.12,1.56s0,.74,0,1.09l.06,0c1.07-2,2.28-3,3.61-3a2.58,2.58,0,0,1,.42,0,1.86,1.86,0,0,1,.45.14,3.18,3.18,0,0,0-.16,1c0,.44,0,.85,0,1.21l-.19.14A1.19,1.19,0,0,0,314.67,100.16Z"/><path class="cls-5" d="M318.85,93.46a1.39,1.39,0,1,1,2.78,0,1.39,1.39,0,0,1-2.78,0Zm.38,9.87c0-.82,0-1.68,0-2.58S319.1,99,319,98.22a5.88,5.88,0,0,0,2.46,0c-.09.78-.15,1.62-.18,2.53s0,1.76,0,2.58v2.84c0,.82,0,1.69,0,2.59s.09,1.72.18,2.45q-.63-.06-1.23-.06t-1.23.06c.09-.73.15-1.55.18-2.45s0-1.77,0-2.59Z"/><path class="cls-5" d="M329.07,94.55q-.07,1-.12,2c0,.67-.06,1.34-.1,2H330c.55,0,1.14,0,1.78-.07a1,1,0,0,0,0,.3v.57a.94.94,0,0,0,0,.28l-.74,0h-2.16c0,.07,0,.37-.06.88s-.05,1.11-.07,1.81,0,1.44,0,2.21,0,1.44,0,2,0,1,0,1.5a4.91,4.91,0,0,0,.26,1.33,2.23,2.23,0,0,0,.66.94,1.93,1.93,0,0,0,1.26.36,3.78,3.78,0,0,0,.58-.06,4.28,4.28,0,0,0,.65-.14v.66c-.31.06-.65.12-1,.21a5.1,5.1,0,0,1-1.08.12,3.37,3.37,0,0,1-2.54-.85,3.41,3.41,0,0,1-.82-2.49c0-.49,0-1,0-1.6s0-1.2.06-1.88,0-1.44.07-2.27,0-1.76,0-2.78h-1.34l-.52,0c0-.11,0-.22,0-.32a3,3,0,0,0,0-.31,2.64,2.64,0,0,0,0-.28,2.51,2.51,0,0,0,0-.27c.82.05,1.42.08,1.81.08,0-.36,0-.82,0-1.37s0-1.11-.06-1.69l2.27-1Z"/><path class="cls-5" d="M338.64,111.23l-.78-1.91c-.32-.79-.66-1.61-1-2.48s-.74-1.75-1.12-2.65-.75-1.75-1.08-2.54-.64-1.49-.89-2.09-.45-1-.58-1.34l.66.09a4.52,4.52,0,0,0,1.2,0l.66-.09c.57,1.75,1.19,3.48,1.89,5.19s1.42,3.48,2.18,5.31c.77-1.61,1.5-3.32,2.21-5.14s1.32-3.61,1.87-5.36a3.18,3.18,0,0,0,1.8,0c-.12.25-.33.68-.61,1.3l-1,2.18c-.4.85-.82,1.79-1.29,2.82l-1.42,3.17c-.48,1.09-1,2.16-1.44,3.23s-.91,2.08-1.31,3-.75,1.83-1.05,2.6-.53,1.39-.67,1.85a4.11,4.11,0,0,0-.93-.14,4,4,0,0,0-.93.14A55.18,55.18,0,0,0,338.64,111.23Z"/><path class="cls-5" d="M357.39,96q-.08-1.74-.15-3.54c.82,0,1.63.07,2.45.09s1.62,0,2.44,0,1.65,0,2.49,0l2.74-.09a3.78,3.78,0,0,0,0,1.64l-1.78-.15c-.69,0-1.4-.08-2.12-.11l-2.08-.07-1.65,0c0,.64,0,1.25,0,1.84s0,1.16,0,1.75,0,1.22,0,1.76,0,1.1,0,1.68c1.2,0,2.39,0,3.57,0s2.34-.11,3.48-.22a3.41,3.41,0,0,0,0,1.64c-.45-.06-1-.1-1.54-.12l-1.79-.07q-.93,0-1.89,0H359.7v2.32c0,1.21,0,2.39.07,3.56s.09,2.31.15,3.45c-.42,0-.87-.06-1.34-.06s-.92,0-1.34.06c.05-1.14.1-2.28.15-3.45s.07-2.35.07-3.56V99.5C357.46,98.3,357.43,97.12,357.39,96Z"/><path class="cls-5" d="M368.64,104.75a7.68,7.68,0,0,1,.59-3.16,6,6,0,0,1,1.54-2.1,6.2,6.2,0,0,1,2.15-1.18,7.81,7.81,0,0,1,4.75,0,6.21,6.21,0,0,1,2.13,1.18,5.85,5.85,0,0,1,1.54,2.1,8.76,8.76,0,0,1,0,6.32,5.6,5.6,0,0,1-3.67,3.24,8.71,8.71,0,0,1-4.75,0,5.78,5.78,0,0,1-2.15-1.13,5.92,5.92,0,0,1-1.54-2.11A7.68,7.68,0,0,1,368.64,104.75Zm2.41,0a12.3,12.3,0,0,0,.2,2.22,6,6,0,0,0,.7,1.9,3.76,3.76,0,0,0,1.31,1.32,4.35,4.35,0,0,0,4.05,0,3.68,3.68,0,0,0,1.31-1.32,6,6,0,0,0,.7-1.9,11.79,11.79,0,0,0,0-4.43,5.89,5.89,0,0,0-.7-1.9,3.71,3.71,0,0,0-1.31-1.33,4.43,4.43,0,0,0-4.05,0,3.79,3.79,0,0,0-1.31,1.33,5.89,5.89,0,0,0-.7,1.9A12.27,12.27,0,0,0,371.05,104.75Z"/><path class="cls-5" d="M385.43,107.08c0-1,0-1.8,0-2.48s0-1.36,0-2,0-1.33,0-2.07,0-1.51,0-2.27a5,5,0,0,0,2.27,0c-.09,1.09-.16,2.29-.21,3.59s-.06,2.64-.06,4a7.5,7.5,0,0,0,.24,2.17,3.35,3.35,0,0,0,.6,1.14,3.11,3.11,0,0,0,1,.72,3.18,3.18,0,0,0,1.38.29,3.39,3.39,0,0,0,1.92-.51,3.08,3.08,0,0,0,1.12-1.24c.13-.31.23-.58.3-.79a5.35,5.35,0,0,0,.18-.88c0-.36.07-.86.08-1.48s0-1.46,0-2.54v-2.3c0-.4,0-.78,0-1.14s0-.72,0-1l.57.09a3.69,3.69,0,0,0,.58,0,3.48,3.48,0,0,0,.57,0l.55-.09c-.09,1.42-.15,2.79-.16,4.11s0,2.72,0,4.2c0,.82,0,1.62,0,2.41s0,1.54.08,2.27a9.57,9.57,0,0,0-2.14,0c0-.17,0-.34.05-.52s0-.38,0-.58v-1.17h-.06a4.6,4.6,0,0,1-1.83,1.92,5,5,0,0,1-2.43.62,4.71,4.71,0,0,1-3.35-1.14A4.23,4.23,0,0,1,385.43,107.08Z"/><path class="cls-5" d="M409.22,100.42a2.6,2.6,0,0,0-2.19-1,3.29,3.29,0,0,0-2.8,1.17,5.41,5.41,0,0,0-.89,3.31v2.32c0,.82,0,1.69,0,2.59s.09,1.72.18,2.45q-.63-.06-1.23-.06t-1.23.06c.09-.73.15-1.55.18-2.45s0-1.77,0-2.59v-2.84c0-.82,0-1.68,0-2.58s-.09-1.75-.18-2.53a7.34,7.34,0,0,0,1.23.13,2.74,2.74,0,0,0,.48,0l.61-.09c-.05.73-.08,1.46-.08,2.18h.06a5.64,5.64,0,0,1,1.83-1.81,4.82,4.82,0,0,1,2.54-.65,6,6,0,0,1,1.55.22,3.63,3.63,0,0,1,2.43,2.2,5.82,5.82,0,0,1,.4,2.34c0,.79,0,1.59-.06,2.42s0,1.71,0,2.64v1.78c0,.29,0,.58,0,.86s0,.55,0,.81a10.77,10.77,0,0,0-2.27,0c0-.95.08-1.93.13-2.93s.07-2,.07-3.09v-1.67A5.08,5.08,0,0,0,409.22,100.42Z"/><path class="cls-5" d="M426,108.61a6.15,6.15,0,0,1-.59.94,4.53,4.53,0,0,1-.92.94,4.83,4.83,0,0,1-1.33.72,5.33,5.33,0,0,1-1.78.27,6,6,0,0,1-2-.36,4.5,4.5,0,0,1-1.77-1.16,6,6,0,0,1-1.26-2.08,8.6,8.6,0,0,1-.48-3,8,8,0,0,1,.52-3,6.8,6.8,0,0,1,1.35-2.15,5.66,5.66,0,0,1,4-1.71,4.22,4.22,0,0,1,4.21,2.74H426V98c0-.7,0-1.39,0-2.09s0-1.38,0-2,0-1.24,0-1.81,0-1.07,0-1.5l.62.09a4.26,4.26,0,0,0,.61,0,3.69,3.69,0,0,0,.58,0l.65-.09c-.06.58-.1,1.42-.14,2.53s-.07,2.32-.1,3.65-.05,2.7-.06,4.1,0,2.69,0,3.85,0,2.39,0,3.4,0,2,0,3.09a9.73,9.73,0,0,0-1.07-.06,9.43,9.43,0,0,0-1,.06l.08-2.6ZM418.25,105a9,9,0,0,0,.34,2.71,5.1,5.1,0,0,0,.87,1.7,2.79,2.79,0,0,0,1.22.89,3.82,3.82,0,0,0,1.34.25,3.16,3.16,0,0,0,1.83-.53,4.29,4.29,0,0,0,1.27-1.4,6.22,6.22,0,0,0,.74-2,10.19,10.19,0,0,0,.23-2.19,6.69,6.69,0,0,0-1-4,3.46,3.46,0,0,0-3-1.38,3.21,3.21,0,0,0-1.71.45,3.64,3.64,0,0,0-1.2,1.26,6.14,6.14,0,0,0-.71,1.89A10.65,10.65,0,0,0,418.25,105Z"/><path class="cls-5" d="M432.71,99.53A7.83,7.83,0,0,1,435,98.27a7,7,0,0,1,2.13-.33,5.5,5.5,0,0,1,1.81.29,3.91,3.91,0,0,1,1.39.82,3.73,3.73,0,0,1,.91,1.29,4,4,0,0,1,.32,1.65c0,1,0,2.07-.05,3.1s-.05,2.12-.05,3.27c0,.22,0,.45,0,.7a2.28,2.28,0,0,0,.12.66,1.13,1.13,0,0,0,.32.47.84.84,0,0,0,.61.2l.29,0a.81.81,0,0,0,.29-.09v.6a3.67,3.67,0,0,1-.76.22,6,6,0,0,1-1,.08,1.72,1.72,0,0,1-1.89-1.62A7.3,7.3,0,0,1,437.5,111a5.35,5.35,0,0,1-2.35.47,5,5,0,0,1-1.34-.19,3.16,3.16,0,0,1-1.17-.63,3.54,3.54,0,0,1-.82-1,3,3,0,0,1-.31-1.41,3.24,3.24,0,0,1,1-2.55,5.63,5.63,0,0,1,2.83-1.2q1.49-.24,2.31-.42a5.9,5.9,0,0,0,1.24-.37.83.83,0,0,0,.47-.45,2.13,2.13,0,0,0,.09-.67,5.19,5.19,0,0,0-.17-1.32,3,3,0,0,0-.52-1.09,2.49,2.49,0,0,0-.93-.75,3.1,3.1,0,0,0-1.39-.29,4.45,4.45,0,0,0-2,.49A3.28,3.28,0,0,0,433,101h-.3Zm6.76,4.87a6.54,6.54,0,0,1-1.08.27l-1.25.23a10.75,10.75,0,0,0-1.24.32,3.85,3.85,0,0,0-1.1.52,2.39,2.39,0,0,0-.76.82,2.43,2.43,0,0,0-.29,1.25,2.49,2.49,0,0,0,.74,2,2.44,2.44,0,0,0,1.64.65,3.37,3.37,0,0,0,1.9-.57,4.35,4.35,0,0,0,1.33-1.34Z"/><path class="cls-5" d="M449.06,94.55q-.07,1-.12,2c0,.67-.06,1.34-.1,2H450c.54,0,1.14,0,1.77-.07a1.7,1.7,0,0,0,0,.3v.57a1.7,1.7,0,0,0,0,.28l-.74,0h-2.16c0,.07,0,.37-.06.88s0,1.11-.07,1.81,0,1.44,0,2.21,0,1.44,0,2,0,1,0,1.5a4.91,4.91,0,0,0,.26,1.33,2.23,2.23,0,0,0,.66.94,1.93,1.93,0,0,0,1.26.36,4,4,0,0,0,.59-.06,4.41,4.41,0,0,0,.64-.14v.66c-.31.06-.65.12-1,.21a5.1,5.1,0,0,1-1.08.12,3.37,3.37,0,0,1-2.54-.85,3.41,3.41,0,0,1-.82-2.49c0-.49,0-1,0-1.6s0-1.2.07-1.88,0-1.44.06-2.27,0-1.76,0-2.78h-1.34l-.52,0c0-.11,0-.22,0-.32a3,3,0,0,0,0-.31,2.64,2.64,0,0,0,0-.28,2.51,2.51,0,0,0,0-.27c.82.05,1.42.08,1.81.08,0-.36,0-.82,0-1.37s0-1.11-.07-1.69l2.27-1Z"/><path class="cls-5" d="M455,93.46a1.38,1.38,0,0,1,.41-1,1.39,1.39,0,0,1,2,0,1.38,1.38,0,0,1,.41,1,1.34,1.34,0,0,1-.41,1,1.39,1.39,0,0,1-2,0A1.34,1.34,0,0,1,455,93.46Zm.38,9.87c0-.82,0-1.68,0-2.58a24.07,24.07,0,0,0-.18-2.53,7.54,7.54,0,0,0,1.24.13,7.44,7.44,0,0,0,1.23-.13c-.1.78-.15,1.62-.18,2.53s0,1.76,0,2.58v2.84c0,.82,0,1.69,0,2.59a24.41,24.41,0,0,0,.18,2.45q-.63-.06-1.23-.06c-.41,0-.82,0-1.24.06a21.77,21.77,0,0,0,.18-2.45c0-.9,0-1.77,0-2.59Z"/><path class="cls-5" d="M461.59,104.75a7.52,7.52,0,0,1,.59-3.16,5.85,5.85,0,0,1,1.54-2.1,6.12,6.12,0,0,1,2.15-1.18,7.78,7.78,0,0,1,4.74,0,6.16,6.16,0,0,1,2.14,1.18,6,6,0,0,1,1.54,2.1,8.76,8.76,0,0,1,0,6.32,5.92,5.92,0,0,1-1.54,2.11,5.74,5.74,0,0,1-2.14,1.13,8.68,8.68,0,0,1-4.74,0,5.7,5.7,0,0,1-2.15-1.13,5.8,5.8,0,0,1-1.54-2.11A7.52,7.52,0,0,1,461.59,104.75Zm2.4,0a11.45,11.45,0,0,0,.21,2.22,6,6,0,0,0,.7,1.9,3.61,3.61,0,0,0,1.31,1.32,4.35,4.35,0,0,0,4.05,0,3.76,3.76,0,0,0,1.31-1.32,6,6,0,0,0,.7-1.9,12.37,12.37,0,0,0,0-4.43,5.89,5.89,0,0,0-.7-1.9,3.79,3.79,0,0,0-1.31-1.33,4.43,4.43,0,0,0-4.05,0,3.63,3.63,0,0,0-1.31,1.33,5.89,5.89,0,0,0-.7,1.9A11.43,11.43,0,0,0,464,104.75Z"/><path class="cls-5" d="M486.5,100.42a2.6,2.6,0,0,0-2.19-1,3.29,3.29,0,0,0-2.8,1.17,5.41,5.41,0,0,0-.89,3.31v2.32c0,.82,0,1.69,0,2.59s.09,1.72.18,2.45q-.63-.06-1.23-.06t-1.23.06c.09-.73.15-1.55.18-2.45s0-1.77,0-2.59v-2.84c0-.82,0-1.68,0-2.58s-.09-1.75-.18-2.53a7.34,7.34,0,0,0,1.23.13,2.9,2.9,0,0,0,.48,0l.61-.09c-.05.73-.08,1.46-.08,2.18h.05a5.76,5.76,0,0,1,1.84-1.81,4.82,4.82,0,0,1,2.54-.65,6,6,0,0,1,1.55.22,3.8,3.8,0,0,1,1.4.75,4,4,0,0,1,1,1.45,6,6,0,0,1,.4,2.34c0,.79,0,1.59-.06,2.42s-.05,1.71-.05,2.64v1.78c0,.29,0,.58,0,.86s0,.55,0,.81a10.52,10.52,0,0,0-1.15-.06,10.37,10.37,0,0,0-1.12.06c0-.95.08-1.93.12-2.93s.07-2,.07-3.09v-1.67A5.08,5.08,0,0,0,486.5,100.42Z"/></svg>