<svg id="Capa_1" data-name="Capa 1" xmlns="http://www.w3.org/2000/svg" viewBox="0 0 512 512"><title>mail</title><path d="M452.5,451H59.5A59.57,59.57,0,0,1,0,391.5v-271A59.57,59.57,0,0,1,59.5,61h393A59.57,59.57,0,0,1,512,120.5v271A59.57,59.57,0,0,1,452.5,451ZM59.5,85A35.55,35.55,0,0,0,24,120.5v271A35.55,35.55,0,0,0,59.5,427h393A35.55,35.55,0,0,0,488,391.5v-271A35.55,35.55,0,0,0,452.5,85Z"/><path d="M256,306.75a12,12,0,0,1-8.06-3.11L63.76,136.82A12,12,0,0,1,79.88,119L256,278.57,432.58,119a12,12,0,0,1,16.09,17.81L264,303.65A11.93,11.93,0,0,1,256,306.75Z"/><path d="M71.82,393.53a12,12,0,0,1-8.06-20.9l140-126.8a12,12,0,0,1,16.11,17.79l-140,126.8A12,12,0,0,1,71.82,393.53Z"/><path d="M440.62,393.53a12,12,0,0,1-8-3.1L292.25,263.63a12,12,0,0,1,16.09-17.81l140.33,126.8a12,12,0,0,1-8.05,20.91Z"/></svg>