<svg id="圖層_2" data-name="圖層 2" xmlns="http://www.w3.org/2000/svg" viewBox="0 0 1025 965"><defs><style>.cls-1{fill:#fee576;}.cls-1,.cls-2{fill-rule:evenodd;}.cls-2{fill:#9ed8f5;}</style></defs><path class="cls-1" d="M766.39,807.73c-44.3-23.2-66.21,37.43-27.16,85.53,21.44,26.42,43.8,11.74,61.93,5.93,17.59-5.64,35.59-3,41.49,1.18-3.89-7.31-8.33-34.15-8.14-59,.19-27.13,7.14-61.08-14.52-87.13C780.45,706.73,743.93,751.09,766.39,807.73Z"/><path class="cls-1" d="M971.3,887.58c-27.59-30.41-55.4-11.15-36.51,28.81,10.38,22,29.48,24.74,43.79,29.91,13.87,5,26.41,14.14,29.87,18.7-1.38-5.18.67-19.88,5.68-31.61,5.47-12.82,17.18-25.93,6.58-47.8C1001.35,845.68,966.13,850.81,971.3,887.58Z"/><path class="cls-1" d="M108.42,606C64.84,583.15,43.28,642.8,81.7,690.14c21.09,26,43.09,11.55,60.93,5.83,17.31-5.55,35-2.93,40.82,1.16-3.82-7.19-8.19-33.6-8-58,.2-26.7,7-60.1-14.28-85.73C122.26,506.61,86.32,550.25,108.42,606Z"/><path class="cls-1" d="M437,739.13c-26.73-43.24-75.3-7.66-65.29,52.29,5.49,32.94,31.92,33.91,50.37,39.52,17.9,5.44,32.08,17.67,35.11,24.27.24-8,9.58-31.66,21.9-51.16,13.48-21.32,36.1-44.24,30.23-77C498.64,667.26,445.47,681.76,437,739.13Z"/><path class="cls-2" d="M225.34,3.63c-.05.67,0,1.36-.06,2,2.8,1.85,4.5,5.36,2.46,9.1-1.54,3.24-3.11,6.47-4.66,9.71a30.12,30.12,0,0,1-2.71,5.69C215.55,38,204,31.35,208,23.14c1.37-2.76,2.73-5.52,4.08-8.31a115.07,115.07,0,0,1,6.2-13c1.82-3,7.19-2,7,1.84"/><path class="cls-2" d="M182.62,56.47a7.24,7.24,0,0,1-2.51,9.88,1.83,1.83,0,0,1-.45.32,39.33,39.33,0,0,1-3.35,3.45,42.94,42.94,0,0,1-8.71,6.61c-7.21,3.92-14.89-5.25-9-11.35a89,89,0,0,1,8.18-7.53c2.06-2.24,4.47-4.14,7.62-4.6s6.36.17,8.19,3.22"/><path class="cls-2" d="M214.92,82.58c.94,1.08,2,2.3,3,3.57a6.43,6.43,0,0,1,6.48,6.55l.17,12.72c.1,8.86-13.48,9-13.8.16a110.8,110.8,0,0,0-2-19.36c-.67-3.3,3.48-6.63,6.11-3.64"/><path class="cls-2" d="M217.12,159.19a14.2,14.2,0,0,1,1.74,3.78,6.78,6.78,0,0,1,4,6.09.23.23,0,0,1,.12,0,27.83,27.83,0,0,1-.74,5.73,34.69,34.69,0,0,1-2.06,9.44,3.78,3.78,0,0,1-2.06,1.95l-.89,1.88c-3.14,6.68-13.61,3.48-13.59-3.55,0-8,.94-18.53,5.63-25.19,2-2.83,5.79-3.1,7.82-.11"/><path class="cls-2" d="M185.08,247.6c-.22.54-.49,1-.75,1.56,0,.05.07,0,.1,0-.2.37-.42.74-.65,1.1a46.57,46.57,0,0,1-5.11,8.6c-3.7,6.18-7.59,12.24-12.54,17.56-5.43,5.89-15.54-1.6-11.19-8.44,4-6.36,8.34-14.48,14.22-19.87,1.17-1.88,2.33-3.74,3.58-5.58,4-5.93,15.37-2.49,12.34,5"/><path class="cls-2" d="M120.62,318.65a4.29,4.29,0,0,1,4.55,4.62,8,8,0,0,1,.3,4,9.18,9.18,0,0,1-2.34,4.63,5.37,5.37,0,0,1-1,.92c-.18.18-.28.25-.41.37a6.1,6.1,0,0,1-3.26,3.14,35.35,35.35,0,0,1-13.14,9c-7,2.65-12-7.12-7.17-12,5-5.13,10.15-10.56,16.54-14a7.27,7.27,0,0,1,5.91-.58"/><path class="cls-2" d="M56.55,376.22a4.85,4.85,0,0,1,.8,5.95c-.19.33-.4.62-.62.94,0,0,0,.11-.06.16C53.29,389.7,48,395,43,400.14c-3.8,3.9-8.86,2.05-11.15-1.46-3.9-.78-7.17-5.31-4.5-9.14C32,383,39.57,380.11,45.17,374.61c3.91-3.79,9.2-2.07,11.38,1.61"/><path class="cls-2" d="M20.84,431.71c-2,13.91-5.65,28.46-5.9,42.53-.06,8.69-13.37,8.87-13.49.14,0-.61,0-1.23,0-1.87-2.18-7.58-1.66-15.16.07-22.81a5.88,5.88,0,0,1,5.56-4.78,86.65,86.65,0,0,1,8.19-15.48c2-3,6.09-1.12,5.58,2.27"/><path class="cls-2" d="M18.43,536.75c.06,1.89.06,3.79.07,5.66,1.25,3.92,1.77,8,3,11.85,1.73,5.53-5.77,8.24-8.86,3.87-.19-.31-.38-.62-.57-.9h-.31c-3.46.07-6.93-2.12-6.95-6.57s-.25-9.16-.23-13.72c.07-9,13.63-9.11,13.88-.19"/><path class="cls-2" d="M48.94,601.22c3.13,4.69,6.54,10.33,7.76,15.86s-6.13,11.57-10.5,6.3c-.34-.44-.61-.9-.93-1.37l-.09.09c-.08-.23-.21-.43-.31-.66a27.53,27.53,0,0,1-3.18-6.29c-1-1.93-1.95-3.89-3.1-5.77-2.52-4.08-5.84-9.22-4.33-14.18a3.49,3.49,0,0,1,3.32-2.61c5.13.44,8.64,4.59,11.36,8.63"/><path class="cls-2" d="M94.28,667.91c3,3.55,6.08,7,9.22,10.46.76.64,1.48,1.3,2.2,2,2,1.85,3.78,4.42,3.22,6.42,0,4.57-5,8.82-9.93,6-5.86-3.24-9.87-8.75-14.13-13.73a7,7,0,0,1-1.49-3c-3.41-3.72-7.15-7.51-6-12.89A4.34,4.34,0,0,1,80.43,660c6.28-1.34,10.1,3.58,13.85,7.93"/><path class="cls-2" d="M145,705.37a13.08,13.08,0,0,1,3.64,1c9.72,2.88,19.73,6.54,27.33,13.24,2.39,2.11-.13,5.31-2.77,4.9-5.19-.83-10.36-1.81-15.55-2.85a7,7,0,0,1-7.43,1c-.7-.35-1.45-.82-2.18-1.25-1.3-.19-2.59-.43-3.84-.72a5.88,5.88,0,0,1-3.81-2.63c-7.17-2.58-3.34-13.71,4.61-12.72"/><path class="cls-2" d="M226.36,715.24c1.75.28,3.57.57,5.42.72a8.78,8.78,0,0,1,1.37-.21,7,7,0,0,1,2.33.29,16.23,16.23,0,0,0,3.72-.6c3.48-1,5.27,3.69,2.43,5.62-.36.23-.7.41-1.06.66a3.65,3.65,0,0,1-.31.81,10.12,10.12,0,0,1-1.11,1.49c-.55,3.45-2.79,6.27-6.6,6.35-2.55,0-5.09.13-7.64,0-3.3-.15-7.18-2.82-6.78-6.62.07-.49.14-1,.17-1.54a6.3,6.3,0,0,1,.69-2.81c.7-3.33,4.41-4.64,7.37-4.15"/><path class="cls-2" d="M298.28,693.62a5.45,5.45,0,0,1,2.92.73c.44-.08.84-.2,1.28-.25,3.59-.59,6.09,3.95,2.64,6.09a2,2,0,0,1-.49.34,5.44,5.44,0,0,1-1.76,3.81c-3,2.7-6.81,4.13-10.47,5.73-.43.16-.88.39-1.32.59a29.47,29.47,0,0,1-6.14,3.19,5.69,5.69,0,0,1-3.54.12,9.88,9.88,0,0,1-1.71-.15,4.92,4.92,0,0,1-3.5-6,6.53,6.53,0,0,1,.93-1.91,5.8,5.8,0,0,1,1.51-2.63c5.52-5.39,11.76-9.28,19.65-9.67"/><path class="cls-2" d="M364.65,643.18c-.93,15-12.49,26.93-25.12,33.85a6.29,6.29,0,0,1-3.39.84,25,25,0,0,1-3.49,1.47c-5,1.62-9.59-5.38-5.41-9.05,4.87-4.31,10.06-8.77,15.67-12.11a10.75,10.75,0,0,1,1.4-.65c.74-.65,1.49-1.31,2.21-2,4.32-4.17,9.06-8.56,11.86-14,1.5-2.86,6.48-1.73,6.27,1.63"/><path class="cls-2" d="M368.61,577.8c5.53,9.77,3.4,24,3.38,34.77.09,3.87-2.89,5.81-5.89,5.8s-6-1.81-6-5.69c-.27-10.76-2.73-24.93,2.56-34.82a3.48,3.48,0,0,1,6-.06"/><path class="cls-2" d="M319.51,538.9a6.33,6.33,0,0,1,6.95,1c2.35,1.89,5.33,3,7.77,4.94,3.18,2.56,2.29,6.93-.24,9.36-.06.24-.06.5-.12.74a1.67,1.67,0,0,1-2,1.21,4.69,4.69,0,0,0-.68-.33,5.36,5.36,0,0,1-3.14-.09c-7.87-2.4-20-4-24.58-11.69-1.34-2.29,0-4.6,2.18-5.54,4.13-1.79,9.05-1,13.87.42"/><path class="cls-2" d="M283.44,553.81c1.12,4-.43,7.16-2.55,10.61-2.61,4.34-5.11,4.36-9.55,5.57-3.1.85-5.16,3.87-6.7,6.43-1.74,3-3.4,5.84-5.25,8.73a3.6,3.6,0,0,1-6.16.05c-4.25-7.48-1.87-14.18,3.12-20.65a22.73,22.73,0,0,1,8.28-6.34,22,22,0,0,1,5.87-1.78c2.17-.32,2.87-1.71,4.23-3.66,2.29-3.18,7.5-3.22,8.71,1"/><path class="cls-2" d="M255.15,616.48c.14,1.13.19,2.26.31,3.4.45,3.26,1.25,6.74.45,9.63.07,5,.05,10,.09,14.91.14,7.48-11.15,9.3-13,1.94-2.17-8.53-5-21-.08-29.06,0-.21,0-.45,0-.68.76-7.64,12.32-8.19,12.21-.14"/><path class="cls-2" d="M250,672.2c.39.49.76,1,1.16,1.46a4.15,4.15,0,0,0,.23.47l.68.66c1.44,1.39,2.34,3.72,3.13,5.5a45.5,45.5,0,0,1,2.66,7.23,5.62,5.62,0,0,1,.73,3c.2,1.59.4,3.17.49,4.8.46,8.49-12.75,8.58-13.13.15-.38-7.45-6.68-15.05-2.26-22.36,1.2-2,4.62-3,6.31-.88"/><path class="cls-2" d="M284.69,749.76c6.13.82,9.78,5.82,12.69,11a17,17,0,0,1,2.19,3.61c3.81,4.66,7.44,10.26,2.41,12.91a3,3,0,0,1-3.43-.42c-.79-.69-1.53-1.43-2.28-2.18a5.61,5.61,0,0,1-7.88-2.64c-1.06-2-2.27-4-3.47-6-.22-.18-.38-.36-.5-.45a6.36,6.36,0,0,1-1.86-3.8,23.41,23.41,0,0,1-2.75-8.27c-.32-2.77,2.65-4.11,4.88-3.82"/><path class="cls-2" d="M330.8,793a25,25,0,0,1,6.75,6.4c1,.37,1.89.72,2.68,1.08,3.57,1.63,7.22,3.21,10.1,5.85,2.34,2.16.28,5.76-2.36,5.82,0,0,0,0,0,0-3.57.38-6.93-.53-10.43-1.18-1.93-.35-3.8-.87-5.69-1.4-1.28-.35-3-1.32-4.28-1.46-3.58-.37-6.93-2.68-6.85-6.7,0-.85,0-1.71,0-2.53.09-4.9,5.54-8.67,10-5.91"/><path class="cls-2" d="M404.74,820.23a34.52,34.52,0,0,1,26.36,5.29,3.1,3.1,0,0,1,.07,5.26c-5.14,3.22-11,2-16.63,1.82a6.36,6.36,0,0,1-5.2,2.51c-2.57,0-5.12.1-7.62.14a6.29,6.29,0,0,1-5.31-2.62c-1.63,0-3.31-.11-4.91-.21-8,1.08-8.31-11.84-.15-12.69a47.2,47.2,0,0,1,13.39.5"/><path class="cls-2" d="M487.92,814.82a26.48,26.48,0,0,1,7.68-.64c2.22.21,3.91,2.36,2.68,4.55-4.09,7.09-12.68,9.38-20.34,9.69a5,5,0,0,1-3-.75c-5.78.73-11.68.64-16.77-1.64-3.06-1.39-2.22-4.87,0-6.37l-.12-.2c6.94-3.33,15-2.18,22.41-4.11a21.65,21.65,0,0,1,3.33-1.1,5.77,5.77,0,0,1,4.09.57"/><path class="cls-2" d="M559.35,793.5c-.75.53-1.5,1-2.31,1.51-.06.11-.1.22-.16.33-3.11,4.35-7.84,6.55-12.51,8.9a6.28,6.28,0,0,1-5.63,3.64c-.82,0-1.65,0-2.51,0-7.37.12-8.38-9.6-2.38-12.39,3.31-6.22,11.24-7.71,17.84-11.07.55-.32,1.11-.62,1.65-.92,6.65-3.74,12.08,5.69,6,10"/><path class="cls-2" d="M608.78,753.92c1.39-.58,2.76-1.14,4.12-1.78,3-1.45,6.62,2.34,3.8,4.8A87,87,0,0,1,605,765.39c-4.07,4.19-8.9,8-14.36,9.72-6.22,1.87-7.05-4.78-4.81-8.17a.26.26,0,0,0-.13-.08,5.37,5.37,0,0,0,.44-.37,6,6,0,0,1,.9-.85c.66-.6,1.31-1.19,1.94-1.79a5.62,5.62,0,0,1,1.43-2.48,56.77,56.77,0,0,1,11-8.94,5.27,5.27,0,0,1,7.45,1.49"/><path class="cls-2" d="M660.79,719.87a1.5,1.5,0,0,1,.57.75,13.92,13.92,0,0,1,1.82.35c2.83.83,2.56,4.44.07,5.44s-5,2.1-7.38,3.26a21.13,21.13,0,0,1-10.34,5.1c-2.2,1.07-4.39,2.08-6.63,3-6,2.56-10.91-6.49-6.39-10.68,5.68-5.22,12.38-7.75,19.14-11.14a6.44,6.44,0,0,1,9.14,3.9"/><path class="cls-2" d="M709,705.49A101.86,101.86,0,0,1,725,709.62c6,2.08,5.53,11.7-1.45,11.62-4.35-.08-10.23,1-13.46-2.48a5.75,5.75,0,0,1-.42-.63c-5.11-1-10.84-.25-15.68-2.06-5.28-2-5.64-9-.12-11,4.79-1.72,10.29-.4,15.2.37"/><path class="cls-2" d="M770.64,722.7a41.63,41.63,0,0,1,6.2,2.9,22.07,22.07,0,0,1,8.52,8.57A6.66,6.66,0,0,1,775,742.34c-2.86-2.52-6.31-2.94-8.41-6.54a4,4,0,0,0-.17-.37c-2.17-.93-4.18-1.92-5.31-4.16-.06-.09-.14-.17-.2-.26-2.19-2.61-1.78-7,2-8,2.54-.67,4.74-1.45,7.66-.3"/><path class="cls-2" d="M809.05,766.46c.59.14,1.15.37,1.75.57a7,7,0,0,1,6.91,1.13c5,3.88,8.62,9.67,11.59,15.18,2.32,4.29,5.55,10.31,4.2,15.32a2.34,2.34,0,0,1-3.42,1.42,23.06,23.06,0,0,1-5.25-5.86,6.68,6.68,0,0,1-7-2.82c-4.35-6.14-11.74-12.53-13.59-20a4,4,0,0,1,4.85-5"/><path class="cls-2" d="M854.62,825.26l.13-.09c1,2.1,2,4.24,2.88,6.39.09.23.2.44.29.63a109.74,109.74,0,0,0,5.82,12.51c.61,1,1.21,2,1.86,3,4.88,7.18-6.67,14-11.48,6.89-.62-.94-1.21-1.91-1.82-2.88a67.36,67.36,0,0,1-4.46-8.28c-1.59-3.5-2.59-7-4.58-10.29a4,4,0,0,1,0-4.3c-.38-6.5,7.8-8.75,11.33-3.6"/><path class="cls-2" d="M874.53,873.53c5.05,2.19,9.23,6,13.18,10.12,3.82,1.38,7.34,3.83,11.07,5.39,5.41,2.28,2.51,10-2.2,10.66-2,3.38-6.76,5.26-10.32,1.66-7.06-7-16-14.39-16.72-24.87-.19-2.77,2.83-3.93,5-3"/></svg>