<svg id="圖層_2" data-name="圖層 2" xmlns="http://www.w3.org/2000/svg" viewBox="0 0 1025 594"><defs><style>.cls-1{fill:#9dd6f4;}</style></defs><g id="_2vrk1q" data-name="2vrk1q"><path class="cls-1" d="M1019.75,1.31c-6.18-3.14-18.78.17-23.56,5.25-3.84,4.08-2.36,10.56,2.89,11.62,2.79.56,5.8.1,8.71.1,3.5,0,7.18.69,10.44-.18,3.89-1.05,6.42-3.76,6.75-8.58C1025.28,5,1022.39,2.64,1019.75,1.31Z"/><path class="cls-1" d="M751.07,47.48c-.56-8.28-6-5-9.69-3.43-2,.84-3.52,2.33-6,2.3-6.83-.06-9.49,5.37-12.22,10.21-1.74,3.09.72,7,4.09,7.2,1.74.12,3.49,0,6,0,5.16,1.74,9.91-1.89,15.19-3.39,4.37-1.24,1.9-5.88,5-8.07C756,50.5,751.22,49.58,751.07,47.48Z"/><path class="cls-1" d="M950.41,7.44C941.75.59,934.66,6,927.34,9c-2.25.94-5.45,3.48-4.14,6.72,1.22,3,3.34,6,7.4,6.06,2.32,0,4.65,0,7,0,3.5,0,7.17.68,10.44-.18,3.9-1,6.78-3.67,6.7-8.56C954.66,9.65,952.69,9.25,950.41,7.44Z"/><path class="cls-1" d="M872.18,14.77c-2.33,0-5.61-1-6.81.19-3.21,3.1-7.58,5.3-9,10.08-1.05,3.47.86,7,4.31,7.22,1.74.11,3.49,0,5.24,0a56,56,0,0,0,7-.05c7.28-.92,15.39-6.91,15.09-10.94C887.63,16.84,882.16,14.6,872.18,14.77Z"/><path class="cls-1" d="M680.5,74.16c-8.54-1.91-12.15,4.62-17.31,8.9-3.11,2.59-3.81,5.57-3.28,9.09.86,5.79,5.57,2,8.21,3.12,6.81,1.39,11.53-3.1,16.81-5.8,3.82-2,3.76-6,2.8-9.08A9.25,9.25,0,0,0,680.5,74.16Z"/><path class="cls-1" d="M391.36,304.91c7.25.45,14.34.48,21.2,3.76,4,1.93,6.35-2.32,8.19-4.87,2.09-2.88-1.08-4.85-2.74-7.1a13.21,13.21,0,0,0-13.94-5.39c-4.78,0-8.29-.3-11.73.08-4.44.5-2.39,5.48-4.9,8C385.13,301.67,390.22,304.84,391.36,304.91Z"/><path class="cls-1" d="M810.36,25.33C804,26.46,797.57,28,792.15,31.7,787.39,35,790,40.26,790,44.53c0,2.3,3.73,1.69,5.95,1.74,8,.42,13.6-4,18.82-9.2,2-2,4.6-4.17,2.27-7.08C815.38,27.93,813.84,24.72,810.36,25.33Z"/><path class="cls-1" d="M629.89,116.5c-3.43-2.5-4.59-10.82-11.91-5.76a27.17,27.17,0,0,1-7.13,3.6c-5.33,1.7-8.67,4.42-7.12,10.36,0,1.38,0,2.53,0,3.68.24,5.88.47,5.67,7,3.8s12.72-4,16.6-9.86C628.51,120.56,633.9,119.42,629.89,116.5Z"/><path class="cls-1" d="M497.36,213.41c6.05,1.3,7.34.17,8.39-1.16,4.09-5.17,8.42-10.19,12-15.67,2.38-3.6-2-6.29-3.07-9.32-.81-2.25-5.61-1.75-7.66-.46-3.31,2.08-5.54,5.82-8.71,8.22-5.2,3.92-3.44,9.28-3.13,14.07C495.38,211.68,497.75,214.13,497.36,213.41Z"/><path class="cls-1" d="M318.73,322.77c2.29.25,4.64.05,7.81.05,9,2.39,15.38-5.75,23.67-8.12.55-.16,1.05-3.67.34-4.39-1.91-1.9-3.06-4.77-6.55-5.07-8.36-.73-24.9,5.78-27.89,12.38C315.24,319.54,315.48,322.41,318.73,322.77Z"/><path class="cls-1" d="M559.75,148.2c-5.44,3-12.15,5-13.67,13-.47,2.47-3.28,4.33-.7,7.22,2.39,2.67,4.84,4.78,8.81,3.92,5.33-1.17,14-11.3,14.45-17C569.14,148.51,565.36,145.09,559.75,148.2Z"/><path class="cls-1" d="M439.25,343.8c-5.95.2-3.42,4.69-3.92,7.6a36.64,36.64,0,0,0,0,4.91,24.59,24.59,0,0,0,6.58,20.36c2.06,2.17,2.4,2,4.16-.92,4.8-8,3.16-16.55,3.16-24.92C449.19,346.5,444.33,343.63,439.25,343.8Z"/><path class="cls-1" d="M488.69,413c-8.79-1.64-11.52-11.81-20.25-13.75-2.31-.51-3.61-3.51-6.25-.19-1.92,2.41-3.07,3.91-1.28,7.26,4,7.52,14.44,14.51,23.09,14.48h1.72c2.2,0,4.78.56,5.66-2.22C492.17,416.12,490.74,413.42,488.69,413Z"/><path class="cls-1" d="M504.75,315.61c-4-1.06-7.34-4.41-11.18-6.32-4.18-2.1-6.09,1.72-8.26,4-1.76,1.87-.83,3.79.62,5.9,5,7.3,13.94,8.41,20.57,13.15,3.69,2.64,5.87.85,6-4C513.1,322.2,512,317.54,504.75,315.61Z"/><path class="cls-1" d="M468.49,273.81c4.78-3.16,10.54-19.48,8.86-25.43a4.64,4.64,0,0,0-1.89-2.52c-2.73-1.62-9.95,1.9-12.23,4.21-4.22,4.26-3.21,9.22-3.37,14.14,0,1.72-.08,3.45,0,5.16C460.07,272.66,465.81,275.58,468.49,273.81Z"/><path class="cls-1" d="M540.31,349.13c-.71-3.16-5.08-1.94-7.74-1.68-3.07.29-2.62,3.11-2.39,7.67,1.27,5.19,2.84,12.67,5.11,19.94a5.65,5.65,0,0,0,5.25,3.86c2.94,0,3.8-2.38,5.43-3.81,3.08-2.73,1.9-6.63,1.43-9.74C546.51,359.5,541.65,355.17,540.31,349.13Z"/><path class="cls-1" d="M447.5,294.94c-.62.62-2.62,1.89-3.62,3.7-2.31,4.2-4.11,8.67-6.17,13-2.17,4.56-1.31,9.73,2.53,10.63s7.32,2,10.12-4.64c2-4.76.38-11.22,5.78-15.11C457.86,301.3,452.11,294.59,447.5,294.94Z"/><path class="cls-1" d="M535.24,393c-2-.76-5.41-1.12-6.81,0a84.34,84.34,0,0,0-12.26,12.37c-1.14,1.41-.57,4.67,2.77,4.93,1.75.13,3.51,0,5.26,0,8.74,0,11-1.81,12.78-11.25C537.39,396.94,537.81,393.94,535.24,393Z"/><path class="cls-1" d="M186.16,315.82a2.67,2.67,0,0,0-3.44,2.74q-.19,18.26,0,36.52a2.67,2.67,0,0,0,3.44,2.74h3.51c2.43.09,3.6-1.07,3.51-3.5v-10.5c5-5.71,5-11.79,0-17.5v-49c-.42-2.1,1.1-4.64-1.13-6.31-1.58-1.19-2.44-4.37-4.72-3.37-2.44,1.08-.75,4.08-1.17,6.18Z"/><path class="cls-1" d="M170.27,308.8c3.82-12.17,1.13-24.64,1.51-37,0-.48-1.7-1.22-2.7-1.47-1.88-.48-3.82.52-3.86,2.17-.24,8.59-.11,17.19-.11,25.79,1.83,7-4.26,12.42-3.66,19.38.65,7.46.15,15,.15,22.54v13.88c0,5.1.8,10.27-4.67,13.75-4.22,2.67-1.93,7.33-2.3,11.12-.34,3.38,2.25,3.43,4.58,3.32,6.5-.31,9.31-3.37,9.36-11,.13-20.82.05-41.64.05-62.46C169.19,308.82,170.22,309,170.27,308.8Z"/><path class="cls-1" d="M144.05,392.83v-7c-.27-4.38-4.13-4.67-5.62-2.71a10.4,10.4,0,0,0,0,12.41C139.92,397.49,143.78,397.2,144.05,392.83Z"/><path class="cls-1" d="M133.58,411.26c.27,1.72,1.41,3,3.38,2.58,3-.29,4.45-3.31,3.53-7.76-.2-1-1.08-1.8-1.65-2.7C136.88,405.88,132.92,407.14,133.58,411.26Z"/><path class="cls-1" d="M151.72,390.57c-.21.47.75,2.11,1.23,2.14,1.56.1,3.45.85,4.63-1.19-.43-.69-.86-2-1.37-2.08C154.65,389.33,152.63,388.56,151.72,390.57Z"/><path class="cls-1" d="M351.08,410.24c-2.22,0-3.2,1-3.47,2.87-.4,2.72,1,6-2,7.9-6.08,3.78-5.08,9.73-5,12.43,0,4.75.15,6.52,0,8.25a3,3,0,0,0,2.68,3.61c1.78.37,3.85-.12,4.29-1.88,2.47-10.08,8.93-19.26,7.08-30.31C354.26,411.27,353.3,410.24,351.08,410.24Z"/><path class="cls-1" d="M156.28,498c-1.89,2-4.56,3.27-5.27,6.38-.83,3.67,1.86,9.85,6,10.78,5.62,1.26,4.68-3.37,4.51-6.57-.15-2.84,2.23-3.71,3.49-5.48a8.61,8.61,0,0,1-3.42-8.8C158.7,493.92,157.74,496.51,156.28,498Z"/><path class="cls-1" d="M223.63,460.12c-2.21-.65-2.27,1-2.42,2.69-.35,3.75-5.2,6.06-3.47,10.53q-3.65-.13-3.51,3.5v3.5c-.4,2.13.91,3.24,2.66,3.43,2.36.27,4.61-.14,4.36-3.43,0-1.71-.7-4.39.11-5,4.66-3.35,3.29-8,3.34-12.4C224.72,462,224.23,460.3,223.63,460.12Z"/><path class="cls-1" d="M294.94,420.83q-8.61-1.59-7,7c-.7,8.23,2,16.8-3.31,24.63-1.34,2-.37,5.64-.08,8.5.07.7,1.55,1.57,2.52,1.81,1.73.43,4.33-.28,4.21-1.75-.81-10.18,6.35-19.34,3.68-29.69Z"/><path class="cls-1" d="M164.77,481.94c.37-1.4-2.19-1.19-3.23.24-1.23,1.67-3.87,2.41-3.45,5.16q-.14,3.63,3.51,3.5v3.5C169.11,492,163.68,486.06,164.77,481.94Z"/><path class="cls-1" d="M265.63,462.5c-1.09.86-1.54,2.53-2.27,3.84.38,1,.61,2.64,1.18,2.77,2.1.48,2.45-1.07,2.33-2.77,4.08-.06,4.4-3.26,3.08-5.39C268,457.72,266.82,461.56,265.63,462.5Z"/><path class="cls-1" d="M272.66,449.47a9.07,9.07,0,0,0-4.57,0c-1.69.46-1.69,1.73,0,2.25a16.44,16.44,0,0,0,4,.38C274.28,451,274.35,449.93,272.66,449.47Z"/><path class="cls-1" d="M386.1,424.32c-1.14.05-2.29,0-3.44,0h-3.51v3.5h3.51a20.76,20.76,0,0,0,3.44,0c1-.18,2.71-.56,2.84-1.13C389.43,424.51,387.81,424.25,386.1,424.32Z"/><path class="cls-1" d="M414.24,417.33h0c-.53-2.65,1.74-6.7-3.51-7h-3.51q.13-3.63-3.5-3.5h0q-3.64.14-3.51-3.5t-3.51-3.5c-2.74-6.68-8.5-11-13.71-15.12-19.55-15.59-39.66-30.48-59.51-45.7-8.81-6.76-11.89-7-21.55-.28-2.72,1.9-6,2.15-8.72,4.59-2.1,1.92-5,.5-5.37-3.62-1.21-14.26-6.53-26.45-17.47-36.36-8.71-7.91-17.28-15.35-27.85-21.21-13.91-7.72-26-18.61-39.16-27.8-8.44-5.91-17.93-10.4-24.22-19-8.72,7.37-9.35,10.2-.81,13.61,8,3.19,12,10.12,18.14,14.82,12.74,9.72,26.33,18,39.57,26.83,2.57,1.72,6,3.73,6.26,7.75h3.51c3.73.5,6.06,5.21,10.53,3.5,2.43-.09,3.6,1.07,3.51,3.5,2.43-.09,3.6,1.07,3.51,3.5v3.5c-.3,5.23-4.36,3-7,3.5v-3.5q-3.64.14-3.51-3.5-3.65.14-3.51-3.5c-2.66-.53-6.72,1.73-7-3.5h0c-2.43-1.17-4.75-2.88-7.32-3.39-5.44-1.1-8.28,1.51-6.54,6.36s3.81,9,3.47,14.33c-.24,3.83,3.05,6.38,6.27,7,4.57.89,4.52,1.91,1.42,4.69-2.6,2.34-4.84,5.07-7.5,7.34-2.5,2.14-4.1,6.66-8.08,5.5-5.72-1.68-2.9-7.07-2.5-10.34.75-6.08-5.52-9.69-4-16.11,1.27-5.53-.31-11.65.44-17.38.6-4.57-5.63-6.09-3.77-10.83.59-1.52.23-4.16-1.55-4.32-1.58-.14-1.91,2.19-1.9,3.94.05,8.15-.64,16.37.2,24.43.94,9-2.55,17.6-.54,26.89,2.07,9.56.68,18.9-9,26-6.7,4.91-10.76,13.26-19.24,16.42-7.24,12.39-21.72,17.3-29.35,30.36a69.92,69.92,0,0,1-27.26,25.76,22.64,22.64,0,0,0-7.61,6.83c-11.44,16.25-25.06,30.6-38.15,45.48-7.09,8.06-14.1,16.25-21.16,24.37-3.47,4-2.63,11.25-9.32,13.24,1.23,6.54-6.3,3.08-8,6.84-.59,1.3-2.48,6.49-5.67,2.76-1.2-1.4-2-6.54.88-7.81,7.8-3.42,4.1-12.45,9.58-17.31,4.87-4.32,3.79-12.53,7-17.86,7-11.62,13-23.74,19.08-35.83,4.38-8.74,9.07-17.54,8.72-27.83h0c2.21.4,2.87-1,3.54-2.74,3.7-9.52,7.15-19.88,12.49-27.79,6.91-10.26,11-21.57,14.93-32.36,8.09-22.27,16.79-44.25,26.56-65.79,1.82-4,1.61-7.54,2.13-11.34,5.41.36,3.92-4.95,5.06-7.25,5.64-11.42,13.35-22,16-34.75,5.25-.3,3-4.35,3.51-7v-3.5q3.63.13,3.51-3.5c-.09-2.43,1.08-3.59,3.5-3.5v-3.5c-.38-1-.6-2.65-1.18-2.78-2.1-.48-2.45,1.07-2.32,2.78h-3.51c-2.43-.09-3.6,1.07-3.51,3.5l-3.51,7c-1,.38-2.65.6-2.78,1.18-.48,2.09,1.07,2.44,2.78,2.32-.47,2.15,1.25,4.86-1.27,6.43-2.07,1.28-5,.07-6.09,4.27s-1.95,9.57-4.1,12c-2.53,2.85-6.3,4.65-8,8.86-2.47,6-5.67,11.64-8.56,17.44-2.48,6.56-4.89,13.14-7.45,19.66-5.9,15-12.52,29.78-17.76,45.15-3.23,9.48-2.72,21.46-13.18,27.75,2,5.58-4.87,9.27-3.43,14.11.87,2.93,5.51,3.79-1.46,5.81-6.4,1.86-10.72,10.54-7.86,15.74,2.73,5-3,5.48-1.5,8.3-3.76.65-5.58,3.37-7,6.52-4.67,10.26-9.08,20.65-14.11,30.73-4.81,9.64-11.32,18.39-15.09,28.6-3,8.05-7.62,15.77-9,24.05-1.21,7.28-2.63,13.71-6.71,20a76.41,76.41,0,0,0-7.07,14.42c-2,5.28-3.18,8.76-8.26,12.78A27,27,0,0,0,.25,589.62c.61,4.42,4.46,2.22,7,2.74q3.51,3.1,7,0c2.92,0,6.57,1.13,8.62-.19,10.6-6.86,23.23-6.24,34.7-8.95,12.29-2.89,25.52-4,38.35-4.6,17.36-.83,34.15-3,49.88-10.73,5.69,2.55,9-3.94,14.28-3.64,7,.39,15.41,2.47,20.59-.59,7-4.14,13.43-2.44,19.94-2.54,6.9-.11,13.07-2.87,19.56-3.51,11.77-1.16,23.58-1.82,35.34-3a309.8,309.8,0,0,0,47.65-8.13c10.89-2.85,22.19-4.25,32.79-9.51,5.72-2.83,5.65-7.15,4.33-8.67-5.92-6.78-2.7-14.4-3-21.51-.34-7.88-5.94-14.71-3.81-23,.69-2.73-.88-6.32.33-8.58,1.95-3.61,6.32-1.92,9.53-1.71,3.49.23,4.57-2.9,7.27-3.78,14.92-4.85,29.48-10.63,44.89-14.17,9.85-2.27,19.23-7,28.46-11.35,4.55-2.16,5.35-6.74,3.79-11.78C425.48,425.24,419.56,421.61,414.24,417.33Zm-3.51-.15-.16.15h0c.06,0,.11-.1.17-.15ZM218,366.69c0-1.61,2.8-3.52,4.62-4.92,15.62-12.08,28.65-27.21,45.21-38.21,5-3.29,6.41-2.57,9.71,1.35,5.08,6,.82,14.31,5.94,20.4.89,1.06-2.33,6.79-4.79,9.2-5.58,5.48-10.69,11.22-17.94,15.32-8.14,4.6-16.33,10.19-22.26,18-3.92,5.18-10.38,5.77-13.91,8.37-4.07.18-6.65.48-6.8-2.83-.23-5,0-9.73-3.34-14.37C211.26,374.62,218.14,371.44,218,366.69ZM200.25,394.8c.35-.72,1.31-1.14,2-1.69.4.41,1.15,1,1.08,1.11a4.75,4.75,0,0,1-1.59,2c-.72.35-1.25.35-1.53.09v0h0C199.9,396.06,199.9,395.52,200.25,394.8Zm-18.29,4c1.24-1.07,2-3,4.2-2.46-.1-1.7.19-3.31,2.36-2.74.59.15.93,1.81,1.11,2.83a21.53,21.53,0,0,1,0,3.41v3.5c-2.53,6.51-5.3,3.1-8.46.42C178.37,401.36,180.36,400.19,182,398.79Zm7.28,23.46c-.66,2.78-3.05,1.81-5,2.14-1.67.28-2.5-.28-1.54-1.62.79-1.09,2.45-1.57,3.5-2.19C187.59,421.31,189.3,422,189.24,422.25Zm-13.61,5.58q-.13-3.63,3.51-3.5h3.51c.09,2.43-1.08,3.59-3.51,3.5.09,2.43-1.08,3.59-3.51,3.5Zm-24.45,21.5c1.72-7.37,2.95-15,5.91-21.89,2.3-5.36,5.06-4.78,9.66.17,1.45,1.55,2.45,3.92,5.4,3.84,1.07,0,3.73-1.78,3.52,1.51-2.1,6.31-15.4,17-21.76,18.52C151,452.18,150.93,450.38,151.18,449.33Zm-84.32,73a18.93,18.93,0,0,1,10.52-10.5,8.61,8.61,0,0,1,7-7l10.53-14c2.07-5.62,7.41-8.43,11-12.73,6.13-7.26,14.76-12.31,18.51-21.76,1.25-3.16,4.65-4.2,8.6-4.2,5.58,0,2.77,5.41,5.5,7,1.52.9,1.9,2,.3,3.67-10.75,11.42-22.33,21.71-37,27.93-1,.41-2.29,0-3.44,0v3.5a19,19,0,0,1-10.53,10.5c.09,2.43-1.08,3.59-3.51,3.5.09,2.43-1.08,3.59-3.51,3.51a19,19,0,0,1-10.53,10.5v3.5c-.93,4.94-4.16,4.72-6.51,1.88C62.31,525.88,62.73,522.44,66.86,522.35Zm-6.3,50.19c.13-.58,1.82-.8,2.79-1.19h0c-.27,0-.53.39-.79,1.17a2.18,2.18,0,0,0,.79,2.33h0C61.64,575,60.09,574.63,60.56,572.54Zm263.09-40c-11.82,2.58-23.1,8.7-35.56,7.17-7.7-.94-13.69,4.42-21.37,4-6.44-.38-13.19-2.11-19.88,2.74-3.43,2.5-10.19.52-15.45.43-12.4-.22-24.2,2.58-35.91,6.36-9.31,3-12.65.59-16.36-10.33a18.47,18.47,0,0,0-1.57-2.85,21,21,0,0,0-2.45,2.16c-1.08,1.26-2.39,2.52-2.91,4-3.11,8.92-9.42,11.73-18.55,11.27-18-.93-35.15,4.3-52.19,9.29-5.75,1.68-11.39.5-17,1.09h0q-3.65-.14-3.51,3.5h-14v-3.5h3.5c2.66-.52,6.72,1.74,7-3.5,13.94-5.83,27.68-12.2,41.88-17.31,9.17-3.29,18-7.54,27.21-10.36,8.85-2.71,17.33-6.33,26.05-9,20.7-6.43,40.6-15.28,62.06-19.58,10.16-2,20-5.42,30.27-7.58,8.8-1.85,17.7-7.58,26.49-11.71,8.54-4,18.35-2.83,26.48-8.15,3.18-2.09,8.42,2.85,8.62,7.94.3,7.57,0,15.15.12,22.73.05,3.38-.77,7.88,1,9.94C333.58,528.06,327.91,531.59,323.65,532.52Zm80.75-93.25c-11.38,5-22.77,10.42-35.77,9.57,0-2.29.36-4.66-.09-6.85-.69-3.4,2.49-7.65-2.14-10.19l-4.79,10h0c-3.2,13.08-13.44,18-25,20.86a40.08,40.08,0,0,0-7.7,2.65c-6.67,3.12-9.74,1-9.21-6,.49-6.56-2.62-13.46,3-19.83,2-2.29.3-7.87.34-12,0-2.1-1.06-3.09-3-3.25-2.9-.23-4.1,1.18-4,4,.09,3.5-.11,7,.06,10.49.14,3-.09,5.71-2.87,7.58-3.79,2.53-3.74,6.37-4.38,10.47-2.07,13.37-.93,16.19-16.55,19.87-17.49,4.12-34,11.31-51.81,14.79-15.19,3-29.64,9.95-44.18,15.74-3.55,1.41-6.77.4-10.08,1l3.51-7a19.49,19.49,0,0,0,0-3.42c-.17-1-.55-2.71-1.13-2.84-2.15-.48-2.41,1.13-2.34,2.83,0,1.14,0,2.29,0,3.43-5.25.3-3,4.35-3.51,7h0c-4.63,8.13-14.06,7-21.09,10.05-7.78,3.41-16.48,5.14-24.3,9-1.45.71-3.55,2.31-4.33,1.83-7.34-4.44-11.23,1-16.43,4.58-8.11,5.64-17.54,11-27.4,9.05-6.42-1.28-7.64,1.27-11,4.75-8.56,8.82-19.94,13.13-31.49,16.74a3.22,3.22,0,0,1-4.19-1.94c-.44-1.5-.57-3.45,1.26-4.65,14.18-9.36,26.68-20.71,39.38-31.94q25.19-22.3,52.1-42.68c9.34-7.1,19.12-14.27,27.57-22.83,4.94-5,8.31-12.81,18-11.82,2.23.22,5.59-4.06,7.34-6.93,5.32-8.68,13.8-14.16,21.21-20.45,6.92-5.88,14.45-11.76,23.71-14.34,1.49-.41,2.68-2.05,3.89-3.24,5-4.91,9.25-11,15.07-14.51s12.05-7.26,15.38-12.85c3.55-6,11.44-5.43,14.39-12.93,2-5,13.42-4.06,15.78-10.32,1.74-4.63,5.12-4.78,7.65-7.08s4.31-2.27,7.37-.46c6.31,3.74,13.46,6.13,16.9,13.49.7,1.49,2.2,3.22,3.67,3.63,14,3.89,21.1,17.27,33.44,24,9.41,5.15,16.72,14.82,26.69,20.33h0q-.13,3.63,3.51,3.5-.13,3.63,3.51,3.5h3.51q-.14,3.63,3.5,3.5-.14,3.63,3.51,3.5C419.48,432.4,419.59,432.67,404.4,439.27Z"/><path class="cls-1" d="M245.81,452.34c-7.3,6.25-7.74,15.52-10.46,23.78a5,5,0,0,0,.64,3.12c.65,1.43,1.33,1.08,2.44-.19,2.26-2.58,4.81-4.89,7.24-7.32-8.93-5.38,2.64-10.57.14-15.89,1-.39,2.65-.61,2.78-1.18C249.07,452.56,247.52,452.21,245.81,452.34Z"/><path class="cls-1" d="M324.76,413.83c-.42.76-.84,1.52-1.24,2.26l1.24,1.24a10.65,10.65,0,0,0,1.1-2.35C325.93,414.69,325.15,414.22,324.76,413.83Z"/><path class="cls-1" d="M300.49,407.12c-.68.55-1.64,1-2,1.68s-.34,1.26-.08,1.54c-5.21.31-3,4.34-3.48,7q3.65.14,3.51-3.5v-3.47c.28.26.81.26,1.53-.09a4.68,4.68,0,0,0,1.59-2C301.64,408.09,300.89,407.52,300.49,407.12Z"/><path class="cls-1" d="M344.06,396.33v-3.5c-1,.38-2.65.61-2.78,1.18C340.8,396.11,342.36,396.45,344.06,396.33Z"/><path class="cls-1" d="M315.78,502.89c-2.08-1.17-9.15,4.49-10.27,8.4a13.1,13.1,0,0,0-.05,3.49c.72,2.83-2.16,7.53,4,7.57,3.47,0,7.41.71,6.62-5-.05-.39.74-.83,1-1.32C320.36,509.06,320,505.25,315.78,502.89Z"/><path class="cls-1" d="M240.12,519.53c-1.4-.17-4.44,2.86-4.53,4.54-.17,3.27-3,4.85-3.49,7.11-.62,2.6-2.45,7.21,2.2,8.54,4,1.16,6.25-2.75,7.75-5.29,1.24-2.11.25-5.52.25-8.6C241.56,523.8,244.1,520,240.12,519.53Z"/><path class="cls-1" d="M284.41,515.35c-.44,2.12,1.17,4.75-1.17,6.35-2.94,2-2.34,4.87-2.34,7.65q-.13,3.63,3.51,3.5c7.09-1.89,7.12-7.35,7.11-13.2S287.44,515.65,284.41,515.35Z"/><path class="cls-1" d="M199.5,528.17c-2.75,3.18-5.66,6,.7,8.18.38,1,.6,2.64,1.18,2.77,2.1.48,2.45-1.07,2.32-2.77,6.36-2.23,3.45-5,.7-8.18C202.48,526,201.42,526,199.5,528.17Z"/><path class="cls-1" d="M284.28,503.34c-.17-1.66-2.26-2.29-4.07-2s-3.41,1.33-2.74,3.32a61.07,61.07,0,0,0,3.43,7.17h-7v3.5c-5,2.65-10.12,5.43-10.38,11.87-.13,3-2.13,7.45,2.15,9,5.46,2,4.16-3.73,5.63-6.11,2.24-3.62,4.09-7.49,6.11-11.25q3.64.14,3.51-3.5h3.51A117.24,117.24,0,0,0,284.28,503.34Z"/><path class="cls-1" d="M270.81,509.81c-.15.47,1,1.34,1.51,2h1.56a13.17,13.17,0,0,0-1-2.7C272.29,508.22,271.23,508.45,270.81,509.81Z"/><path class="cls-1" d="M251.93,364.78c2.34.16,4.72-.08,4.39-3.41s-5-7.45-8-7.05c-4,1.23-2.36,4.55-2.46,7.05C245.7,366,249.42,364.62,251.93,364.78Z"/></g></svg>