<svg xmlns="http://www.w3.org/2000/svg" viewBox="0 0 552 438"><defs><style>.cls-1{fill:none;stroke:#8a8a8a;stroke-width:0.5px;}.cls-2{isolation:isolate;}.cls-3{fill:#8a8a8a;}.cls-4{fill:#66c1b4;}.cls-5{fill:#bcd070;}.cls-6{fill:#cdb489;}.cls-7{fill:#008e8f;}.cls-8{fill:#fff;}</style></defs><g id="圖層_2" data-name="圖層 2"><line class="cls-1" x1="42.87" y1="331.08" x2="539.89" y2="331.08"/><line class="cls-1" x1="42.87" y1="292.44" x2="539.89" y2="292.44"/><line class="cls-1" x1="42.87" y1="215.16" x2="539.89" y2="215.16"/><line class="cls-1" x1="42.87" y1="176.52" x2="539.89" y2="176.52"/><line class="cls-1" x1="42.87" y1="253.8" x2="539.89" y2="253.8"/><g class="cls-2"><path class="cls-3" d="M30.55,357.77a8.52,8.52,0,0,1,.8,4,9.58,9.58,0,0,1-.73,4,3.53,3.53,0,0,1-3.42,2.27A3.41,3.41,0,0,1,24,366.22a8.49,8.49,0,0,1-.88-4.16,10.27,10.27,0,0,1,.53-3.48,3.57,3.57,0,0,1,3.54-2.71A3.53,3.53,0,0,1,30.55,357.77Zm-1.5,7.92a7.41,7.41,0,0,0,.69-3.83,9.6,9.6,0,0,0-.5-3.34,1.9,1.9,0,0,0-1.94-1.3,2,2,0,0,0-1.93,1.24,8.44,8.44,0,0,0-.62,3.65,9,9,0,0,0,.4,2.93,2.13,2.13,0,0,0,3.9.65Z"/></g><g class="cls-2"><path class="cls-3" d="M2.19,322.39v-1.28a7,7,0,0,0,2.52-.59,2.93,2.93,0,0,0,1.07-2H7.09v13.23H5.31v-9.4Z"/><path class="cls-3" d="M19.8,320.63a9.46,9.46,0,0,1,.89,4.5,11,11,0,0,1-.8,4.48,4,4,0,0,1-3.83,2.54,3.83,3.83,0,0,1-3.56-2.07,9.53,9.53,0,0,1-1-4.66,11.51,11.51,0,0,1,.58-3.89,4,4,0,0,1,4-3A3.93,3.93,0,0,1,19.8,320.63Zm-1.68,8.85c.52-.76.77-2.19.77-4.28a10.68,10.68,0,0,0-.55-3.73A2.14,2.14,0,0,0,16.17,320,2.27,2.27,0,0,0,14,321.4a9.6,9.6,0,0,0-.68,4.08,10.07,10.07,0,0,0,.43,3.27,2.38,2.38,0,0,0,4.36.73Z"/><path class="cls-3" d="M30.37,320.63a9.58,9.58,0,0,1,.89,4.5,10.78,10.78,0,0,1-.81,4.48,3.94,3.94,0,0,1-3.82,2.54,3.83,3.83,0,0,1-3.56-2.07,9.52,9.52,0,0,1-1-4.66,11.49,11.49,0,0,1,.59-3.89,4,4,0,0,1,4-3A3.94,3.94,0,0,1,30.37,320.63Zm-1.68,8.85a8.32,8.32,0,0,0,.77-4.28,10.43,10.43,0,0,0-.56-3.73A2.12,2.12,0,0,0,26.74,320a2.25,2.25,0,0,0-2.16,1.39,9.43,9.43,0,0,0-.69,4.08,10,10,0,0,0,.44,3.27,2.38,2.38,0,0,0,4.36.73Z"/></g><g class="cls-2"><path class="cls-3" d="M1.67,290.84a5.79,5.79,0,0,1,2.41-2.31l1.78-1a8,8,0,0,0,1.68-1.19,2.42,2.42,0,0,0,.76-1.76,2.46,2.46,0,0,0-.7-1.85A2.54,2.54,0,0,0,5.75,282a2.42,2.42,0,0,0-2.38,1.3A4.87,4.87,0,0,0,3,285.26H1.29a5.84,5.84,0,0,1,.64-2.83,4,4,0,0,1,3.83-1.93,4.15,4.15,0,0,1,3.33,1.23,4.17,4.17,0,0,1,1.06,2.75A3.75,3.75,0,0,1,9,287.21a10.74,10.74,0,0,1-2.33,1.59l-1.27.71a8.07,8.07,0,0,0-1.42.95,3.5,3.5,0,0,0-1.17,1.79h7.25v1.58H1A7.78,7.78,0,0,1,1.67,290.84Z"/><path class="cls-3" d="M19.8,282.67a9.41,9.41,0,0,1,.89,4.5,11,11,0,0,1-.8,4.48,4,4,0,0,1-3.83,2.54,3.82,3.82,0,0,1-3.56-2.08,9.49,9.49,0,0,1-1-4.65,11.51,11.51,0,0,1,.58-3.89,4,4,0,0,1,4-3A3.91,3.91,0,0,1,19.8,282.67Zm-1.68,8.85c.52-.77.77-2.2.77-4.29a10.62,10.62,0,0,0-.55-3.72,2.14,2.14,0,0,0-2.17-1.46A2.27,2.27,0,0,0,14,283.44a9.6,9.6,0,0,0-.68,4.08,10.07,10.07,0,0,0,.43,3.27,2.39,2.39,0,0,0,2.29,1.88A2.36,2.36,0,0,0,18.12,291.52Z"/><path class="cls-3" d="M30.37,282.67a9.53,9.53,0,0,1,.89,4.5,10.78,10.78,0,0,1-.81,4.48,3.94,3.94,0,0,1-3.82,2.54,3.82,3.82,0,0,1-3.56-2.08,9.48,9.48,0,0,1-1-4.65,11.49,11.49,0,0,1,.59-3.89,4,4,0,0,1,4-3A3.92,3.92,0,0,1,30.37,282.67Zm-1.68,8.85a8.39,8.39,0,0,0,.77-4.29,10.37,10.37,0,0,0-.56-3.72,2.12,2.12,0,0,0-2.16-1.46,2.25,2.25,0,0,0-2.16,1.39,9.43,9.43,0,0,0-.69,4.08,10,10,0,0,0,.44,3.27,2.38,2.38,0,0,0,4.36.73Z"/></g><g class="cls-2"><path class="cls-3" d="M1.88,254.94a4.87,4.87,0,0,1-1.06-3.15H2.57a4.22,4.22,0,0,0,.48,1.87,2.53,2.53,0,0,0,2.35,1.05A3,3,0,0,0,7.51,254a2.31,2.31,0,0,0,.8-1.81,2.1,2.1,0,0,0-.84-1.92,4.21,4.21,0,0,0-2.33-.55H4.8l-.35,0v-1.48l.44,0h.38a3.49,3.49,0,0,0,1.54-.3,1.88,1.88,0,0,0,1.05-1.85,1.79,1.79,0,0,0-.7-1.53,2.63,2.63,0,0,0-1.64-.54,2.42,2.42,0,0,0-2.31,1.11,3.78,3.78,0,0,0-.4,1.74H1.16a5,5,0,0,1,.59-2.52,3.74,3.74,0,0,1,3.59-1.85,4.92,4.92,0,0,1,3.15.9,3.18,3.18,0,0,1,1.11,2.62,2.93,2.93,0,0,1-.66,2,2.85,2.85,0,0,1-1.06.74,2.86,2.86,0,0,1,1.64,1.11,3.37,3.37,0,0,1,.59,2A4.09,4.09,0,0,1,8.86,255a5,5,0,0,1-3.56,1.2A4.19,4.19,0,0,1,1.88,254.94Z"/><path class="cls-3" d="M19.8,244.71a9.41,9.41,0,0,1,.89,4.5,11,11,0,0,1-.8,4.48,4,4,0,0,1-3.83,2.54,3.82,3.82,0,0,1-3.56-2.08,9.49,9.49,0,0,1-1-4.65,11.51,11.51,0,0,1,.58-3.89,4,4,0,0,1,4-3A3.92,3.92,0,0,1,19.8,244.71Zm-1.68,8.85c.52-.77.77-2.2.77-4.29a10.58,10.58,0,0,0-.55-3.72,2.13,2.13,0,0,0-2.17-1.46A2.27,2.27,0,0,0,14,245.47a9.69,9.69,0,0,0-.68,4.09,10.11,10.11,0,0,0,.43,3.27,2.39,2.39,0,0,0,2.29,1.88A2.36,2.36,0,0,0,18.12,253.56Z"/><path class="cls-3" d="M30.37,244.71a9.53,9.53,0,0,1,.89,4.5,10.81,10.81,0,0,1-.81,4.48,4,4,0,0,1-3.82,2.54,3.82,3.82,0,0,1-3.56-2.08,9.48,9.48,0,0,1-1-4.65,11.49,11.49,0,0,1,.59-3.89,4,4,0,0,1,4-3A3.93,3.93,0,0,1,30.37,244.71Zm-1.68,8.85a8.39,8.39,0,0,0,.77-4.29,10.34,10.34,0,0,0-.56-3.72,2.11,2.11,0,0,0-2.16-1.46,2.25,2.25,0,0,0-2.16,1.38,9.51,9.51,0,0,0-.69,4.09,10.08,10.08,0,0,0,.44,3.27,2.38,2.38,0,0,0,4.36.73Z"/></g><g class="cls-2"><path class="cls-3" d="M6.68,217.9v-3.24H.85V213l6.09-8.44H8.35v8.62h2v1.46h-2v3.24Zm0-4.7v-6l-4.26,6Z"/><path class="cls-3" d="M19.8,206.74a9.46,9.46,0,0,1,.89,4.5,11,11,0,0,1-.8,4.48,4,4,0,0,1-3.83,2.55,3.84,3.84,0,0,1-3.56-2.08,9.53,9.53,0,0,1-1-4.66,11.55,11.55,0,0,1,.58-3.89,4,4,0,0,1,4-3A3.93,3.93,0,0,1,19.8,206.74Zm-1.68,8.85c.52-.76.77-2.19.77-4.28a10.68,10.68,0,0,0-.55-3.73,2.14,2.14,0,0,0-2.17-1.46A2.27,2.27,0,0,0,14,207.51a9.66,9.66,0,0,0-.68,4.09,10,10,0,0,0,.43,3.26,2.38,2.38,0,0,0,4.36.73Z"/><path class="cls-3" d="M30.37,206.74a9.58,9.58,0,0,1,.89,4.5,10.78,10.78,0,0,1-.81,4.48,4,4,0,0,1-3.82,2.55,3.84,3.84,0,0,1-3.56-2.08,9.52,9.52,0,0,1-1-4.66,11.54,11.54,0,0,1,.59-3.89,4,4,0,0,1,4-3A3.94,3.94,0,0,1,30.37,206.74Zm-1.68,8.85a8.32,8.32,0,0,0,.77-4.28,10.43,10.43,0,0,0-.56-3.73,2.12,2.12,0,0,0-2.16-1.46,2.25,2.25,0,0,0-2.16,1.39,9.48,9.48,0,0,0-.69,4.09,10,10,0,0,0,.44,3.26,2.38,2.38,0,0,0,4.36.73Z"/></g><g class="cls-2"><path class="cls-3" d="M2.71,176.55a2.33,2.33,0,0,0,1.33,2,3.13,3.13,0,0,0,1.37.28,2.58,2.58,0,0,0,2.2-.95,3.38,3.38,0,0,0,.72-2.09,2.78,2.78,0,0,0-.85-2.16,3,3,0,0,0-2-.76,3,3,0,0,0-1.48.34,3.18,3.18,0,0,0-1,.92L1.46,174l1-7.15H9.38v1.61H3.73l-.57,3.69a4,4,0,0,1,.88-.52,4.4,4.4,0,0,1,1.72-.31,4.38,4.38,0,0,1,3.1,1.18,3.91,3.91,0,0,1,1.27,3A5.13,5.13,0,0,1,9,178.84a4.51,4.51,0,0,1-3.71,1.43,4.7,4.7,0,0,1-2.87-.91A3.6,3.6,0,0,1,1,176.55Z"/><path class="cls-3" d="M19.8,168.78a9.41,9.41,0,0,1,.89,4.5,11,11,0,0,1-.8,4.48,4,4,0,0,1-3.83,2.54,3.82,3.82,0,0,1-3.56-2.08,9.49,9.49,0,0,1-1-4.65,11.51,11.51,0,0,1,.58-3.89,4,4,0,0,1,4-3A3.91,3.91,0,0,1,19.8,168.78Zm-1.68,8.85c.52-.77.77-2.2.77-4.29a10.62,10.62,0,0,0-.55-3.72,2.14,2.14,0,0,0-2.17-1.46A2.27,2.27,0,0,0,14,169.54a9.69,9.69,0,0,0-.68,4.09,10.07,10.07,0,0,0,.43,3.27,2.39,2.39,0,0,0,2.29,1.88A2.36,2.36,0,0,0,18.12,177.63Z"/><path class="cls-3" d="M30.37,168.78a9.53,9.53,0,0,1,.89,4.5,10.78,10.78,0,0,1-.81,4.48,3.94,3.94,0,0,1-3.82,2.54,3.82,3.82,0,0,1-3.56-2.08,9.48,9.48,0,0,1-1-4.65,11.49,11.49,0,0,1,.59-3.89,4,4,0,0,1,4-3A3.92,3.92,0,0,1,30.37,168.78Zm-1.68,8.85a8.39,8.39,0,0,0,.77-4.29,10.37,10.37,0,0,0-.56-3.72,2.12,2.12,0,0,0-2.16-1.46,2.25,2.25,0,0,0-2.16,1.38,9.51,9.51,0,0,0-.69,4.09,10,10,0,0,0,.44,3.27,2.38,2.38,0,0,0,4.36.73Z"/></g><g class="cls-2"><path class="cls-3" d="M9,129.79a3.91,3.91,0,0,1,.87,2.38H8.25a3,3,0,0,0-.47-1.24A2.12,2.12,0,0,0,6,130.1a2.52,2.52,0,0,0-2.22,1.29,7.37,7.37,0,0,0-.92,3.71,3.63,3.63,0,0,1,1.44-1.26A4.19,4.19,0,0,1,6,133.47,4.33,4.33,0,0,1,9,134.53a4,4,0,0,1,1.24,3.19A4.8,4.8,0,0,1,9,140.92a4.14,4.14,0,0,1-3.35,1.4,4.27,4.27,0,0,1-3.22-1.42q-1.36-1.41-1.36-4.76a12.87,12.87,0,0,1,.6-4.2q1.17-3.31,4.24-3.31A3.69,3.69,0,0,1,9,129.79ZM7.78,140a3.46,3.46,0,0,0,.65-2.09,3.59,3.59,0,0,0-.59-2A2.3,2.3,0,0,0,5.72,135a2.79,2.79,0,0,0-1.89.71A2.74,2.74,0,0,0,3,137.86,3.17,3.17,0,0,0,3.76,140a2.54,2.54,0,0,0,2,.85A2.31,2.31,0,0,0,7.78,140Z"/><path class="cls-3" d="M19.8,130.81a9.46,9.46,0,0,1,.89,4.5,11,11,0,0,1-.8,4.48,4,4,0,0,1-3.83,2.55,3.84,3.84,0,0,1-3.56-2.08,9.53,9.53,0,0,1-1-4.66,11.55,11.55,0,0,1,.58-3.89,4,4,0,0,1,4-3A3.93,3.93,0,0,1,19.8,130.81Zm-1.68,8.85c.52-.76.77-2.19.77-4.28a10.68,10.68,0,0,0-.55-3.73,2.14,2.14,0,0,0-2.17-1.46A2.28,2.28,0,0,0,14,131.58a9.66,9.66,0,0,0-.68,4.09,10,10,0,0,0,.43,3.26,2.38,2.38,0,0,0,4.36.73Z"/><path class="cls-3" d="M30.37,130.81a9.58,9.58,0,0,1,.89,4.5,10.78,10.78,0,0,1-.81,4.48,4,4,0,0,1-3.82,2.55,3.84,3.84,0,0,1-3.56-2.08,9.52,9.52,0,0,1-1-4.66,11.54,11.54,0,0,1,.59-3.89,4,4,0,0,1,4-3A3.94,3.94,0,0,1,30.37,130.81Zm-1.68,8.85a8.32,8.32,0,0,0,.77-4.28,10.43,10.43,0,0,0-.56-3.73,2.12,2.12,0,0,0-2.16-1.46,2.26,2.26,0,0,0-2.16,1.39,9.48,9.48,0,0,0-.69,4.09,10,10,0,0,0,.44,3.26,2.38,2.38,0,0,0,4.36.73Z"/></g><g class="cls-2"><path class="cls-3" d="M10.3,91v1.46a15.69,15.69,0,0,0-1.7,2.16,22.29,22.29,0,0,0-1.88,3.32,22.85,22.85,0,0,0-1.22,3.16c-.18.62-.41,1.6-.7,3H3a22.64,22.64,0,0,1,2.78-7.57,24.46,24.46,0,0,1,2.67-3.81H1.06V91Z"/><path class="cls-3" d="M19.8,92.85a9.46,9.46,0,0,1,.89,4.5,11,11,0,0,1-.8,4.48,4,4,0,0,1-3.83,2.55,3.84,3.84,0,0,1-3.56-2.08,9.53,9.53,0,0,1-1-4.66,11.55,11.55,0,0,1,.58-3.89,4,4,0,0,1,4-3A3.93,3.93,0,0,1,19.8,92.85Zm-1.68,8.85c.52-.76.77-2.19.77-4.28a10.68,10.68,0,0,0-.55-3.73,2.14,2.14,0,0,0-2.17-1.46A2.27,2.27,0,0,0,14,93.62a9.66,9.66,0,0,0-.68,4.09,10,10,0,0,0,.43,3.26,2.38,2.38,0,0,0,4.36.73Z"/><path class="cls-3" d="M30.37,92.85a9.58,9.58,0,0,1,.89,4.5,10.78,10.78,0,0,1-.81,4.48,4,4,0,0,1-3.82,2.55,3.84,3.84,0,0,1-3.56-2.08,9.52,9.52,0,0,1-1-4.66,11.54,11.54,0,0,1,.59-3.89,4,4,0,0,1,4-3A3.94,3.94,0,0,1,30.37,92.85Zm-1.68,8.85a8.32,8.32,0,0,0,.77-4.28,10.43,10.43,0,0,0-.56-3.73,2.12,2.12,0,0,0-2.16-1.46,2.25,2.25,0,0,0-2.16,1.39,9.48,9.48,0,0,0-.69,4.09,10,10,0,0,0,.44,3.26,2.38,2.38,0,0,0,4.36.73Z"/></g><g class="cls-2"><path class="cls-3" d="M2.18,58.28a2.64,2.64,0,0,1-.74-1.93,3.49,3.49,0,0,1,1.08-2.56,4.15,4.15,0,0,1,3.05-1.06,4.22,4.22,0,0,1,3,1,3.15,3.15,0,0,1,1.08,2.36,3.06,3.06,0,0,1-.63,2A3.62,3.62,0,0,1,7.92,59a4.28,4.28,0,0,1,1.3.88,3.33,3.33,0,0,1,.89,2.41,4.09,4.09,0,0,1-1.18,3A4.44,4.44,0,0,1,5.6,66.43a5.15,5.15,0,0,1-3.28-1.05,4.08,4.08,0,0,1-.77-5.1A3.65,3.65,0,0,1,3.26,59,3.47,3.47,0,0,1,2.18,58.28Zm5.38,6a2.27,2.27,0,0,0,.77-1.87,2.42,2.42,0,0,0-.79-1.95,3,3,0,0,0-2-.67,2.85,2.85,0,0,0-2,.68,2.41,2.41,0,0,0-.75,1.89,2.56,2.56,0,0,0,.69,1.79,2.74,2.74,0,0,0,2.14.76A2.92,2.92,0,0,0,7.56,64.28Zm-.31-6.57a2,2,0,0,0,0-2.84,2.42,2.42,0,0,0-1.81-.62,2.21,2.21,0,0,0-1.74.62,2.2,2.2,0,0,0-.53,1.46,1.74,1.74,0,0,0,.69,1.47,2.64,2.64,0,0,0,1.64.53A2.3,2.3,0,0,0,7.25,57.71Z"/><path class="cls-3" d="M19.8,54.89a9.41,9.41,0,0,1,.89,4.5,11,11,0,0,1-.8,4.48,4,4,0,0,1-3.83,2.54,3.82,3.82,0,0,1-3.56-2.08,9.49,9.49,0,0,1-1-4.65,11.51,11.51,0,0,1,.58-3.89,4,4,0,0,1,4-3A3.91,3.91,0,0,1,19.8,54.89Zm-1.68,8.85c.52-.77.77-2.2.77-4.29a10.58,10.58,0,0,0-.55-3.72,2.14,2.14,0,0,0-2.17-1.46A2.27,2.27,0,0,0,14,55.65a9.69,9.69,0,0,0-.68,4.09A10.07,10.07,0,0,0,13.76,63a2.39,2.39,0,0,0,2.29,1.88A2.36,2.36,0,0,0,18.12,63.74Z"/><path class="cls-3" d="M30.37,54.89a9.53,9.53,0,0,1,.89,4.5,10.81,10.81,0,0,1-.81,4.48,4,4,0,0,1-3.82,2.54,3.82,3.82,0,0,1-3.56-2.08,9.48,9.48,0,0,1-1-4.65,11.49,11.49,0,0,1,.59-3.89,4,4,0,0,1,4-3A3.92,3.92,0,0,1,30.37,54.89Zm-1.68,8.85a8.39,8.39,0,0,0,.77-4.29,10.34,10.34,0,0,0-.56-3.72,2.12,2.12,0,0,0-2.16-1.46,2.25,2.25,0,0,0-2.16,1.38,9.51,9.51,0,0,0-.69,4.09A10,10,0,0,0,24.33,63a2.38,2.38,0,0,0,4.36.73Z"/></g><g class="cls-2"><path class="cls-3" d="M403,391.27c-.13,3.15-.28,6.15-.43,8.47h3v1.58H390.74v-1.58H394c.27-2.32.55-5.35.8-8.47h-3.35l.07.52-3.32,1v7.45c0,1-.28,1.45-.88,1.73a9.6,9.6,0,0,1-3.32.27,6.89,6.89,0,0,0-.52-1.5c1.22,0,2.3,0,2.62,0s.47-.13.47-.5v-7c-1.25.38-2.45.75-3.5,1l-.49-1.62c1.12-.25,2.49-.65,4-1.07V386.1H382.9v-1.53h3.64V379.5h1.63v5.07h3.07v1.53h-3.07v5.09l2.92-.87v-.57h3.78c.17-2.4.32-4.8.42-6.93h-3.15v-1.57h11.18c-.05,2.55-.13,5.55-.23,8.5h2.53v1.52Zm-2,8.47c.17-2.32.32-5.35.45-8.47h-5.13c-.25,3.12-.5,6.15-.75,8.47Zm-4.08-16.92c-.12,2.15-.3,4.55-.47,6.93h5.07c.08-2.38.13-4.78.15-6.93Z"/><path class="cls-3" d="M427.47,395.22h3.09v1.32h-3.09v4c0,.83-.18,1.25-.83,1.45a12.1,12.1,0,0,1-3.37.25,6.73,6.73,0,0,0-.5-1.4c1.27.05,2.4.05,2.75,0s.4-.1.4-.35v-4H418v1.3h-4.27v4.45h-1.5v-4.45h-4.5v-1.5h4.5v-2.1h-3.57v-8.59h3.57v-1.93H408v-1.45h4.18V379.5h1.5v2.77h3.92v1.45h-3.92v1.93h3.65v8.59h-3.65v2.1h4.17v-1.12h8v-1.4h1.55Zm-17.55-5.9h2.45V387h-2.45Zm0,3.65h2.45v-2.42h-2.45Zm6.15-6h-2.48v2.37h2.48Zm0,3.6h-2.48V393h2.48Zm1.85,1.82,5.47-.08V390.6h-4.62v-6.5h4.62v-1.43h-5.22v-1.32h5.22v-1.83h1.43v1.83h5.44v1.32h-5.44v1.43h4.82v6.5h-1.87a18.46,18.46,0,0,1,2.94,3.14l-1.17.73c-.2-.3-.45-.65-.72-1-4,.08-8,.18-10.78.25Zm2.62,4.55a11.55,11.55,0,0,1,2.5,2.87l-1.22.83a11.82,11.82,0,0,0-2.4-3Zm-.37-10.12h3.22v-1.6h-3.22Zm3.22,2.72v-1.67h-3.22v1.67Zm1.43-4.32v1.6h3.42v-1.6Zm3.42,2.65h-3.42v1.67h3.42Zm-3.42,4.42,2.9,0c-.4-.4-.8-.8-1.2-1.15l.87-.47h-2.57Z"/><path class="cls-3" d="M445.79,389.6a38.43,38.43,0,0,1-4.3,2.89v1.33h11.13v1.5H441.49V399c0,.93.4,1.15,2.48,1.15h7.37c1.8,0,2.07-.52,2.28-3.42a4.7,4.7,0,0,0,1.62.62c-.33,3.48-.92,4.33-3.85,4.33H444c-3.3,0-4.22-.5-4.22-2.68v-5.5a54.72,54.72,0,0,1-6,2.88,8.71,8.71,0,0,0-1.19-1.45A49.68,49.68,0,0,0,443,389.6H433v-1.55h8.6v-3.58H435.2v-1.55h6.44v-3.45h1.65v3.45h6.38V384a38,38,0,0,0,3-3.55l1.52.77a38.36,38.36,0,0,1-6.42,6.83h7.52v1.55Zm-.67-1.55a40.06,40.06,0,0,0,4.07-3.58h-6v3.58Z"/><path class="cls-3" d="M466.14,380.07a37.34,37.34,0,0,1-2.55,4.8v17.4H462v-15.1a28.41,28.41,0,0,1-3.57,4c-.18-.37-.68-1.22-.95-1.62a28,28,0,0,0,7.09-10Zm10.7,19.77c1.43,0,1.63-1.12,1.82-5.42a3.84,3.84,0,0,0,1.55.75c-.27,4.62-.75,6.2-3.32,6.2H472c-2.37,0-3.1-.7-3.1-3.2v-18.3h1.6v6.88h8.9v1.6h-8.9v9.87c0,1.32.3,1.62,1.6,1.62Z"/><path class="cls-3" d="M491.89,398.44c-3.2.88-6.6,1.75-9.07,2.43l-.32-1.55,1.4-.35v-8.4h1.37v8.1l1.85-.48v-10h-3.28v-7.65h7.38v7.65h-2.65v3.52h3v1.47h-3v4.63l3.17-.83Zm-6.6-11.69h4.45V382h-4.45Zm16.15-1.5v15c0,1-.22,1.42-.82,1.7a10.32,10.32,0,0,1-3.43.3,5.65,5.65,0,0,0-.5-1.58c1.3.05,2.4.05,2.73,0s.47-.13.47-.48v-15h-2.3v3.95c0,4.32-.65,9.29-5.67,13.09a6.16,6.16,0,0,0-1.18-1.07c4.83-3.58,5.38-8.25,5.38-12v-3.95H492v-1.58h6.45a18.06,18.06,0,0,0-1.6-3.77l1.5-.45a16.16,16.16,0,0,1,1.7,3.75l-1.35.47h6.79v1.58Zm-6.65,3.45a20.84,20.84,0,0,1-2.65,7.67,10.49,10.49,0,0,0-1.25-.78,17.6,17.6,0,0,0,2.45-7.17Zm8.55-.35a27.52,27.52,0,0,1,2.45,7.24l-1.4.58a29,29,0,0,0-2.35-7.32Z"/><path class="cls-3" d="M528,391.49c-1.08.6-2.38,1.28-3.63,1.83a12.15,12.15,0,0,0,6,6.22,7.9,7.9,0,0,0-1.1,1.4,14.14,14.14,0,0,1-6.27-7c-.5.22-1,.4-1.45.57,1.65,2.9,1.3,5.78-.48,6.93a4,4,0,0,1-2.55.72c-.57,0-1.32,0-2.12-.05a3.75,3.75,0,0,0-.48-1.52,21.09,21.09,0,0,0,2.33.1,2.81,2.81,0,0,0,1.77-.43c1.05-.7,1.35-2.5.45-4.5a34.67,34.67,0,0,1-11.15,5.18,6,6,0,0,0-.94-1.28c3.94-.87,8.84-2.92,11.47-5.05a11.6,11.6,0,0,0-1-1.25,32,32,0,0,1-9.12,3.78,6.46,6.46,0,0,0-1-1.23,29.91,29.91,0,0,0,9.2-3.4,13,13,0,0,0-1.52-1.2,39.15,39.15,0,0,1-6.43,2.35,5.76,5.76,0,0,0-1-1.15,34.79,34.79,0,0,0,7.4-2.47h-5.77v-4.1c-.5.35-1,.65-1.55,1a6,6,0,0,0-1.1-1.15,20.23,20.23,0,0,0,7.22-6.35l1.78.35a17.86,17.86,0,0,1-1.13,1.45h5.65l.25-.1,1.15.75a16.65,16.65,0,0,1-2,2.7h6.78V390h-9c-.3.2-.62.4-1,.6a11.79,11.79,0,0,1,3.05,2.82,40.63,40.63,0,0,0,5.8-3Zm-15.68-2.77h6v-2.85h-6Zm2.45-6.2a24.14,24.14,0,0,1-2.2,2h6.53a16.82,16.82,0,0,0,1.6-2Zm11.4,3.35h-6.32v2.85h6.32Z"/></g><g class="cls-2"><path class="cls-3" d="M77.49,393.24a17.63,17.63,0,0,0-4-2.64l.9-1.1a17.31,17.31,0,0,1,4.1,2.52Zm1.33,2.7a68.65,68.65,0,0,1-3.5,6.18L74,401a58.12,58.12,0,0,0,3.7-6.12Zm1-13.14H74v-1.43h5.77v-1.85h1.62v1.85h2.68v1.43H81.41v2H79.79Zm-1.1,5.6a17.28,17.28,0,0,0-4-2.7l.9-1.08a18.57,18.57,0,0,1,4,2.55Zm15.57,3.42a14.13,14.13,0,0,1-4.2,6.52,17,17,0,0,0,6.15,2.5,6.86,6.86,0,0,0-1,1.4,17.32,17.32,0,0,1-6.38-2.87,20.23,20.23,0,0,1-6.3,2.9,7.84,7.84,0,0,0-.87-1.4,17.64,17.64,0,0,0,5.92-2.55,15.89,15.89,0,0,1-3.85-5.48H83c-.12,3.05-.77,6.78-3.22,9.4a6.27,6.27,0,0,0-1.35-.87c2.68-2.83,3-6.75,3-9.7v-4.75h5.93V384.7h.82v-1.9H85.66v-1.43h2.55v-1.85h1.65v1.85h6v1.43h-6v2H89v2.12h5.5l.28-.07,1.15.35a34.68,34.68,0,0,1-1.53,3.85l-1.4-.48a21.33,21.33,0,0,0,.85-2.22H89v3.12h3.9l.33-.07ZM83,388.35v3.12h4.35v-3.12Zm2.25,4.49a12.87,12.87,0,0,0,3.5,4.53,12,12,0,0,0,3.37-4.53Z"/><path class="cls-3" d="M112.16,395.27a21,21,0,0,0,9.15,5,7.79,7.79,0,0,0-1.12,1.42,21.93,21.93,0,0,1-9.53-6v6.6h-1.72v-6.47a24.88,24.88,0,0,1-9.5,6.1,6.63,6.63,0,0,0-1.12-1.38,24.24,24.24,0,0,0,9.14-5.22H98.87v-1.48h10.07v-1.94h1.72v1.94h10.25v1.48Zm-8-12.45H98.79v-1.45h5.38v-1.85h1.6v1.85H109v1.45h-3.27v1.78h-1.6Zm14.72,2.85c-4.7,1.1-12.43,1.65-18.77,1.8a7.78,7.78,0,0,0-.38-1.4c6.22-.17,13.87-.72,17.87-1.65Zm-15.77,6.77a13,13,0,0,0-2.23-3.72l1.38-.6a12.17,12.17,0,0,1,2.32,3.7Zm6.17-.75a12.6,12.6,0,0,0-1.55-3.67l1.45-.45a11.25,11.25,0,0,1,1.65,3.6Zm4.9-8.87h-3.65v-1.45h3.65v-1.85h1.6v1.85h4.95v1.45h-4.95v1.63h-1.6Zm5.07,5a50.32,50.32,0,0,1-3.25,4.82l-1.3-.58a28.13,28.13,0,0,0,2.9-4.89Z"/></g><rect class="cls-4" x="71.37" y="309.16" width="51.23" height="60.63"/><g class="cls-2"><path class="cls-3" d="M189.66,392.57c-.32-.8-1.19-2.32-1.89-3.57v13.22h-1.53v-12.6a28.5,28.5,0,0,1-3.27,7.45,8.86,8.86,0,0,0-.93-1.58,28.63,28.63,0,0,0,4-9.62h-3.13V384.3h3.3v-4.83h1.53v4.83h3.07v1.57h-3.07v1.05c.67.93,2.5,3.75,2.89,4.45Zm15.6,7.12v1.6H189.54v-1.6h7.35v-4.3h-5.63v-1.55h5.63v-3h1.67v3h5.55v1.55h-5.55v4.3Zm-8.37-15.19h-5.23V383h5.23v-3.35h1.67V383h5.2v1.53h-5.2v3.85H205v1.55H190.74v-1.55h6.15Z"/><path class="cls-3" d="M215.62,386.62a34.42,34.42,0,0,1-2.1,3.57v12.08h-1.65v-9.9a26.56,26.56,0,0,1-3.08,3.1,15.7,15.7,0,0,0-1.37-1.15,23.47,23.47,0,0,0,6.6-8.17Zm0-4.57h2.7v1.57h-2.7V386H214v-2.4H208v-1.57H214v-2.58h1.64Zm6.48,1.57h-2.85v-1.57h2.85v-2.58h1.65v2.58h5.92v1.57h-5.92v2.55h-1.65Zm5,16.72c1.17,0,1.37-.65,1.52-3.87a5.06,5.06,0,0,0,1.53.7c-.25,3.67-.73,4.75-2.95,4.75h-4.8c-2.35,0-3.05-.6-3.05-2.83V386.37H221v4.3h8.62v1.57H221v6.88c0,1,.22,1.22,1.52,1.22Z"/></g><rect class="cls-5" x="180.37" y="317.7" width="51.23" height="52.09"/><g class="cls-2"><path class="cls-3" d="M312.24,400.54v1.18H289.52v-1.18ZM295.17,382.1h-5.38v-1.25h5.38V379.5h1.6v1.35H300v1.25h-3.27v1.3h-1.6Zm16.27,3H290.52V384h20.92Zm-.43,8.2H290.87v-1.1H311Zm-18.84,6.22v-5.17h17.54v5.17Zm16.69-13.37v5h-16v-5Zm-15.14,10.32h6.34v-1.2h-6.34Zm0,2.13h6.34v-1.2h-6.34Zm.67-10.45h5.67v-1.07h-5.67Zm0,2.07h5.67v-1.14h-5.67Zm10.82-8.09h-3.67v-1.28h3.67V379.5h1.63v1.32h4.9v1.28h-4.9v1.3h-1.63Zm2.05,4.95h-5.67v1.07h5.67Zm0,2h-5.67v1.14h5.67Zm.83,6.19h-6.5v1.2h6.5Zm0,2.13h-6.5v1.2h6.5Z"/></g><g class="cls-2"><path class="cls-3" d="M323.19,399.19a34.18,34.18,0,0,1-7.65,3.13,11.58,11.58,0,0,0-1.15-1.18,29.22,29.22,0,0,0,7.3-2.9Zm13.7-10.47H314.64v-1.45h22.25Zm-16.32-5.92h-4.7v-1.35h4.7v-2h1.59v2h7.25v-2h1.68v2h4.72v1.35h-4.72v3.12H320.57Zm-3.05,15.27V390h16.72v8.07Zm1.6-4.65h5.74v-2.18h-5.74Zm0,3.4h5.74v-2.2h-5.74Zm3-14v1.9h7.25v-1.9Zm10.4,8.44h-6.05v2.18h6.05Zm0,3.38h-6.05v2.2h6.05Zm-3.05,3.62a68.68,68.68,0,0,1,7.6,2.88l-1.42,1.15a52.72,52.72,0,0,0-7.28-2.95Z"/></g><rect class="cls-6" x="288.37" y="324.53" width="51.23" height="45.26"/><rect class="cls-4" x="425.37" y="138.39" width="20.78" height="231.4"/><rect class="cls-5" x="446.15" y="138.39" width="20.78" height="231.4"/><rect class="cls-6" x="466.92" y="138.39" width="20.78" height="231.4"/><line class="cls-1" x1="42.87" y1="99.23" x2="539.89" y2="99.23"/><line class="cls-1" x1="42.87" y1="137.87" x2="539.89" y2="137.87"/><polyline class="cls-1" points="539.89 369.79 42.87 369.79 42.87 60.59 539.89 60.59"/><path class="cls-7" d="M511,119.13a41,41,0,1,0-41-41h0a41,41,0,0,0,41,41h0"/><g class="cls-2"><g class="cls-2"><path class="cls-8" d="M477.62,80.08V78.27h4.68V73.56h1.84v4.71h4.68v1.81h-4.68v4.7H482.3v-4.7Z"/><path class="cls-8" d="M499.51,70.67a4.54,4.54,0,0,1,1,2.76h-1.91a3.45,3.45,0,0,0-.55-1.43A2.42,2.42,0,0,0,496,71a2.94,2.94,0,0,0-2.58,1.5,8.69,8.69,0,0,0-1.07,4.29A4.27,4.27,0,0,1,494,75.36a4.93,4.93,0,0,1,2.06-.43,5,5,0,0,1,3.38,1.24,4.58,4.58,0,0,1,1.44,3.68,5.57,5.57,0,0,1-1.37,3.71,4.8,4.8,0,0,1-3.89,1.62,5,5,0,0,1-3.73-1.64q-1.56-1.64-1.56-5.51a15,15,0,0,1,.69-4.87q1.35-3.82,4.91-3.82C497.63,69.34,498.83,69.78,499.51,70.67Zm-1.45,11.76a4,4,0,0,0,.75-2.42,4.13,4.13,0,0,0-.67-2.25,2.69,2.69,0,0,0-2.46-1.07,3.23,3.23,0,0,0-2.19.83,3.16,3.16,0,0,0-.94,2.49,3.65,3.65,0,0,0,.86,2.46,2.94,2.94,0,0,0,2.36,1A2.66,2.66,0,0,0,498.06,82.43Z"/><path class="cls-8" d="M512,71.86a11,11,0,0,1,1,5.21,12.61,12.61,0,0,1-.94,5.19,4.57,4.57,0,0,1-4.42,2.94,4.43,4.43,0,0,1-4.13-2.41,11,11,0,0,1-1.13-5.39,13.36,13.36,0,0,1,.68-4.5q1.26-3.5,4.59-3.5A4.53,4.53,0,0,1,512,71.86ZM510,82.11c.59-.89.89-2.54.89-5a12.28,12.28,0,0,0-.64-4.31,2.46,2.46,0,0,0-2.51-1.69,2.6,2.6,0,0,0-2.5,1.61,11,11,0,0,0-.79,4.73,11.79,11.79,0,0,0,.5,3.78,2.75,2.75,0,0,0,5.05.85Z"/><path class="cls-8" d="M524.22,71.86a11,11,0,0,1,1,5.21,12.62,12.62,0,0,1-.93,5.19,4.59,4.59,0,0,1-4.43,2.94,4.41,4.41,0,0,1-4.12-2.41,10.88,10.88,0,0,1-1.13-5.39,13.37,13.37,0,0,1,.67-4.5q1.28-3.5,4.59-3.5A4.55,4.55,0,0,1,524.22,71.86Zm-2,10.25c.6-.89.9-2.54.9-5a12.26,12.26,0,0,0-.65-4.31A2.45,2.45,0,0,0,520,71.14a2.61,2.61,0,0,0-2.5,1.61,11.16,11.16,0,0,0-.79,4.73,11.49,11.49,0,0,0,.51,3.78,2.75,2.75,0,0,0,5,.85Z"/><path class="cls-8" d="M533.29,71a3.63,3.63,0,0,1,1.09,2.65,3.59,3.59,0,0,1-1.09,2.64,3.75,3.75,0,1,1,0-5.29Zm-1.08,4.21a2.22,2.22,0,1,0-3.14,0,2.09,2.09,0,0,0,1.56.65A2.14,2.14,0,0,0,532.21,75.17Zm7.41-5.71h1.2l-8.6,15.73H531Zm4.2,8.93a3.73,3.73,0,0,1,0,5.29,3.73,3.73,0,0,1-5.29,0,3.74,3.74,0,1,1,5.29-5.29Zm-1.07,4.22a2.22,2.22,0,0,0-3.14-3.14,2.22,2.22,0,0,0,0,3.14,2.22,2.22,0,0,0,3.14,0Z"/></g></g><path class="cls-7" d="M488.38,105.47l-6.83,27.32,23.9-17.08Z"/></g></svg>