<svg id="圖層_1" data-name="圖層 1" xmlns="http://www.w3.org/2000/svg" viewBox="0 0 552 438"><defs><style>.cls-1{fill:none;stroke:#8a8a8a;stroke-width:0.5px;}.cls-2{isolation:isolate;}.cls-3{fill:#8a8a8a;}.cls-4{fill:#98ca6c;}.cls-5{fill:#c8acd1;}.cls-6{fill:#efc184;}.cls-7{fill:#20b8c7;}.cls-8{fill:#fff;}</style></defs><line class="cls-1" x1="42.87" y1="331.08" x2="539.89" y2="331.08"/><line class="cls-1" x1="42.87" y1="292.44" x2="539.89" y2="292.44"/><line class="cls-1" x1="42.87" y1="215.16" x2="539.89" y2="215.16"/><line class="cls-1" x1="42.87" y1="176.52" x2="539.89" y2="176.52"/><line class="cls-1" x1="42.87" y1="137.87" x2="539.89" y2="137.87"/><line class="cls-1" x1="42.87" y1="253.8" x2="539.89" y2="253.8"/><g class="cls-2"><path class="cls-3" d="M30.55,357.77a8.52,8.52,0,0,1,.8,4,9.58,9.58,0,0,1-.73,4,3.53,3.53,0,0,1-3.42,2.27A3.41,3.41,0,0,1,24,366.22a8.49,8.49,0,0,1-.88-4.16,10.27,10.27,0,0,1,.53-3.48,3.57,3.57,0,0,1,3.54-2.71A3.53,3.53,0,0,1,30.55,357.77Zm-1.5,7.92a7.41,7.41,0,0,0,.69-3.83,9.6,9.6,0,0,0-.5-3.34,1.9,1.9,0,0,0-1.94-1.3,2,2,0,0,0-1.93,1.24,8.47,8.47,0,0,0-.61,3.65,9,9,0,0,0,.39,2.93,2.13,2.13,0,0,0,3.9.65Z"/></g><g class="cls-2"><path class="cls-3" d="M13.28,328.41a2.29,2.29,0,0,0,1.33,2,3.1,3.1,0,0,0,1.37.28,2.56,2.56,0,0,0,2.2-1,3.37,3.37,0,0,0,.71-2.09,2.74,2.74,0,0,0-.84-2.15,3,3,0,0,0-2-.77A3,3,0,0,0,13.48,326L12,325.88l1-7.15h6.9v1.61H14.29l-.56,3.7a4,4,0,0,1,.88-.53,4.35,4.35,0,0,1,1.71-.31,4.36,4.36,0,0,1,3.1,1.18,3.89,3.89,0,0,1,1.27,3,5.11,5.11,0,0,1-1.16,3.32,4.52,4.52,0,0,1-3.72,1.44,4.73,4.73,0,0,1-2.87-.92,3.62,3.62,0,0,1-1.39-2.8Z"/><path class="cls-3" d="M30.37,320.63a9.58,9.58,0,0,1,.89,4.5,10.78,10.78,0,0,1-.81,4.48,3.94,3.94,0,0,1-3.82,2.54,3.83,3.83,0,0,1-3.56-2.07,9.53,9.53,0,0,1-1-4.66,11.51,11.51,0,0,1,.58-3.89,4,4,0,0,1,4-3A3.94,3.94,0,0,1,30.37,320.63Zm-1.68,8.85a8.32,8.32,0,0,0,.77-4.28,10.43,10.43,0,0,0-.56-3.73A2.12,2.12,0,0,0,26.74,320a2.25,2.25,0,0,0-2.16,1.39,9.43,9.43,0,0,0-.69,4.08,10,10,0,0,0,.44,3.27,2.38,2.38,0,0,0,4.36.73Z"/></g><g class="cls-2"><path class="cls-3" d="M2.19,284.42v-1.28a6.59,6.59,0,0,0,2.52-.59,2.88,2.88,0,0,0,1.07-1.95H7.09v13.23H5.31v-9.41Z"/><path class="cls-3" d="M19.8,282.67a9.41,9.41,0,0,1,.89,4.5,10.79,10.79,0,0,1-.8,4.48,4,4,0,0,1-3.83,2.54,3.82,3.82,0,0,1-3.56-2.08,9.49,9.49,0,0,1-1-4.65,11.51,11.51,0,0,1,.58-3.89,4,4,0,0,1,4-3A3.91,3.91,0,0,1,19.8,282.67Zm-1.68,8.85c.52-.77.77-2.2.77-4.29a10.62,10.62,0,0,0-.55-3.72,2.13,2.13,0,0,0-2.17-1.46A2.27,2.27,0,0,0,14,283.44a9.6,9.6,0,0,0-.68,4.08,10.07,10.07,0,0,0,.43,3.27,2.39,2.39,0,0,0,2.29,1.88A2.36,2.36,0,0,0,18.12,291.52Z"/><path class="cls-3" d="M30.37,282.67a9.53,9.53,0,0,1,.89,4.5,10.78,10.78,0,0,1-.81,4.48,3.94,3.94,0,0,1-3.82,2.54,3.82,3.82,0,0,1-3.56-2.08,9.49,9.49,0,0,1-1-4.65,11.51,11.51,0,0,1,.58-3.89,4,4,0,0,1,4-3A3.92,3.92,0,0,1,30.37,282.67Zm-1.68,8.85a8.39,8.39,0,0,0,.77-4.29,10.37,10.37,0,0,0-.56-3.72,2.12,2.12,0,0,0-2.16-1.46,2.25,2.25,0,0,0-2.16,1.39,9.43,9.43,0,0,0-.69,4.08,10,10,0,0,0,.44,3.27,2.38,2.38,0,0,0,4.36.73Z"/></g><g class="cls-2"><path class="cls-3" d="M2.19,246.46v-1.28a6.79,6.79,0,0,0,2.52-.59,2.88,2.88,0,0,0,1.07-2H7.09v13.23H5.31v-9.41Z"/><path class="cls-3" d="M13.28,252.48a2.31,2.31,0,0,0,1.33,2,3.1,3.1,0,0,0,1.37.28,2.59,2.59,0,0,0,2.2-1,3.37,3.37,0,0,0,.71-2.1,2.77,2.77,0,0,0-.84-2.15,3.22,3.22,0,0,0-3.52-.42,3.18,3.18,0,0,0-1,.92L12,250l1-7.15h6.9v1.61H14.29l-.56,3.69a4.47,4.47,0,0,1,.88-.53,4.54,4.54,0,0,1,1.71-.3,4.36,4.36,0,0,1,3.1,1.18,3.87,3.87,0,0,1,1.27,3,5.12,5.12,0,0,1-1.16,3.33,4.54,4.54,0,0,1-3.72,1.43,4.72,4.72,0,0,1-2.87-.91,3.64,3.64,0,0,1-1.39-2.81Z"/><path class="cls-3" d="M30.37,244.71a9.53,9.53,0,0,1,.89,4.5,10.81,10.81,0,0,1-.81,4.48,4,4,0,0,1-3.82,2.54,3.82,3.82,0,0,1-3.56-2.08,9.49,9.49,0,0,1-1-4.65,11.51,11.51,0,0,1,.58-3.89,4,4,0,0,1,4-3A3.93,3.93,0,0,1,30.37,244.71Zm-1.68,8.85a8.39,8.39,0,0,0,.77-4.29,10.34,10.34,0,0,0-.56-3.72,2.11,2.11,0,0,0-2.16-1.46,2.25,2.25,0,0,0-2.16,1.38,9.51,9.51,0,0,0-.69,4.09,10.08,10.08,0,0,0,.44,3.27,2.38,2.38,0,0,0,4.36.73Z"/></g><g class="cls-2"><path class="cls-3" d="M1.67,214.92a5.68,5.68,0,0,1,2.41-2.31l1.78-1a8.43,8.43,0,0,0,1.68-1.19,2.6,2.6,0,0,0,.06-3.61,2.51,2.51,0,0,0-1.85-.69,2.43,2.43,0,0,0-2.38,1.31A4.82,4.82,0,0,0,3,209.33H1.29a5.86,5.86,0,0,1,.64-2.83,4,4,0,0,1,3.83-1.93,4.12,4.12,0,0,1,3.33,1.24,4.12,4.12,0,0,1,1.06,2.74A3.74,3.74,0,0,1,9,211.28a11.06,11.06,0,0,1-2.33,1.6l-1.27.7a8,8,0,0,0-1.43,1,3.46,3.46,0,0,0-1.16,1.79h7.25v1.57H1A7.69,7.69,0,0,1,1.67,214.92Z"/><path class="cls-3" d="M19.8,206.74a9.46,9.46,0,0,1,.89,4.5,10.79,10.79,0,0,1-.8,4.48,4,4,0,0,1-3.83,2.55,3.84,3.84,0,0,1-3.56-2.08,9.53,9.53,0,0,1-1-4.66,11.55,11.55,0,0,1,.58-3.89,4,4,0,0,1,4-3A3.93,3.93,0,0,1,19.8,206.74Zm-1.68,8.85c.52-.76.77-2.19.77-4.28a10.68,10.68,0,0,0-.55-3.73,2.13,2.13,0,0,0-2.17-1.46A2.27,2.27,0,0,0,14,207.51a9.66,9.66,0,0,0-.68,4.09,10,10,0,0,0,.43,3.26,2.38,2.38,0,0,0,4.36.73Z"/><path class="cls-3" d="M30.37,206.74a9.58,9.58,0,0,1,.89,4.5,10.78,10.78,0,0,1-.81,4.48,4,4,0,0,1-3.82,2.55,3.84,3.84,0,0,1-3.56-2.08,9.53,9.53,0,0,1-1-4.66,11.55,11.55,0,0,1,.58-3.89,4,4,0,0,1,4-3A3.94,3.94,0,0,1,30.37,206.74Zm-1.68,8.85a8.32,8.32,0,0,0,.77-4.28,10.43,10.43,0,0,0-.56-3.73,2.12,2.12,0,0,0-2.16-1.46,2.25,2.25,0,0,0-2.16,1.39,9.48,9.48,0,0,0-.69,4.09,10,10,0,0,0,.44,3.26,2.38,2.38,0,0,0,4.36.73Z"/></g><g class="cls-2"><path class="cls-3" d="M1.67,177a5.79,5.79,0,0,1,2.41-2.31l1.78-1a8,8,0,0,0,1.68-1.19,2.42,2.42,0,0,0,.76-1.76,2.46,2.46,0,0,0-.7-1.85,2.54,2.54,0,0,0-1.85-.68,2.42,2.42,0,0,0-2.38,1.3A4.87,4.87,0,0,0,3,171.37H1.29a5.84,5.84,0,0,1,.64-2.83,4,4,0,0,1,3.83-1.93,4.15,4.15,0,0,1,3.33,1.23,4.17,4.17,0,0,1,1.06,2.75A3.75,3.75,0,0,1,9,173.32a10.74,10.74,0,0,1-2.33,1.59l-1.27.71a8.61,8.61,0,0,0-1.43.95,3.54,3.54,0,0,0-1.16,1.79h7.25v1.58H1A7.78,7.78,0,0,1,1.67,177Z"/><path class="cls-3" d="M13.28,176.55a2.29,2.29,0,0,0,1.33,2,3.1,3.1,0,0,0,1.37.28,2.59,2.59,0,0,0,2.2-.95,3.37,3.37,0,0,0,.71-2.09,2.77,2.77,0,0,0-.84-2.16,3.22,3.22,0,0,0-3.52-.42,3.18,3.18,0,0,0-1,.92L12,174l1-7.15h6.9v1.61H14.29l-.56,3.69a4,4,0,0,1,.88-.52,4.35,4.35,0,0,1,1.71-.31,4.36,4.36,0,0,1,3.1,1.18,3.87,3.87,0,0,1,1.27,3,5.12,5.12,0,0,1-1.16,3.33,4.54,4.54,0,0,1-3.72,1.43,4.72,4.72,0,0,1-2.87-.91,3.62,3.62,0,0,1-1.39-2.81Z"/><path class="cls-3" d="M30.37,168.78a9.53,9.53,0,0,1,.89,4.5,10.78,10.78,0,0,1-.81,4.48,3.94,3.94,0,0,1-3.82,2.54,3.82,3.82,0,0,1-3.56-2.08,9.49,9.49,0,0,1-1-4.65,11.51,11.51,0,0,1,.58-3.89,4,4,0,0,1,4-3A3.92,3.92,0,0,1,30.37,168.78Zm-1.68,8.85a8.39,8.39,0,0,0,.77-4.29,10.37,10.37,0,0,0-.56-3.72,2.12,2.12,0,0,0-2.16-1.46,2.25,2.25,0,0,0-2.16,1.38,9.51,9.51,0,0,0-.69,4.09,10,10,0,0,0,.44,3.27,2.38,2.38,0,0,0,4.36.73Z"/></g><g class="cls-2"><path class="cls-3" d="M1.88,141a4.84,4.84,0,0,1-1.06-3.15H2.57a4.27,4.27,0,0,0,.48,1.88,2.52,2.52,0,0,0,2.35,1,3.07,3.07,0,0,0,2.11-.7,2.33,2.33,0,0,0,.8-1.82,2.13,2.13,0,0,0-.84-1.92,4.29,4.29,0,0,0-2.33-.55H4.45v-1.47l.44,0h.38a3.65,3.65,0,0,0,1.54-.29,1.9,1.9,0,0,0,1.05-1.86,1.81,1.81,0,0,0-.7-1.53,2.63,2.63,0,0,0-1.64-.54,2.41,2.41,0,0,0-2.31,1.12,3.72,3.72,0,0,0-.4,1.74H1.16a5,5,0,0,1,.59-2.52,3.74,3.74,0,0,1,3.59-1.86,4.86,4.86,0,0,1,3.15.91A3.17,3.17,0,0,1,9.6,132.2a2.92,2.92,0,0,1-.66,2,2.74,2.74,0,0,1-1.06.74A3,3,0,0,1,9.52,136a3.39,3.39,0,0,1,.59,2,4.11,4.11,0,0,1-1.25,3.1,5,5,0,0,1-3.56,1.2A4.16,4.16,0,0,1,1.88,141Z"/><path class="cls-3" d="M19.8,130.81a9.46,9.46,0,0,1,.89,4.5,10.79,10.79,0,0,1-.8,4.48,4,4,0,0,1-3.83,2.55,3.84,3.84,0,0,1-3.56-2.08,9.53,9.53,0,0,1-1-4.66,11.55,11.55,0,0,1,.58-3.89,4,4,0,0,1,4-3A3.93,3.93,0,0,1,19.8,130.81Zm-1.68,8.85c.52-.76.77-2.19.77-4.28a10.68,10.68,0,0,0-.55-3.73,2.13,2.13,0,0,0-2.17-1.46A2.28,2.28,0,0,0,14,131.58a9.66,9.66,0,0,0-.68,4.09,10,10,0,0,0,.43,3.26,2.38,2.38,0,0,0,4.36.73Z"/><path class="cls-3" d="M30.37,130.81a9.58,9.58,0,0,1,.89,4.5,10.78,10.78,0,0,1-.81,4.48,4,4,0,0,1-3.82,2.55,3.84,3.84,0,0,1-3.56-2.08,9.53,9.53,0,0,1-1-4.66,11.55,11.55,0,0,1,.58-3.89,4,4,0,0,1,4-3A3.94,3.94,0,0,1,30.37,130.81Zm-1.68,8.85a8.32,8.32,0,0,0,.77-4.28,10.43,10.43,0,0,0-.56-3.73,2.12,2.12,0,0,0-2.16-1.46,2.26,2.26,0,0,0-2.16,1.39,9.48,9.48,0,0,0-.69,4.09,10,10,0,0,0,.44,3.26,2.38,2.38,0,0,0,4.36.73Z"/></g><g class="cls-2"><path class="cls-3" d="M1.88,103.08A4.84,4.84,0,0,1,.82,99.93H2.57a4.27,4.27,0,0,0,.48,1.88,2.55,2.55,0,0,0,2.35,1,3.07,3.07,0,0,0,2.11-.7,2.33,2.33,0,0,0,.8-1.82,2.13,2.13,0,0,0-.84-1.92,4.21,4.21,0,0,0-2.33-.55H4.45V96.41l.44,0h.38a3.65,3.65,0,0,0,1.54-.29A1.9,1.9,0,0,0,7.86,94.3a1.81,1.81,0,0,0-.7-1.53,2.63,2.63,0,0,0-1.64-.54,2.42,2.42,0,0,0-2.31,1.11,3.8,3.8,0,0,0-.4,1.75H1.16a5,5,0,0,1,.59-2.52,3.74,3.74,0,0,1,3.59-1.86,4.92,4.92,0,0,1,3.15.9A3.21,3.21,0,0,1,9.6,94.24a2.92,2.92,0,0,1-.66,2A2.74,2.74,0,0,1,7.88,97a2.86,2.86,0,0,1,1.64,1.11,3.39,3.39,0,0,1,.59,2,4.11,4.11,0,0,1-1.25,3.1,5,5,0,0,1-3.56,1.2A4.19,4.19,0,0,1,1.88,103.08Z"/><path class="cls-3" d="M13.28,100.63a2.29,2.29,0,0,0,1.33,2,3.1,3.1,0,0,0,1.37.28,2.58,2.58,0,0,0,2.2-.94,3.39,3.39,0,0,0,.71-2.1,2.74,2.74,0,0,0-.84-2.15,3,3,0,0,0-2-.76,2.92,2.92,0,0,0-2.53,1.26L12,98.1,13,91h6.9v1.62H14.29l-.56,3.69a4,4,0,0,1,.88-.53,4.54,4.54,0,0,1,1.71-.31,4.4,4.4,0,0,1,3.1,1.18,3.89,3.89,0,0,1,1.27,3,5.11,5.11,0,0,1-1.16,3.32,4.52,4.52,0,0,1-3.72,1.44,4.73,4.73,0,0,1-2.87-.92,3.6,3.6,0,0,1-1.39-2.8Z"/><path class="cls-3" d="M30.37,92.85a9.58,9.58,0,0,1,.89,4.5,10.78,10.78,0,0,1-.81,4.48,4,4,0,0,1-3.82,2.55,3.84,3.84,0,0,1-3.56-2.08,9.53,9.53,0,0,1-1-4.66,11.55,11.55,0,0,1,.58-3.89,4,4,0,0,1,4-3A3.94,3.94,0,0,1,30.37,92.85Zm-1.68,8.85a8.32,8.32,0,0,0,.77-4.28,10.43,10.43,0,0,0-.56-3.73,2.12,2.12,0,0,0-2.16-1.46,2.25,2.25,0,0,0-2.16,1.39,9.48,9.48,0,0,0-.69,4.09,10,10,0,0,0,.44,3.26,2.38,2.38,0,0,0,4.36.73Z"/></g><g class="cls-2"><path class="cls-3" d="M6.68,66.07V62.82H.85V61.19l6.09-8.44H8.35v8.62h2v1.45h-2v3.25Zm0-4.7v-6l-4.26,6Z"/><path class="cls-3" d="M19.8,54.91a9.41,9.41,0,0,1,.89,4.5,10.82,10.82,0,0,1-.8,4.48,4,4,0,0,1-3.83,2.54,3.82,3.82,0,0,1-3.56-2.08,9.49,9.49,0,0,1-1-4.65,11.51,11.51,0,0,1,.58-3.89,4,4,0,0,1,4-3A3.92,3.92,0,0,1,19.8,54.91Zm-1.68,8.85c.52-.77.77-2.2.77-4.29a10.58,10.58,0,0,0-.55-3.72,2.12,2.12,0,0,0-2.17-1.46A2.27,2.27,0,0,0,14,55.67a9.69,9.69,0,0,0-.68,4.09A10.11,10.11,0,0,0,13.76,63a2.39,2.39,0,0,0,2.29,1.88A2.36,2.36,0,0,0,18.12,63.76Z"/><path class="cls-3" d="M30.37,54.91a9.53,9.53,0,0,1,.89,4.5,10.81,10.81,0,0,1-.81,4.48,4,4,0,0,1-3.82,2.54,3.82,3.82,0,0,1-3.56-2.08,9.49,9.49,0,0,1-1-4.65,11.51,11.51,0,0,1,.58-3.89,4,4,0,0,1,4-3A3.93,3.93,0,0,1,30.37,54.91Zm-1.68,8.85a8.39,8.39,0,0,0,.77-4.29,10.34,10.34,0,0,0-.56-3.72,2.11,2.11,0,0,0-2.16-1.46,2.25,2.25,0,0,0-2.16,1.38,9.51,9.51,0,0,0-.69,4.09A10.08,10.08,0,0,0,24.33,63a2.38,2.38,0,0,0,4.36.73Z"/></g><g class="cls-2"><path class="cls-3" d="M392.53,391.44c-.89.31-1.78.6-2.67.92v6.93c0,.94-.21,1.35-.76,1.61a7.6,7.6,0,0,1-3,.29,6.18,6.18,0,0,0-.46-1.47c1.06,0,2,0,2.28,0s.44-.09.44-.43v-6.43c-1,.36-2,.65-2.88.93l-.44-1.53c.92-.29,2.07-.63,3.32-1v-5.42h-3v-1.49h3v-4.85h1.48v4.85h2.69v1.49h-2.69v4.94l2.48-.79Zm7.92,7.92a15,15,0,0,0,2.38.17c.55,0,3.84,0,4.6,0A4.45,4.45,0,0,0,407,401h-4.17c-3.55,0-6.1-.7-7.63-4.13a10.72,10.72,0,0,1-3,4.51,7.42,7.42,0,0,0-1.2-1c2.19-1.7,3.27-4.42,3.65-8l1.49.19a18.79,18.79,0,0,1-.48,2.56A5.68,5.68,0,0,0,399,399v-7.83h-5.9v-1.34h13.61v1.34h-6.22v3h5.06v1.32h-5.06Zm4.87-11.4H394.14v-7.7h11.18Zm-1.51-6.45H395.6v2h8.21Zm0,3.16H395.6v2.07h8.21Z"/><path class="cls-3" d="M431,390.65h-5.23v10.68h-1.61V390.65H416.6c-.17,4-1.17,7.9-6.12,10.73a5.84,5.84,0,0,0-1.13-1.2c4.54-2.54,5.5-6,5.67-9.53h-5.43v-1.54H415v-5.52c-1.56.44-3.14.84-4.68,1.2a4.45,4.45,0,0,0-.55-1.29c3.79-.87,8.09-2.19,10.44-3.63l1.22,1.3a30.24,30.24,0,0,1-4.84,1.94v6h7.53V380h1.61v9.16H431Z"/><path class="cls-3" d="M441.75,399.17c0,.91-.21,1.37-.76,1.63a8,8,0,0,1-3.1.32,6.44,6.44,0,0,0-.5-1.54c1.15.05,2.13.05,2.4.05s.45-.12.45-.46V391.8c-1.06.82-2.11,1.56-3.07,2.26l-.79-1.32c1-.53,2.42-1.39,3.86-2.31v-2.28l-.84.68a25.93,25.93,0,0,0-2.9-3.15l1-.74a33.09,33.09,0,0,1,2.78,2.81v-5.91h-3.77v7.06c0,3.7-.24,8.93-1.94,12.46a6.45,6.45,0,0,0-1.32-.8c1.65-3.36,1.77-8.13,1.77-11.66v-8.57h6.77Zm11.48.22a.68.68,0,0,0,.5-.17,1.45,1.45,0,0,0,.24-.84c0-.55.07-1.73.07-3.24a4.29,4.29,0,0,0,1.3.7c0,1.27-.1,2.9-.19,3.47a1.91,1.91,0,0,1-.6,1.25,2.13,2.13,0,0,1-1.2.32h-1.16a1.88,1.88,0,0,1-1.29-.44c-.39-.31-.51-.72-.51-2.76V381.87h-4.22v8.61c0,3.46-.31,8-2.62,10.95a7,7,0,0,0-1.32-1c2.16-2.74,2.36-6.75,2.36-10V380.33H452V397.9c0,.82,0,1.25.14,1.37a.85.85,0,0,0,.41.12Z"/><path class="cls-3" d="M475.52,386.91a18.71,18.71,0,0,0,2.55-.15c0,.43.09.79.14,1.08a13.6,13.6,0,0,1-2.52.15h-6.26c-1.71,0-2.16-.56-2.21-1.78l-4.83.24-.07-.91,4.9-.24v-1.13h-6.34v5.06c0,3.41-.31,8.36-2.21,11.69a5.63,5.63,0,0,0-1.34-.79c1.82-3.21,2-7.7,2-10.9V383h7.87v-3.55h1.58v1.35h8.11v1.12H468.8V383H477l.29-.07,1.13.34a20.2,20.2,0,0,1-1.42,3l-1.34-.45a14.51,14.51,0,0,0,.76-1.61h-7.75v1.08l5.79-.29,0,.89-5.83.31c0,.55.17.75,1,.75Zm-13,2h14.61v4.49H462.47ZM476,399.68c0,.74-.15,1-.72,1.24a13.44,13.44,0,0,1-3.1.17,3.47,3.47,0,0,0-.46-1c1.11,0,2.12,0,2.38,0s.36-.1.36-.34v-1.39c-2.93.41-5.9.77-8.23,1.05l-.43-1.2c2.23-.16,5.47-.48,8.66-.81v-2.14h-9.24v1.68a6.38,6.38,0,0,1-1.56,4.63,7.3,7.3,0,0,0-1.22-1,4.78,4.78,0,0,0,1.24-3.65v-2.55H476ZM464,390.75h4.95v-1H464Zm0,1.82h4.95v-1H464Zm2.79,3a30.54,30.54,0,0,1,6.19,1l-.46.88a37.74,37.74,0,0,0-6.19-1.13Zm8.81-5.79h-5.19v1h5.19Zm0,1.83h-5.19v1h5.19Z"/><path class="cls-3" d="M500.6,382.73v18.51H499V400h-13v1.37h-1.61V382.73h6a24.76,24.76,0,0,0,1-3.31l1.8.26c-.36,1-.79,2.14-1.2,3.05Zm-14.66,1.54v3.79h13v-3.79Zm0,5.28v3.69h13v-3.69Zm13,8.93v-3.75h-13v3.75Z"/><path class="cls-3" d="M505.4,400.73a19.84,19.84,0,0,0,3.17-4.61l1.44.41a26.45,26.45,0,0,1-3.17,4.8ZM516.56,382c-1.44,7-5.16,11.11-9.72,13.23a5.26,5.26,0,0,0-1.1-1.23,14.69,14.69,0,0,0,7.08-6.14,28.15,28.15,0,0,0-3.43-3.12,17.6,17.6,0,0,1-3.2,3.72,8.43,8.43,0,0,0-.72-1.27,18.68,18.68,0,0,0,5-7.9l1.51.46c-.24.62-.52,1.27-.81,1.89h4.17l.29-.05Zm-5.62,7.32-4.7,1.47-.46-1.28c1.32-.28,3.15-.74,5-1.22Zm-.5-6.33c-.14.24-.26.5-.41.74a31,31,0,0,1,3.44,2.93,21.12,21.12,0,0,0,1.32-3.67Zm3.67,13.68a24.42,24.42,0,0,1,.6,4.25l-1.56.24a25.25,25.25,0,0,0-.5-4.35Zm11.69-1.4a52.36,52.36,0,0,0-4.53-7.94,13.9,13.9,0,0,1-6,8.21,6.63,6.63,0,0,0-1.2-1,13.08,13.08,0,0,0,5.91-8.36h-3.7V384.6h4a19.88,19.88,0,0,0,.12-2.35v-2.52h1.51v2.54c0,.72,0,1.49-.09,2.33H527v1.51h-4.77a50.68,50.68,0,0,1,5,8.43ZM519,396.44a20.93,20.93,0,0,1,1.56,4.32l-1.53.33a22,22,0,0,0-1.49-4.37Zm4.88-.44a26.65,26.65,0,0,1,3.26,4.68l-1.46.68a30.13,30.13,0,0,0-3.2-4.78Zm1.27-12a17.84,17.84,0,0,0-2.62-3.27l1.18-.69a16.57,16.57,0,0,1,2.66,3.19Z"/><path class="cls-3" d="M429.59,409.85c-.75,2-1.73,4.51-2.6,6.48a7.63,7.63,0,0,1,2.36,5.38,3.34,3.34,0,0,1-1,2.76,3.24,3.24,0,0,1-1.3.45,14.53,14.53,0,0,1-1.75,0,3.37,3.37,0,0,0-.44-1.47,12.63,12.63,0,0,0,1.59,0,1.54,1.54,0,0,0,.84-.24c.41-.27.53-1,.53-1.71a7.11,7.11,0,0,0-2.38-5c.79-1.82,1.61-4.08,2.16-5.78h-3.79v19.37h-1.49V409.27h5.93l.24-.07Zm5.06,4c0,1.3-.1,2.54-.19,3.77h7.13s0,.55,0,.77c-.29,7.46-.55,10.13-1.27,11a2.09,2.09,0,0,1-1.61.74,24.85,24.85,0,0,1-3.29,0,4,4,0,0,0-.48-1.56c1.35.12,2.64.14,3.12.14a1,1,0,0,0,.89-.31c.51-.58.82-2.91,1-9.24h-5.66c-.53,4.7-2,8.66-6.12,11a4.81,4.81,0,0,0-1.06-1.15c5.33-2.91,5.79-8.69,6-15.1h-3.92v-1.49H443v1.49Zm1.18-1.54a32.73,32.73,0,0,0-1.13-3.6l1.46-.33a28.68,28.68,0,0,1,1.15,3.48Z"/><path class="cls-3" d="M450.66,408.89a25.06,25.06,0,0,1-4.9,4.22A7.41,7.41,0,0,0,445,412a18.35,18.35,0,0,0,4.35-3.67Zm-2.67,7.3a20.68,20.68,0,0,1-2.33,1.6,8,8,0,0,0-.57-1.34,19.15,19.15,0,0,0,4.75-3.82l1.32.58a18.07,18.07,0,0,1-1.8,1.82v5H448Zm18.94,7.53V425h-9.79v5.16h-1.61V425h-9.91v-1.23Zm-14.67,2.14A22,22,0,0,1,447,429.8a8.75,8.75,0,0,0-1-1.25,17.67,17.67,0,0,0,4.85-3.19Zm-3.86-4.92h15.65v1.2H448.4Zm6.55-7.11h-3.69v-1.15H455v-1.92h-1.82a7.18,7.18,0,0,1-.7,1,6.24,6.24,0,0,0-1.13-.58,8.81,8.81,0,0,0,1.69-3l1.24.31a7.21,7.21,0,0,1-.48,1.13h5.74v1.17h-3.22v1.92H460v1.15h-3.7v1.4h3.32v1h-3.32v1.8l3.46-.29c0,.36-.05.86-.05,1.15-7,.58-7.82.7-8.33.89a3.88,3.88,0,0,0-.45-1.18,1.05,1.05,0,0,0,.93-1.12v-2.67H453v3.48l1.94-.17Zm5.91,11.43a49.26,49.26,0,0,1,5.78,3.26l-.89,1.16a44.88,44.88,0,0,0-5.76-3.44Zm1.32-5.35h-1.3V409.23h5.52v7.29c0,.65-.09,1-.55,1.2a5.65,5.65,0,0,1-2.21.24,4.23,4.23,0,0,0-.43-1.15h1.61c.21,0,.29-.07.29-.29v-6h-2.93Z"/><path class="cls-3" d="M490,413.52s0,.65-.05.87c-.58,10-1.06,13.49-2.14,14.66a2.44,2.44,0,0,1-2,.91,25.66,25.66,0,0,1-3.79-.09,4,4,0,0,0-.55-1.61c1.66.14,3.19.17,3.79.17a1.38,1.38,0,0,0,1.11-.36c.86-.84,1.39-4.28,1.87-12.94h-8.4c-.34,5-1.95,10.78-8.93,15.1a5,5,0,0,0-1.23-1.25,16.37,16.37,0,0,0,8.5-13.85h-7.8v-1.61h7.87c0-.43,0-.81,0-1.22v-4h1.65v4c0,.41,0,.79,0,1.22Z"/></g><g class="cls-2"><path class="cls-3" d="M84.74,397.15l.08,1.33-9.41,2L75.05,399l4.49-.84v-7.08H75.29v-1.42h4.25v-2.76H76.87v-1c-.43.36-.84.72-1.27,1.05a7.66,7.66,0,0,0-.77-1.58,18.21,18.21,0,0,0,5.38-6.05l1.34.55a9.05,9.05,0,0,1-.57,1,32.47,32.47,0,0,1,4.39,3.29l-.91,1.25a33.24,33.24,0,0,0-4.23-3.36,23.62,23.62,0,0,1-3,3.48h6.6v1.39H81v2.76h3.77v1.42H81v6.81Zm-7.56-4.7a25.11,25.11,0,0,1,1.06,4.47l-1.22.31a23,23,0,0,0-1-4.49Zm4.59,4.18A37.63,37.63,0,0,0,83,392.16l1.3.41c-.48,1.46-1,3.27-1.49,4.39Zm14.59-7.52h-5v12.2H89.74v-12.2h-5v-1.58h5v-7.85h1.61v7.85h5Z"/><path class="cls-3" d="M120.07,394.64V396h-9.91v5.36h-1.58V396H98.74v-1.31h9.84v-1.85H102.1v-5.74H98.78v-1.3h3.32V384h1.56v1.8h4.15v-2h1.51v2h5.21v-1.82H113.4v-1.54h-3.53V381.1h3.53v-1.63H115v1.63h5v1.29h-5v1.52h1.1v1.84H120v1.3h-3.89V390h-8.28v-2.95h-4.15v4.42h15.57v1.32h-9.07v1.85ZM103.8,382.39H98.9V381.1h4.9v-1.66h1.58v1.66h3.46v1.29h-3.46v1.52H103.8Zm1.7,14.33a16.07,16.07,0,0,1-4.77,4.35,8.42,8.42,0,0,0-1.3-1,13.19,13.19,0,0,0,4.54-3.8Zm3.82-9.67v1.85h5.21v-1.85Zm5.07,9.12a35.71,35.71,0,0,1,5,3.91l-1.27,1a35.67,35.67,0,0,0-4.95-4.08Z"/><path class="cls-3" d="M80.81,420.58a31.49,31.49,0,0,0-1.66-3.15v12.65H77.74V418.42a27.19,27.19,0,0,1-2.67,6.72,7,7,0,0,0-.84-1.51,28.6,28.6,0,0,0,3.34-9.24H74.74v-1.52h3v-4.63h1.41v4.63h2.62v1.52H79.15v1.22c.6.79,2.23,3.14,2.59,3.79Zm3.91-2.5a12.75,12.75,0,0,1-2.09,3l-.93-.82a9.85,9.85,0,0,0,2-2.73Zm10.11,12.08a41,41,0,0,0-5.29-2.09,19.1,19.1,0,0,1-7.05,2.13,4.73,4.73,0,0,0-.65-1.24,19.7,19.7,0,0,0,6-1.47c-1.44-.46-2.88-.84-4.2-1.15A26.49,26.49,0,0,0,85,424.06H81.84v-1.3H85.7A21.91,21.91,0,0,0,86.93,420l1.42.24c-.32.79-.68,1.68-1.11,2.52h4.87c.12-.36.22-.72.32-1.13l1.39.29c-.07.27-.15.56-.22.84H96v1.3H93.12a8.14,8.14,0,0,1-2.33,3.12,48,48,0,0,1,5.33,2ZM88.1,417.34H82.46V409H88.1Zm-1.29-7.25H83.74v1.34h3.07Zm0,2.38H83.74v1.36h3.07Zm0,2.4H83.74v1.41h3.07Zm-.24,9.19-1,1.68c1.15.26,2.37.6,3.6,1a7.25,7.25,0,0,0,2.33-2.64Zm.14-6.46a22.89,22.89,0,0,1,1.71,1.71l-1,.67a21.17,21.17,0,0,0-1.66-1.83Zm5,.51a14,14,0,0,1-2.11,3l-1-.86a9.39,9.39,0,0,0,2-2.67Zm3.6-.77H89.45V409h5.83ZM94,410.09H90.7v1.34H94Zm0,2.38H90.7v1.36H94Zm0,2.4H90.7v1.41H94Zm-.12,2.64a25,25,0,0,1,2.18,2.56l-1,.77A27.12,27.12,0,0,0,93,418.08Z"/><path class="cls-3" d="M105.17,420.6a37,37,0,0,0-2-3.45v12.93h-1.52V418.56a27.53,27.53,0,0,1-2.64,6.6,9.8,9.8,0,0,0-.84-1.53,28.63,28.63,0,0,0,3.36-9.24h-3v-1.52h3.12v-4.63h1.52v4.63h2.4v1.52h-2.4v.81c.67.89,2.56,3.51,3,4.18Zm5-12.33h1.49v9.81c0,4.25-.48,9.34-5.57,12.1a6.35,6.35,0,0,0-1-1.18c3.6-1.7,4.66-4.75,5-7.7-1.25,1.06-2.55,2.14-3.67,3.05l-.8-1.42c1.13-.74,2.86-2,4.56-3.26,0-.53,0-1.08,0-1.59Zm-1.71,9a25.78,25.78,0,0,0-2.13-4.92l1.17-.5a22.57,22.57,0,0,1,2.24,4.84Zm10,11c.53,0,.63-.63.68-3a4,4,0,0,0,1.36.65c-.14,2.81-.52,3.79-1.94,3.79h-2.43c-1.58,0-2-.53-2-2.52v-19h1.52v11.47l.69-.63a36,36,0,0,1,4.16,4.06l-1,1a35.12,35.12,0,0,0-3.86-4v7c0,.87.12,1,.72,1Zm1.56-16c-.88,1.68-1.92,3.67-2.8,5l-1.16-.58a32.63,32.63,0,0,0,2.5-5Z"/></g><rect class="cls-4" x="71.37" y="350.94" width="51.42" height="18.85"/><g class="cls-2"><path class="cls-3" d="M205,395.64h-21.2V394.2h9.77v-2.33h-7.8v-1.34h7.8v-2.11h-7.37v-8h16.28v8h-7.32v2.11h7.8v1.34h-7.8v2.33H205Zm-21.12,5.07a11,11,0,0,0,2.68-4l1.52.36a12.29,12.29,0,0,1-2.76,4.35Zm9.69-13.64v-5.32h-5.83v5.32Zm-3.29-4.68A13.2,13.2,0,0,1,191.9,386l-1.16.43a13.55,13.55,0,0,0-1.56-3.62Zm1.83,14.76a18.8,18.8,0,0,1,.53,3.82l-1.54.22a24.16,24.16,0,0,0-.46-3.92Zm8.76-15.4h-5.71v5.32h5.71ZM197,397a27.2,27.2,0,0,1,1.4,3.77l-1.57.38a24.39,24.39,0,0,0-1.29-3.84Zm-.72-10.78a28.84,28.84,0,0,0,1.95-3.84l1.22.48c-.65,1.3-1.49,2.84-2.11,3.8Zm5.52,10.49a21.93,21.93,0,0,1,3.24,4l-1.53.63a23.81,23.81,0,0,0-3.12-4.13Z"/><path class="cls-3" d="M213.3,383.76v-1h-5.47v-1.39h5.47v-1.92h1.56v1.92h3v1.39h-3v1.42H213.3V384c-.19.38-.38.72-.6,1.1h15.77v1.34H211.91a18,18,0,0,1-3.33,3.89,3.94,3.94,0,0,0-1.18-1,16.07,16.07,0,0,0,4.39-5.86ZM226,393.89c-.09,1.42-.19,2.57-.31,3.46h2.59v1.25H225.5a4,4,0,0,1-.63,1.8,2.1,2.1,0,0,1-1.63.72A27.67,27.67,0,0,1,220,401a3.57,3.57,0,0,0-.44-1.27,28.67,28.67,0,0,0,3.1.15,1,1,0,0,0,.89-.32,2.07,2.07,0,0,0,.41-1H210.59c.19-1.25.41-3,.6-4.71h-3.57v-1.34h3.69c.17-1.56.29-3.12.39-4.47h14.54v.75c-.05,1.39-.12,2.64-.17,3.72H229v1.34Zm-1.85,3.46c.12-.87.24-2,.34-3.46H212.7c-.12,1.25-.24,2.42-.38,3.46Zm-11-8c-.1,1-.2,2.14-.29,3.22h7.27a15.73,15.73,0,0,0-3.77-2.19l.84-.89a16.3,16.3,0,0,1,3.84,2.14l-.81.94h4.32c0-1,.12-2,.16-3.22Zm7,7.92a17.89,17.89,0,0,0-4.23-2.33l.84-.89a18.8,18.8,0,0,1,4.28,2.24Zm1.49-14.45h-3v-1.39h3v-1.92h1.56v1.92h5.52v1.39h-5.52v1.42h-1.56Z"/><path class="cls-3" d="M205,425h-9.89v5.12h-1.56V425h-9.72v-1.48h9.72v-1.32h1a5.79,5.79,0,0,0-.82-.77,7.26,7.26,0,0,0,4.68-4.92l1.51.17a7.61,7.61,0,0,1-.91,2.2,32.56,32.56,0,0,1,4.44,3.05l-1.15,1a29.47,29.47,0,0,0-4.08-3,10,10,0,0,1-3.1,2.43v1.13H205Zm-16.42-13.51H183.9v-1.39h4.68v-1.82h1.59v1.82h3.69v1.39h-3.69v1.85h-1.59Zm5.09,3.22c-.26-.58-.62-1.2-.91-1.71l1.49-.48c.41.65.89,1.52,1.22,2.19h8.31v1.46H185.1V414.7Zm-2.35,2a19.15,19.15,0,0,1-.74,1.82,21.44,21.44,0,0,1,3,2.23l-1,1a28.6,28.6,0,0,0-2.71-2.14,11.18,11.18,0,0,1-3.58,3.34,9.32,9.32,0,0,0-1.1-1.06,9.15,9.15,0,0,0,4.65-5.5Zm7.3-5.26h-3.75v-1.39h3.75v-1.8h1.56v1.8H205v1.39h-4.77v1.87h-1.56Z"/><path class="cls-3" d="M217.36,411.27V430H215.8V425.6c-3.07.5-6.22,1-8.5,1.36l-.28-1.6c.69-.08,1.48-.17,2.37-.29v-13.8H207.5v-1.49h11.56v1.49Zm-1.56,0h-4.9v3.33h4.9Zm0,4.77h-4.9v3.51h4.9Zm-4.9,8.81c1.54-.21,3.22-.48,4.9-.74V421h-4.9Zm17.62-13a29.34,29.34,0,0,1-4,12.12,13.78,13.78,0,0,0,5,4.58,6.34,6.34,0,0,0-1.13,1.32,15.24,15.24,0,0,1-4.92-4.48,17,17,0,0,1-5,4.39,6.06,6.06,0,0,0-1-1.3,15,15,0,0,0,5.14-4.54A33.15,33.15,0,0,1,219,413.52l1.51-.29a30.47,30.47,0,0,0,3.09,9.2,26.31,26.31,0,0,0,3.15-9.29h-8.28v-1.56h8.71l.29-.05Z"/></g><rect class="cls-5" x="180.37" y="360.36" width="51.42" height="9.43"/><rect class="cls-6" x="288.37" y="355.22" width="51.42" height="14.57"/><g class="cls-2"><path class="cls-3" d="M295.34,390.22a22.24,22.24,0,0,0-4-2.83l.88-1a23.89,23.89,0,0,1,4,2.72Zm1.46,2.93c-1,2.45-2.38,5.42-3.53,7.56l-1.34-.94a68,68,0,0,0,3.67-7.56Zm-.24-9.27a20.61,20.61,0,0,0-3.94-2.95l.92-1a19.71,19.71,0,0,1,4,2.8Zm16.54,10.76V396h-7.9c-1,2.69-3.12,4.37-7.82,5.3a4.87,4.87,0,0,0-.82-1.29c4.13-.75,6.05-2,7-4H297v-1.39h7.08c.12-.46.21-.92.29-1.42h1.53a12.33,12.33,0,0,1-.26,1.42Zm-13.32-1.37h-1.44V381.82h5.13a22,22,0,0,0,.87-2.38l1.7.34c-.31.69-.67,1.41-1,2H312V392c0,.67-.12,1-.55,1.23a4.65,4.65,0,0,1-1.92.24,6,6,0,0,0-.51-1.2h1.25c.19,0,.27-.08.27-.27v-8.9H299.78Zm4.65-.6v-3a11.92,11.92,0,0,1-3.29,3.15,5.88,5.88,0,0,0-.79-.92,10.57,10.57,0,0,0,3.53-3.07h-3.19v-1.05h1.87a6.76,6.76,0,0,0-1-1.85l.91-.36a9.56,9.56,0,0,1,1,1.87l-.7.34h1.61V385.2c-1.08.12-2.16.22-3.17.27a3,3,0,0,0-.36-.89,45.13,45.13,0,0,0,7.11-1l.79.86a18.94,18.94,0,0,1-3.17.62v2.72h1.66l-.74-.34a14.82,14.82,0,0,0,1.08-2.09l1.05.43c-.46.72-.89,1.44-1.27,2h2.21v1.05h-4v.07c.72.46,3.05,1.95,3.65,2.43l-.69.93c-.58-.5-2-1.53-3-2.23v2.67Zm2.12,3.69c2.11,1.18,4.94,2.83,6.43,3.87l-1,1.1c-1.42-1.06-4.25-2.81-6.39-4Z"/><path class="cls-3" d="M319.34,389.74a33.3,33.3,0,0,0-4-2.45l.87-1.15a30,30,0,0,1,4.08,2.3Zm-3.56,10.42a72.55,72.55,0,0,0,3.34-7.64l1.27.87A79.83,79.83,0,0,1,317.2,401Zm4.4-16.64a21.55,21.55,0,0,0-3.84-2.66l1-1.13a26.35,26.35,0,0,1,3.86,2.52Zm4-3.53h1.51v8.4c0,4.68-.38,9.29-3.55,12.94a6.22,6.22,0,0,0-1.32-1c3-3.38,3.36-7.66,3.36-12Zm-1.58,12.56a30.44,30.44,0,0,0-1.66-5.72l1.2-.38a28.71,28.71,0,0,1,1.75,5.66Zm4.51-6a26,26,0,0,1,1.65,5.31l-1.19.43a31.41,31.41,0,0,0-1.54-5.38Zm3.72-6.19V400.8H329.3V380.33Zm1.13,5.83a28.11,28.11,0,0,1,2.54,5.59l-1.2.58a28.75,28.75,0,0,0-2.47-5.71Zm4.15-6.19v21.34h-1.54V380Z"/><path class="cls-3" d="M313.22,428.84h-8v1.24h-1.42V415.75a15.51,15.51,0,0,1-1.31,1.88,9,9,0,0,0-.75-.94,2.32,2.32,0,0,1-.41,1.2,1.53,1.53,0,0,1-1.17.58,13.94,13.94,0,0,1-1.9,0,4.13,4.13,0,0,0-.31-1.22c.74.07,1.41.07,1.7.07a.66.66,0,0,0,.63-.24c.26-.36.45-1.8.62-5.62h-6.26a14.81,14.81,0,0,1-2.5,2.84,5.79,5.79,0,0,0-.79-1.18,12.33,12.33,0,0,0,3.62-4.9l1.25.36c-.22.53-.48,1-.74,1.54h6.74s0,.43,0,.65c-.1,2.49-.2,4.15-.34,5.25a20.11,20.11,0,0,0,3.48-7.7l1.37.31a33.31,33.31,0,0,1-1.42,4.23H313v1.44h-3.36v3.4h3.16V419h-3.16v3.46h3.19v1.37h-3.19v3.53h3.55Zm-11.14-9s0,.46,0,.68c-.27,5.47-.56,7.41-1.11,8.06a1.52,1.52,0,0,1-1.25.58,16.24,16.24,0,0,1-2,0,3.32,3.32,0,0,0-.36-1.25,17.13,17.13,0,0,0,1.87.09.83.83,0,0,0,.68-.23c.36-.46.6-2.16.86-6.58h-6.12a12.75,12.75,0,0,1-2.5,2.57,9.34,9.34,0,0,0-.79-1.18,10.44,10.44,0,0,0,3.55-4.44l1.25.31a9.38,9.38,0,0,1-.67,1.39Zm-5.59,6.32A6.35,6.35,0,0,1,293,429.6a4.49,4.49,0,0,0-.82-.81,6.18,6.18,0,0,0,3.07-2.64H293V423h1.08v2h1.56a5.33,5.33,0,0,0,.1-1.05v-1.92h1.1V424a7.33,7.33,0,0,1-.07,1h1.51v-2h1.11v3.12Zm.12-10.16a5.93,5.93,0,0,1-3.43,2.81,4.19,4.19,0,0,0-.82-.81,6,6,0,0,0,2.95-2h-1.87V413h1.08v1.85h1.32a3.49,3.49,0,0,0,.12-1v-1.77h1.1v1.82a4.64,4.64,0,0,1-.09,1h1.39V413h1.13V416Zm11.61-1.72h-3v3.4h3Zm0,4.77h-3v3.46h3Zm-3,8.36h3v-3.53h-3Zm3.65-14.67a18.78,18.78,0,0,0-1.71-3.62l1.28-.51a19.38,19.38,0,0,1,1.77,3.58Z"/><path class="cls-3" d="M335.68,415.08s0,.6,0,.82c-.34,9.36-.68,12.38-1.4,13.37a2,2,0,0,1-1.58.81,28.56,28.56,0,0,1-2.9,0,3.74,3.74,0,0,0-.41-1.37c1.15.1,2.21.12,2.64.12a.88.88,0,0,0,.84-.36c.58-.67.91-3.65,1.2-11.93H320.2a17.87,17.87,0,0,1-3.6,4.2,4.33,4.33,0,0,0-1.18-1.05,16.11,16.11,0,0,0,4.76-6.48l1.63.28c-.24.53-.48,1.08-.77,1.61Zm-14.9-3.5h-5.14v-1.42h5.14v-1.87h1.56v1.87h3.12v1.42h-3.12v1.68h-1.56Zm2.32,12.84a13.36,13.36,0,0,1-5,4.92,5.14,5.14,0,0,0-1.1-1.27,11.19,11.19,0,0,0,4.8-4.16Zm2.74-1.27v7h-1.56v-7h-6.65v-1.42h6.65v-4.39h1.56v4.39h6.38v1.42Zm-5.3-5.5a11.07,11.07,0,0,1,2.25,3.19l-1.34.53a12.6,12.6,0,0,0-2.16-3.26Zm16.15-7.51v1.44H332v1.77H330.4v-1.77h-3.5v-1.44h3.5v-1.85H332v1.85Zm-6.14,18.29a25.23,25.23,0,0,0-3.41-3.77l1.15-.72a25.48,25.48,0,0,1,3.5,3.67Zm.59-10.37a28.43,28.43,0,0,1-2.73,3.24l-1.2-.41a28.5,28.5,0,0,0,2.45-3.31Z"/></g><rect class="cls-4" x="425.37" y="99" width="20.85" height="270.79"/><rect class="cls-5" x="446.22" y="99" width="20.85" height="270.79"/><rect class="cls-6" x="467.07" y="99" width="20.85" height="270.79"/><line class="cls-1" x1="42.87" y1="99.23" x2="539.89" y2="99.23"/><polyline class="cls-1" points="539.89 369.79 42.87 369.79 42.87 60.59 539.89 60.59"/><path class="cls-7" d="M510.87,83a41.13,41.13,0,1,0-41.13-41.13h0A41.13,41.13,0,0,0,510.87,83h0"/><path class="cls-7" d="M488.59,69.26l-6.86,27.43,24-17.14Z"/><g class="cls-2"><g class="cls-2"><path class="cls-8" d="M476.6,43.08V41.27h4.68V36.56h1.84v4.71h4.68v1.81h-4.68v4.7h-1.84v-4.7Z"/><path class="cls-8" d="M490.21,46.7A5.55,5.55,0,0,1,489,43.06h2a5.22,5.22,0,0,0,.56,2.17,2.94,2.94,0,0,0,2.72,1.21,3.54,3.54,0,0,0,2.45-.82,2.65,2.65,0,0,0,.92-2.1,2.47,2.47,0,0,0-1-2.23,5,5,0,0,0-2.7-.63h-.8V39c.2,0,.37,0,.51.05h.44a4,4,0,0,0,1.78-.35,2.17,2.17,0,0,0,1.23-2.14,2.13,2.13,0,0,0-.82-1.78,3.07,3.07,0,0,0-1.9-.62,2.83,2.83,0,0,0-2.68,1.29,4.53,4.53,0,0,0-.46,2h-1.91a5.76,5.76,0,0,1,.69-2.92,4.32,4.32,0,0,1,4.16-2.15,5.64,5.64,0,0,1,3.64,1,3.67,3.67,0,0,1,1.29,3,3.38,3.38,0,0,1-.77,2.3,3.24,3.24,0,0,1-1.22.86,3.31,3.31,0,0,1,1.89,1.28,3.87,3.87,0,0,1,.69,2.33,4.78,4.78,0,0,1-1.45,3.59,5.75,5.75,0,0,1-4.12,1.38A4.83,4.83,0,0,1,490.21,46.7Z"/><path class="cls-8" d="M503.41,43.86A2.68,2.68,0,0,0,505,46.15a3.73,3.73,0,0,0,1.59.32,3,3,0,0,0,2.54-1.09,4,4,0,0,0,.83-2.43,3.17,3.17,0,0,0-1-2.49,3.41,3.41,0,0,0-2.36-.88,3.49,3.49,0,0,0-1.71.38A3.6,3.6,0,0,0,503.64,41l-1.68-.1,1.17-8.28h8v1.87h-6.54l-.65,4.27a4.65,4.65,0,0,1,1-.61,5.53,5.53,0,0,1,5.57,1A4.51,4.51,0,0,1,512,42.66a6,6,0,0,1-1.34,3.84,5.23,5.23,0,0,1-4.31,1.67A5.44,5.44,0,0,1,503,47.11a4.19,4.19,0,0,1-1.62-3.25Z"/><path class="cls-8" d="M523.2,34.86a11,11,0,0,1,1,5.21,12.45,12.45,0,0,1-.94,5.19,4.56,4.56,0,0,1-4.42,2.94,4.45,4.45,0,0,1-4.13-2.4,11.07,11.07,0,0,1-1.12-5.4,13.37,13.37,0,0,1,.67-4.5q1.28-3.49,4.59-3.5A4.55,4.55,0,0,1,523.2,34.86Zm-2,10.25c.6-.89.89-2.54.89-5a12.3,12.3,0,0,0-.64-4.32A2.46,2.46,0,0,0,519,34.14a2.63,2.63,0,0,0-2.5,1.61,11,11,0,0,0-.79,4.73,11.49,11.49,0,0,0,.51,3.78,2.75,2.75,0,0,0,5,.85Z"/><path class="cls-8" d="M532.26,34a3.64,3.64,0,0,1,1.1,2.65,3.75,3.75,0,0,1-7.49,0A3.64,3.64,0,0,1,527,34a3.73,3.73,0,0,1,5.29,0Zm-1.08,4.21a2.21,2.21,0,0,0-1.57-3.77,2.12,2.12,0,0,0-1.56.64,2.21,2.21,0,1,0,3.13,3.13Zm7.42-5.71h1.2l-8.6,15.73H530Zm4.2,8.93a3.75,3.75,0,1,1-2.64-1.09A3.62,3.62,0,0,1,542.8,41.39Zm-1.08,4.22a2.21,2.21,0,1,0-1.56.65A2.13,2.13,0,0,0,541.72,45.61Z"/></g></g></svg>