<svg xmlns="http://www.w3.org/2000/svg" width="42" height="42" viewBox="0 0 42 42"><path fill="#1b6f2f" d="M16.962,41.236a23.373,23.373,0,0,1,2.447-13.669,32.213,32.213,0,0,1,4.351-6.519c.736-.874,1.509-1.717,2.308-2.542a.233.233,0,0,0,.025-.026.326.326,0,0,0,.024-.025c.385-.4.776-.787,1.171-1.176l.016-.016c.007-.007.017-.014.024-.022,1.226-1.2,2.5-2.362,3.783-3.512a37.2,37.2,0,0,0-4.258,3.008l-.024.02-.02.016c-.676.545-1.34,1.1-2,1.672l-.033.029c-.011.009-.022.02-.033.029-.556.479-1.1.965-1.642,1.444-3.207,2.848-5.323,6.512-7.362,10.215a.609.609,0,0,1-.31.28.633.633,0,0,1-.867-.5,20.483,20.483,0,0,1,1.584-11.068.211.211,0,0,0,.011-.024c0-.009.009-.018.014-.027a17.362,17.362,0,0,1,4.445-5.989.215.215,0,0,1,.022-.02c.007-.008.015-.013.022-.02.081-.067.159-.135.24-.2.215-.178.433-.351.653-.521l.026-.02.022-.016a33.748,33.748,0,0,1,3.069-2.094l.022-.012.026-.016c2.836-1.723,5.872-3.109,8.856-4.619A25.951,25.951,0,0,0,40.908.2a.652.652,0,0,1,.229-.159A.632.632,0,0,1,41.974.8c-1.489,5.237-1.109,10.725-3.039,15.9a23.733,23.733,0,0,1-9.2,11.858c-3.309,2.117-7.509,3.076-10.587,5.491-.062.051-.122.1-.184.14a17.625,17.625,0,0,0-.277,6.848.862.862,0,0,1-.548.9.9.9,0,0,1-.217.055.869.869,0,0,1-.964-.758Zm-3.9-23.27a19.685,19.685,0,0,1-4.77-2.8,29.993,29.993,0,0,1-4.548-4.81A36.871,36.871,0,0,0,.177,6.388.531.531,0,0,1,.009,5.9.483.483,0,0,1,.3,5.534.466.466,0,0,1,.6,5.523a17.654,17.654,0,0,0,6.233.421c.586-.045,1.178-.1,1.753-.149a35.328,35.328,0,0,1,8.466-.062,13.07,13.07,0,0,1,6.257,2.881c.136.11.27.225.4.341a.18.18,0,0,0-.025.014l-.023.015a33.381,33.381,0,0,0-3.585,2.538c-.007.007-.016.012-.023.02a.16.16,0,0,1-.024.019s0,0,0,0c-.433-.124-.874-.231-1.321-.316a40.157,40.157,0,0,0-6.507-.862,50.293,50.293,0,0,1,6.6,1.69l.456.163-.022.02-.022.021a18.936,18.936,0,0,0-4.388,6.232.188.188,0,0,1-.013.028.108.108,0,0,1-.009.021A16.762,16.762,0,0,1,13.058,17.966Z"/></svg>