<svg xmlns="http://www.w3.org/2000/svg" width="234" height="36" viewBox="0 0 234 36">
    <g>
        <path d="M0 0H9.157V2.644H0z" transform="translate(-140 -29.677) translate(204.503 29.881)"/>
        <path d="M38.3 35.593h4.273V2.644h13.633V0H38.3z" transform="translate(-140 -29.677) translate(179.632 29.881)"/>
        <path d="M15.261 0L0 35.593h2.645L15.057 6.712l6.511 14.441h-8.75l-1.018 2.44h10.786l5.494 12h4.477L16.685 0z" transform="translate(-140 -29.677) translate(140 29.881)"/>
        <path d="M37.72 18.1c2.442-1.831 3.663-4.475 3.663-8.136C41.383 3.051 37.923 0 30.191 0H19v35.593h4.273V2.441h7.122c4.883 0 6.308 1.627 6.308 7.525 0 3.254-.61 7.729-5.29 7.729h-4.07v2.441h1.017l11.8 15.458h5.29L33.447 19.729A10.2 10.2 0 0 0 37.72 18.1" transform="translate(-140 -29.677) translate(159.661 29.881)"/>
        <path d="M0 0H4.07V35.593H0z" transform="translate(-140 -29.677) translate(242.35 29.881)"/>
        <path d="M72.589 15.764l-4.273-1.017c-3.866-1.017-7.122-2.034-7.122-6.1 0-3.661 3.256-6.305 7.936-6.305s8.546 2.033 10.17 5.694l.61 1.017 2.035-1.627-.407-.61C79.507 2.544 74.827-.1 69.13-.1c-6.715 0-11.8 4.068-11.8 9.559.2 2.847 1.017 4.881 2.849 6.305a18.089 18.089 0 0 0 7.121 3.051l4.477 1.017c3.459.814 7.122 2.237 7.122 6.508 0 4.678-4.273 6.915-8.75 6.915-5.7 0-10.377-2.644-12.005-6.915l-.407-1.017-2.037 1.221.2.814c1.831 5.085 7.529 8.542 14.243 8.542a14.7 14.7 0 0 0 8.546-2.644 9.384 9.384 0 0 0 4.07-7.932c0-4.881-3.052-7.729-10.174-9.559" transform="translate(-140 -29.677) translate(197.637 29.777)"/>
        <path d="M109.379 9.966C109.379 3.051 105.92 0 98.188 0h-2.442v2.441h2.849c4.883 0 6.308 1.627 6.308 7.525 0 3.254-.61 7.729-5.29 7.729h-8.14V0H87.2v35.593h4.273V20.136h5.494l11.191 15.458h5.29l-11.6-15.864c2.645-.61 7.529-2.847 7.529-9.763" transform="translate(-140 -29.677) translate(230.233 29.881)"/>
        <path d="M127.773 0l-11.395 18.305L105.39.407 104.983 0H100.1l13.023 21.153v14.44h4.477v-14.44L130.418 0z" transform="translate(-140 -29.677) translate(243.582 29.881)"/>
        <path d="M0 0H4.273V28.678H0z" transform="translate(-140 -29.677) translate(294.847 36.796)"/>
        <path d="M0 0H31.336V2.644H0z" transform="translate(-140 -29.677) translate(281.417 29.881)"/>
    </g>
</svg>
