<svg id="圖層_1" data-name="圖層 1" xmlns="http://www.w3.org/2000/svg" viewBox="0 0 400 136.07"><defs><style>.cls-1{fill-rule:evenodd;}</style></defs><path class="cls-1" d="M400,117.53s-14.06-4.15-40.73-8.33c2.92-4.17,4.88-10.88,6.15-15.23l19.79-68.62h-18L356.89,72,345.62,25.35H326.45V25.2h-16.9v9c-3.13-6.72-8.53-10.56-15.42-10.56-11.74,0-27.07,10.09-27.07,37.4,0,21.6,11,35,25.82,35C303,96,307,90.14,309.15,86.93v7.59h17.3V25.6l19.17,59.85A21.88,21.88,0,0,1,347,91.31c0,2.82-1.18,5.8-2.66,7-1.8,1.72-5.79,1.72-7.44,1.72h-4.69v5.56C265.59,98.05,152.36,95,2.82,127.15L0,136.07s174.68-42.93,332.16-27.49v6.76a44.65,44.65,0,0,0,4.69.31c12.85,0,17.25-1.33,20.34-4.08,14.4,2,28.57,4.62,42.34,7.84ZM303.68,76A10.15,10.15,0,0,1,296,79.81c-3.44,0-7.43-2.11-9.86-8.14a31.87,31.87,0,0,1-1.88-11.89c0-5.32.71-10.8,3.68-15.18,2.19-3.13,5.55-5.08,8.76-5.08A9.63,9.63,0,0,1,303.84,43c2.26,2.58,4.45,7.2,4.45,16.19C308.29,65.41,307.43,71.44,303.68,76Z"/><polygon class="cls-1" points="215.96 94.52 226.29 47.81 236.7 94.52 253.21 94.52 271.2 25.35 253.21 25.35 243.66 68.62 234.12 25.35 218.47 25.35 208.76 68.62 199.29 25.35 181.22 25.35 199.29 94.52 215.96 94.52"/><path class="cls-1" d="M39.12,74.41H66.9l5.71,20.11h37.33V63.93c0-13.07.15-18.15,5.32-21a8.64,8.64,0,0,1,4.54-1.25,8.38,8.38,0,0,1,7.2,4.15c1.8,3,1.8,6.41,1.8,13.92V94.52h17.68V60.33c0-5.64,0-11.35,2-14.71a9.18,9.18,0,0,1,7.52-4,7.85,7.85,0,0,1,7.35,3.91c1.8,2.89,2,5.16,2,16.27V94.52H183V57.67c0-16-.31-22.46-6.26-28.33a20,20,0,0,0-14.16-5.47c-4.7,0-13.46,1.48-19,11.73A16.45,16.45,0,0,0,133.65,25a21.44,21.44,0,0,0-6.89-1.25,19.13,19.13,0,0,0-12.13,4.15,17.47,17.47,0,0,0-4.77,6.8V25.35H92.33v62.7L63.62,0H41.47L11.82,94.52H33.57ZM52.66,20.74,62.13,57.2H43.66Z"/></svg>