<svg xmlns="http://www.w3.org/2000/svg" viewBox="0 0 400 400"><defs><style>.cls-1{fill:#214888;}</style></defs><g id="圖層_2" data-name="圖層 2"><path class="cls-1" d="M200.14,211.64A105.82,105.82,0,1,1,306,105.82,105.95,105.95,0,0,1,200.14,211.64Zm0-195.58a89.76,89.76,0,1,0,89.75,89.76A89.87,89.87,0,0,0,200.14,16.06Z"/><path class="cls-1" d="M387.51,400a8,8,0,0,1-8-8V346.21a98.42,98.42,0,0,0-98.31-98.3H118.83a98.42,98.42,0,0,0-98.31,98.3V392a8,8,0,0,1-16.06,0V346.21A114.5,114.5,0,0,1,118.83,231.85H281.17A114.5,114.5,0,0,1,395.54,346.21V392A8,8,0,0,1,387.51,400Z"/></g></svg>