<svg xmlns="http://www.w3.org/2000/svg" viewBox="0 0 400 400"><defs><style>.cls-1{fill:#214888;}</style></defs><g id="圖層_2" data-name="圖層 2"><path class="cls-1" d="M391.85,400H8.15A8.15,8.15,0,0,1,0,391.85V8.15A8.15,8.15,0,0,1,8.15,0h383.7A8.15,8.15,0,0,1,400,8.15v383.7A8.15,8.15,0,0,1,391.85,400ZM16.3,383.7H383.7V16.3H16.3Z"/><path class="cls-1" d="M346,96H54a8.15,8.15,0,0,1,0-16.3H346A8.15,8.15,0,0,1,346,96Z"/><path class="cls-1" d="M346,179.24H144a8.15,8.15,0,0,1,0-16.3H346a8.15,8.15,0,0,1,0,16.3Z"/><path class="cls-1" d="M346,248.57H144a8.15,8.15,0,0,1,0-16.3H346a8.15,8.15,0,0,1,0,16.3Z"/><path class="cls-1" d="M346,316.33H144A8.15,8.15,0,1,1,144,300H346a8.15,8.15,0,0,1,0,16.29Z"/><circle class="cls-1" cx="77.25" cy="171.09" r="15.35"/><circle class="cls-1" cx="77.25" cy="240.42" r="15.35"/><circle class="cls-1" cx="77.25" cy="308.19" r="15.35"/></g></svg>