<svg xmlns="http://www.w3.org/2000/svg" viewBox="0 0 400 400"><defs><style>.cls-1{fill:#214888;}</style></defs><g id="圖層_2" data-name="圖層 2"><path class="cls-1" d="M305.65,400H94.36a52,52,0,0,1-52-52V208.59a52,52,0,0,1,43.88-51.33v-43.2a114.06,114.06,0,1,1,228.11,0v43.22a51.85,51.85,0,0,1,43.23,51.31V348A52,52,0,0,1,305.65,400ZM200.33,16.17a98,98,0,0,0-97.88,97.89v50.66a8.09,8.09,0,0,1-8.09,8.09,35.82,35.82,0,0,0-35.79,35.78V348a35.83,35.83,0,0,0,35.79,35.79H305.65A35.83,35.83,0,0,0,341.43,348V208.59c0-20.06-15.43-35.78-35.13-35.78a8.09,8.09,0,0,1-8.09-8.09V114.06A98,98,0,0,0,200.33,16.17Zm64.58,156.64H135.74a8.09,8.09,0,0,1-8.09-8.09V115.35a72.68,72.68,0,0,1,145.35,0v49.37A8.09,8.09,0,0,1,264.91,172.81ZM143.83,156.63h113V115.35a56.5,56.5,0,1,0-113,0Z"/><path class="cls-1" d="M200,329.26a15.33,15.33,0,0,1-15.32-15.32V281.83a29.38,29.38,0,1,1,30.64,0v32.11A15.33,15.33,0,0,1,200,329.26Z"/></g></svg>