<svg xmlns="http://www.w3.org/2000/svg" viewBox="0 0 400 400"><defs><style>.cls-1{fill:#214888;}</style></defs><g id="圖層_2" data-name="圖層 2"><path class="cls-1" d="M369.54,397.83c-.66,0-1.34,0-2-.07l-28.23-1.89C152.43,383.34,6.8,232.74.57,45.56L0,28.91A25.86,25.86,0,0,1,25.88,2.17h81.71a26,26,0,0,1,25.6,22.14l11.91,81.52a34.75,34.75,0,0,1-9.38,29L95.44,176.31l2.17,4.11A288.94,288.94,0,0,0,218.13,301.27l2.86,1.51a5.63,5.63,0,0,0,6.6-.93l43.23-42a21.84,21.84,0,0,1,20.06-5.69l91.92,20.43A21.82,21.82,0,0,1,400,296v71.41a30.43,30.43,0,0,1-30.46,30.44ZM25.88,18.46a9.6,9.6,0,0,0-9.6,9.91L16.84,45c6,178.79,145.06,322.64,323.54,334.61l28.23,1.89a14.15,14.15,0,0,0,15.11-14.13V296a5.72,5.72,0,0,0-4.45-5.54L287.35,270a5.66,5.66,0,0,0-5.18,1.48l-43.22,42a21.86,21.86,0,0,1-25.59,3.65l-2.85-1.5A305.2,305.2,0,0,1,83.21,188l-4.93-9.34a8.13,8.13,0,0,1,1.37-9.47L124,123.52a18.35,18.35,0,0,0,5-15.33L117.08,26.67a9.63,9.63,0,0,0-9.49-8.21Z"/></g></svg>