<svg xmlns="http://www.w3.org/2000/svg" viewBox="0 0 400 400"><defs><style>.cls-1{fill:#fff;}</style></defs><g id="圖層_2" data-name="圖層 2"><path class="cls-1" d="M200,400C89.72,400,0,310.28,0,200S89.72,0,200,0,400,89.72,400,200,310.28,400,200,400Zm0-383.72C98.69,16.28,16.28,98.69,16.28,200S98.69,383.72,200,383.72,383.72,301.31,383.72,200,301.3,16.28,200,16.28Z"/><path class="cls-1" d="M200,216c-36,0-65.29-28.18-65.29-62.81S164,90.35,200,90.35s65.27,28.18,65.27,62.81S236,216,200,216Zm0-109.34c-27,0-49,20.87-49,46.53s22,46.53,49,46.53,49-20.87,49-46.53S227,106.63,200,106.63Z"/><path class="cls-1" d="M200,293.5c-67.36,0-101.51-10.43-101.51-31,0-35.22,44.59-62.81,101.51-62.81s101.49,27.59,101.49,62.81C301.49,283.07,267.34,293.5,200,293.5ZM200,216c-46.2,0-85.23,21.31-85.23,46.53,0,3.93,20.2,14.72,85.23,14.72s85.21-10.79,85.21-14.72C285.21,237.28,246.19,216,200,216Z"/></g></svg>