<svg id="Layer_1" data-name="Layer 1" xmlns="http://www.w3.org/2000/svg" viewBox="0 0 300 106.75"><defs><style>.cls-1{fill:#fff;}</style></defs><path class="cls-1" d="M4.89,102.59S171,61.78,294.07,90.53l.38-1.33S187.06,57.49,7,96.12"/><path class="cls-1" d="M84.4,22.51v6.76a12.18,12.18,0,0,1,3.48-4.92,13.82,13.82,0,0,1,8.78-3,14.84,14.84,0,0,1,5,.87A11.79,11.79,0,0,1,108.83,30c4-7.44,10.34-8.5,13.73-8.5a14.53,14.53,0,0,1,10.26,4c4.35,4.25,4.52,8.88,4.52,20.48V72.54H124.57V48.88c0-8-.18-9.66-1.48-11.78a5.65,5.65,0,0,0-5.31-2.81,6.62,6.62,0,0,0-5.47,2.9c-1.4,2.42-1.4,6.57-1.4,10.63V72.54H98.14V47.33c0-5.41,0-7.82-1.31-10a6.08,6.08,0,0,0-5.21-3,6.73,6.73,0,0,0-3.31.88c-3.73,2.12-3.82,5.79-3.82,15.26V72.54H71.71v-50"/><polyline class="cls-1" points="188.16 22.51 201.19 22.51 188.16 72.54 176.24 72.54 168.68 38.74 161.21 72.54 149.13 72.54 136.09 22.51 149.13 22.51 155.99 53.8 163.03 22.51 174.33 22.51 181.29 53.8"/><path class="cls-1" d="M228.69,72.54h12.52V22.42H229v6.47c-2.26-4.83-6.17-7.63-11.13-7.63-8.51,0-19.64,7.34-19.64,27,0,15.65,8,25.31,18.69,25.31,7.3,0,10.25-4.25,11.82-6.57M228,47c0,4.54-.61,8.88-3.3,12.17a7.47,7.47,0,0,1-5.57,2.8c-2.52,0-5.38-1.55-7.13-5.9a22.7,22.7,0,0,1-1.39-8.59c0-3.86.53-7.83,2.7-11a8.13,8.13,0,0,1,6.35-3.67,6.87,6.87,0,0,1,5.13,2.51C226.47,37.1,228,40.48,228,47Z"/><path class="cls-1" d="M270.72,22.51h13l-14.3,49.65c-1,3.47-2.69,9.17-5.21,12-2.35,2.52-5.13,3.68-15.47,3.68-1.48,0-2.09-.1-3.39-.2V76.5h3.39c1.21,0,4.08,0,5.38-1.25a7.13,7.13,0,0,0,1.92-5,16.89,16.89,0,0,0-1-4.25L241.16,22.51h13.91l8.17,33.71"/><path class="cls-1" d="M35.07,4.2,13.6,72.54H29.37l4-14.52H53.5l4.1,14.52H73.45L51.1,4.2m-7.93,15L50,45.53H36.67Z"/></svg>